<svg width="654" height="374" viewBox="0 0 654 374" fill="none" xmlns="http://www.w3.org/2000/svg">
<mask id="mask0_8_4673" style="mask-type:alpha" maskUnits="userSpaceOnUse" x="0" y="0" width="654" height="374">
<rect width="654" height="373.339" fill="white"/>
</mask>
<g mask="url(#mask0_8_4673)">
<path d="M330.058 281.708C289.408 491.587 214.242 452.703 120.641 507.921C27.0406 563.14 -9.73396 566.221 -81.4989 489.48C-153.264 412.739 -186.358 263.118 -113.38 137.601C-40.4016 12.0847 -53.5157 -88.4259 1.73832 -162.865C56.9923 -237.303 127.134 -238.882 182.406 -134.447C237.678 -30.0131 380.146 22.9174 330.058 281.708Z" fill="#409B95"/>
<path opacity="0.7" d="M330.058 281.708C289.408 491.587 214.242 452.703 120.641 507.921C27.0406 563.14 -9.73396 566.221 -81.4989 489.48C-153.264 412.739 -186.358 263.118 -113.38 137.601C-40.4016 12.0847 -53.5157 -88.4259 1.73832 -162.865C56.9923 -237.303 127.134 -238.882 182.406 -134.447C237.678 -30.0131 380.146 22.9174 330.058 281.708Z" fill="white"/>
</g>
<path d="M640.245 175.197C637.017 159.409 631.35 143.997 624.611 129.829C612.993 105.386 593.959 85.089 569.608 73.04C509.856 43.472 466.736 55.792 443.328 79.816C419.92 103.84 426.696 145.112 401.44 162.976C376.184 180.84 358.32 188.848 357.088 221.496C355.856 254.144 371.872 278.784 397.744 286.792C423.616 294.8 462.424 320.672 540.04 305.888C617.656 291.104 636.752 249.832 641.68 220.264C644.144 205.388 643.294 190.123 640.245 175.197Z" fill="#409B95"/>
<path opacity="0.7" d="M640.245 175.197C637.017 159.409 631.35 143.997 624.611 129.829C612.993 105.386 593.959 85.089 569.608 73.04C509.856 43.472 466.736 55.792 443.328 79.816C419.92 103.84 426.696 145.112 401.44 162.976C376.184 180.84 358.32 188.848 357.088 221.496C355.856 254.144 371.872 278.784 397.744 286.792C423.616 294.8 462.424 320.672 540.04 305.888C617.656 291.104 636.752 249.832 641.68 220.264C644.144 205.388 643.294 190.123 640.245 175.197Z" fill="white"/>
<path d="M458.309 85.0643H452.728V109.797H458.309V85.0643Z" fill="#C9C9C9" stroke="#263238" stroke-linecap="round" stroke-linejoin="round"/>
<path d="M458.309 88.7849H452.728V91.1996H458.309V88.7849Z" fill="white" stroke="#263238" stroke-linecap="round" stroke-linejoin="round"/>
<path d="M458.309 104.13H452.728V106.544H458.309V104.13Z" fill="white" stroke="#263238" stroke-linecap="round" stroke-linejoin="round"/>
<path d="M464.82 85.0643H457.01V109.797H464.82V85.0643Z" fill="#878787" stroke="#263238" stroke-linecap="round" stroke-linejoin="round"/>
<path d="M464.266 85.0643H458.685V109.797H464.266V85.0643Z" fill="#C9C9C9" stroke="#263238" stroke-linecap="round" stroke-linejoin="round"/>
<path d="M464.266 88.7849H458.685V91.1996H464.266V88.7849Z" fill="white" stroke="#263238" stroke-linecap="round" stroke-linejoin="round"/>
<path d="M464.266 104.13H458.685V106.544H464.266V104.13Z" fill="white" stroke="#263238" stroke-linecap="round" stroke-linejoin="round"/>
<path d="M470.771 85.0643H462.96V109.797H470.771V85.0643Z" fill="#878787" stroke="#263238" stroke-linecap="round" stroke-linejoin="round"/>
<path d="M470.216 85.0643H464.635V109.797H470.216V85.0643Z" fill="#C9C9C9" stroke="#263238" stroke-linecap="round" stroke-linejoin="round"/>
<path d="M470.216 88.7849H464.635V91.1996H470.216V88.7849Z" fill="white" stroke="#263238" stroke-linecap="round" stroke-linejoin="round"/>
<path d="M470.216 104.13H464.635V106.544H470.216V104.13Z" fill="white" stroke="#263238" stroke-linecap="round" stroke-linejoin="round"/>
<path d="M476.722 85.0643H468.911V109.797H476.722V85.0643Z" fill="#C9C9C9" stroke="#263238" stroke-linecap="round" stroke-linejoin="round"/>
<path d="M481.81 110.049H494.918L498.405 106.895H481.81V110.049Z" fill="white" stroke="#263238" stroke-linecap="round" stroke-linejoin="round"/>
<path d="M496.92 110.209L496.501 109.489L481.539 109.458L481.97 110.209H496.92Z" fill="white" stroke="#263238" stroke-linecap="round" stroke-linejoin="round"/>
<path d="M474.22 85.5793L469.389 88.3732L481.77 109.783L486.602 106.99L474.22 85.5793Z" fill="#C9C9C9" stroke="#263238" stroke-linecap="round" stroke-linejoin="round"/>
<path d="M476.084 88.7915L471.253 91.5853L472.462 93.6757L477.293 90.8818L476.084 88.7915Z" fill="white" stroke="#263238" stroke-linecap="round" stroke-linejoin="round"/>
<path d="M483.771 102.073L478.94 104.867L480.149 106.958L484.98 104.164L483.771 102.073Z" fill="white" stroke="#263238" stroke-linecap="round" stroke-linejoin="round"/>
<path d="M498.318 107.111L486.473 107.08L474.091 85.668L485.937 85.6988L498.318 107.111Z" fill="#C9C9C9" stroke="#263238" stroke-linecap="round" stroke-linejoin="round"/>
<path d="M504.774 97.526C504.774 97.526 502.618 96.756 502.002 93.368C501.386 89.98 500.308 85.206 501.54 84.128C502.772 83.05 505.082 82.434 505.39 84.59C505.698 86.746 505.236 90.904 505.698 91.828C506.16 92.752 507.7 92.136 507.7 90.288C507.7 87.245 506.468 84.128 506.905 81.048C507.521 76.7914 511.833 76.3233 512.295 81.048C512.554 83.6598 512.628 86.3271 512.628 88.9513C512.628 90.0293 514.476 90.6453 514.322 88.0273C514.211 86.1793 515.554 84.0233 517.402 84.6393C519.25 85.2553 517.71 93.4173 517.094 94.8033C516.478 96.1893 512.628 96.448 512.628 96.448V99.99L508.008 100.144L507.854 96.602C506.913 97.1457 505.859 97.4622 504.774 97.526Z" fill="#409B95" stroke="#263238" stroke-linecap="round" stroke-linejoin="round"/>
<path d="M508.932 90.7747C508.987 91.5447 509.024 92.0067 509.024 92.0067" stroke="#263238" stroke-linecap="round" stroke-linejoin="round"/>
<path d="M509.24 78.8304C509.24 78.8304 508.23 79.5327 508.304 81.6394C508.353 82.9207 508.599 86.4688 508.79 89.0622" stroke="#263238" stroke-linecap="round" stroke-linejoin="round"/>
<path d="M510.977 86.093L511.137 91.2489" stroke="#263238" stroke-linecap="round" stroke-linejoin="round"/>
<path d="M513.232 94.6C512.875 94.6552 512.515 94.686 512.154 94.6919" stroke="#263238" stroke-linecap="round" stroke-linejoin="round"/>
<path d="M516.447 85.9391C516.092 86.6134 515.904 87.3635 515.899 88.1259C515.899 89.3579 515.979 92.8136 515.197 93.75C515.006 93.9602 514.773 94.1281 514.513 94.2428" stroke="#263238" stroke-linecap="round" stroke-linejoin="round"/>
<path d="M503.08 92.869C503.265 93.7952 503.709 94.6497 504.361 95.333C504.747 95.6416 505.223 95.8158 505.716 95.8291C506.21 95.8425 506.695 95.6942 507.096 95.4069" stroke="#263238" stroke-linecap="round" stroke-linejoin="round"/>
<path d="M502.932 84.5345C502.932 84.5345 501.374 84.5345 501.916 87.2634C502.15 88.4153 502.365 89.8321 502.643 91.1689" stroke="#263238" stroke-linecap="round" stroke-linejoin="round"/>
<path d="M508.791 94.9203L509.105 98.2775" stroke="#263238" stroke-linecap="round" stroke-linejoin="round"/>
<path d="M516.786 98.604L516.226 103.199L515.844 106.329L515.4 109.969H504.318L503.875 106.329L503.493 103.199L502.932 98.604H516.786Z" fill="white" stroke="#263238" stroke-linecap="round" stroke-linejoin="round"/>
<path d="M516.226 103.199L515.844 106.329H503.875L503.493 103.199H516.226Z" fill="#409B95" stroke="#263238" stroke-linecap="round" stroke-linejoin="round"/>
<path d="M522.872 109.969H451.743V114.682H522.872V109.969Z" fill="white" stroke="#263238" stroke-linecap="round" stroke-linejoin="round"/>
<path d="M522.872 109.969H506.474V114.682H522.872V109.969Z" fill="white" stroke="#263238" stroke-linecap="round" stroke-linejoin="round"/>
<path d="M504.879 114.7C512.499 117.509 511.125 122.819 511.125 122.819H518.338V114.7H504.879Z" fill="#919191" stroke="#263238" stroke-linecap="round" stroke-linejoin="round"/>
<path d="M507.312 114.7C514.926 117.509 513.552 122.819 513.552 122.819H520.772V114.7H507.312Z" fill="white" stroke="#263238" stroke-linecap="round" stroke-linejoin="round"/>
<path d="M456.061 114.7C463.681 117.509 462.307 122.819 462.307 122.819H469.52V114.7H456.061Z" fill="#919191" stroke="#263238" stroke-linecap="round" stroke-linejoin="round"/>
<path d="M458.494 114.7C466.108 117.509 464.734 122.819 464.734 122.819H471.954V114.7H458.494Z" fill="white" stroke="#263238" stroke-linecap="round" stroke-linejoin="round"/>
<path d="M621.993 85.9452H558.2V174.501H621.993V85.9452Z" fill="#919191" stroke="#263238" stroke-linecap="round" stroke-linejoin="round"/>
<path d="M619.227 89.7891H560.972V170.658H619.227V89.7891Z" fill="#409B95"/>
<path opacity="0.5" d="M619.227 89.7891H560.972V170.658H619.227V89.7891Z" fill="white"/>
<path d="M573.778 164.516C572.216 166.899 570.243 168.984 567.951 170.676H619.227V89.7891H609.777L608.545 90.1771C599.305 93.0908 589.757 101.524 584.343 116.85" stroke="#263238" stroke-linecap="round" stroke-linejoin="round"/>
<path d="M583.443 119.536C581.292 126.845 580.104 134.403 579.908 142.02C579.569 151.161 577.622 157.734 575.023 162.459" stroke="#263238" stroke-linecap="round" stroke-linejoin="round"/>
<path d="M613.529 110.314C605.059 115.242 595.197 123.521 591.513 136.217C589.536 142.993 591.39 149.104 595.055 154.334" stroke="#263238" stroke-linecap="round" stroke-linejoin="round"/>
<path d="M597.039 156.884C602.121 162.834 609.359 167.516 615.217 170.664H619.227V107.327C618.081 107.862 616.861 108.466 615.592 109.175" stroke="#263238" stroke-linecap="round" stroke-linejoin="round"/>
<path d="M570.655 110.875C575.115 101.783 575.583 94.5692 575.072 89.7891H560.984V126.786C563.066 123.823 565.616 119.862 568.696 114.552C568.887 114.226 569.066 113.936 569.245 113.591" stroke="#263238" stroke-linecap="round" stroke-linejoin="round"/>
<path d="M576.175 145.894C575.491 150.373 573.433 153.625 571.006 153.625C568.019 153.625 565.592 148.697 565.592 142.599C565.592 136.5 568.019 131.572 571.006 131.572C573.994 131.572 576.421 136.5 576.421 142.599" stroke="#263238" stroke-linecap="round" stroke-linejoin="round"/>
<path d="M578.743 119.967C578.743 122.314 577.708 124.223 576.421 124.223C575.133 124.223 574.105 122.314 574.105 119.967C574.105 117.62 575.14 115.71 576.421 115.71C577.702 115.71 578.743 117.614 578.743 119.967Z" stroke="#263238" stroke-linecap="round" stroke-linejoin="round"/>
<path d="M608.299 137.948C610.535 139.014 611.995 140.874 611.995 142.987C611.995 146.295 608.36 148.98 603.87 148.98C599.379 148.98 595.751 146.295 595.751 142.987C595.751 139.679 599.385 136.987 603.87 136.987C604.585 136.986 605.299 137.057 606.001 137.196" stroke="#263238" stroke-linecap="round" stroke-linejoin="round"/>
<path d="M607.295 142.987C607.295 144.373 605.773 145.5 603.888 145.5C602.003 145.5 600.482 144.373 600.482 142.987C600.482 141.601 602.01 140.467 603.888 140.467C605.767 140.467 607.295 141.595 607.295 142.987Z" stroke="#263238" stroke-linecap="round" stroke-linejoin="round"/>
<path d="M612.79 127.704C612.79 129.626 610.886 131.184 608.533 131.184C606.18 131.184 604.277 129.626 604.277 127.704C604.277 125.782 606.18 124.223 608.533 124.223C610.886 124.223 612.79 125.782 612.79 127.704Z" stroke="#263238" stroke-linecap="round" stroke-linejoin="round"/>
<path d="M582.033 108.361C583.635 108.361 584.934 105.157 584.934 101.203C584.934 97.2502 583.635 94.0455 582.033 94.0455C580.43 94.0455 579.131 97.2502 579.131 101.203C579.131 105.157 580.43 108.361 582.033 108.361Z" stroke="#263238" stroke-linecap="round" stroke-linejoin="round"/>
<path d="M589.967 162.717C589.967 163.521 589.728 164.307 589.282 164.976C588.835 165.645 588.2 166.166 587.457 166.473C586.714 166.781 585.897 166.862 585.108 166.705C584.319 166.548 583.595 166.161 583.026 165.592C582.458 165.023 582.071 164.299 581.914 163.51C581.757 162.722 581.837 161.904 582.145 161.161C582.453 160.418 582.974 159.784 583.643 159.337C584.311 158.89 585.097 158.652 585.901 158.652C586.98 158.652 588.014 159.08 588.776 159.842C589.539 160.605 589.967 161.639 589.967 162.717Z" stroke="#263238" stroke-linecap="round" stroke-linejoin="round"/>
<path d="M608.921 102.362C608.922 102.86 608.776 103.348 608.499 103.764C608.223 104.179 607.829 104.503 607.369 104.694C606.908 104.886 606.401 104.936 605.912 104.839C605.422 104.742 604.973 104.502 604.62 104.149C604.268 103.796 604.027 103.347 603.93 102.858C603.833 102.368 603.884 101.861 604.075 101.401C604.267 100.94 604.591 100.547 605.006 100.27C605.421 99.9939 605.909 99.8471 606.408 99.8483C607.074 99.8499 607.712 100.115 608.183 100.586C608.654 101.057 608.92 101.695 608.921 102.362Z" stroke="#263238" stroke-linecap="round" stroke-linejoin="round"/>
<path d="M593.059 120.158C593.06 120.426 592.982 120.689 592.834 120.912C592.685 121.136 592.474 121.311 592.227 121.414C591.979 121.518 591.707 121.546 591.443 121.494C591.18 121.442 590.938 121.314 590.748 121.125C590.558 120.935 590.428 120.694 590.375 120.431C590.322 120.168 590.349 119.895 590.451 119.647C590.554 119.399 590.727 119.187 590.95 119.038C591.173 118.888 591.436 118.809 591.704 118.809C591.881 118.808 592.058 118.842 592.222 118.91C592.386 118.977 592.536 119.076 592.662 119.202C592.788 119.327 592.888 119.476 592.956 119.64C593.024 119.804 593.059 119.98 593.059 120.158Z" stroke="#263238" stroke-linecap="round" stroke-linejoin="round"/>
<path d="M619.227 89.7891H560.972V170.658H619.227V89.7891Z" stroke="#263238" stroke-linecap="round" stroke-linejoin="round"/>
<path d="M524.018 205.104H508.193V211.061H524.018V205.104Z" fill="#263238" stroke="#263238" stroke-linecap="round" stroke-linejoin="round"/>
<path d="M545.251 206.004H482.265L485.247 157.179H548.239L545.251 206.004Z" fill="#919191" stroke="#263238" stroke-linecap="round" stroke-linejoin="round"/>
<path d="M543.446 206.004H480.46L483.442 157.179H546.428L543.446 206.004Z" fill="#263238" stroke="#263238" stroke-linecap="round" stroke-linejoin="round"/>
<path d="M540.114 203.287H484.126L486.775 159.89H542.763L540.114 203.287Z" fill="white" stroke="#263238" stroke-linecap="round" stroke-linejoin="round"/>
<path d="M523.827 196.819H485.795L487.834 163.376H525.872L523.827 196.819Z" fill="#919191" stroke="#263238" stroke-linecap="round" stroke-linejoin="round"/>
<path d="M500.801 182.454C500.801 182.454 492.879 185.589 492.83 186.433C492.78 187.277 491.228 196.819 491.228 196.819H514.784L512.8 185.83L504.084 182.208L500.801 182.454Z" fill="white" stroke="#263238" stroke-linecap="round" stroke-linejoin="round"/>
<path d="M501.035 180.52C500.439 180.677 499.885 180.965 499.415 181.364C498.799 181.98 498.047 184.019 498.047 184.019L498.016 186.433L501.139 184.745L504.312 184.536L507.281 187.314L507.663 183.088C507.663 183.088 507.207 180.674 506.246 180.551C505.285 180.427 501.035 180.52 501.035 180.52Z" fill="white" stroke="#263238" stroke-linecap="round" stroke-linejoin="round"/>
<path d="M500.936 178.228L500.801 182.454L502.667 185.472L505.753 182.331L506.234 178.468L500.936 178.228Z" fill="white" stroke="#263238" stroke-linecap="round" stroke-linejoin="round"/>
<path d="M508.55 173.288C508.328 176.83 505.975 181.123 503.394 181.123C500.813 181.123 498.984 176.811 499.199 173.288C499.415 169.764 501.663 166.875 504.263 166.875C506.862 166.875 508.766 169.752 508.55 173.288Z" fill="white" stroke="#263238" stroke-linecap="round" stroke-linejoin="round"/>
<path d="M499.156 173.756C499.156 173.756 498.325 171.588 497.98 173.276C497.635 174.963 499.335 176.774 499.335 176.774L499.156 173.756Z" fill="white" stroke="#263238" stroke-linecap="round" stroke-linejoin="round"/>
<path d="M508.55 173.288C508.55 173.288 510.589 172.432 509.991 174.243C509.84 174.755 509.575 175.227 509.217 175.624C508.859 176.02 508.416 176.331 507.922 176.534L508.55 173.288Z" fill="white" stroke="#263238" stroke-linecap="round" stroke-linejoin="round"/>
<path d="M503.142 173.756C503.158 173.539 503.129 173.32 503.056 173.114C502.983 172.909 502.868 172.721 502.719 172.562C502.569 172.403 502.388 172.277 502.188 172.192C501.987 172.107 501.77 172.065 501.552 172.068C501.098 172.08 500.665 172.259 500.334 172.57C500.003 172.881 499.799 173.304 499.76 173.756C499.744 173.974 499.773 174.193 499.845 174.398C499.918 174.604 500.033 174.793 500.182 174.952C500.332 175.111 500.513 175.238 500.713 175.324C500.914 175.409 501.131 175.452 501.349 175.45C501.804 175.438 502.238 175.258 502.569 174.946C502.9 174.633 503.104 174.21 503.142 173.756Z" fill="white" stroke="#263238" stroke-linecap="round" stroke-linejoin="round"/>
<path d="M507.244 173.756L509.086 173.276" stroke="#263238" stroke-linecap="round" stroke-linejoin="round"/>
<path d="M507.244 173.756C507.26 173.539 507.231 173.321 507.159 173.116C507.086 172.911 506.972 172.723 506.823 172.564C506.675 172.406 506.494 172.28 506.294 172.194C506.094 172.109 505.879 172.066 505.661 172.068C505.206 172.079 504.771 172.257 504.439 172.568C504.107 172.88 503.902 173.303 503.862 173.756C503.846 173.974 503.875 174.193 503.948 174.398C504.021 174.604 504.135 174.793 504.285 174.952C504.434 175.111 504.615 175.238 504.816 175.324C505.017 175.409 505.233 175.452 505.452 175.45C505.907 175.438 506.341 175.258 506.672 174.946C507.003 174.633 507.206 174.21 507.244 173.756Z" fill="white" stroke="#263238" stroke-linecap="round" stroke-linejoin="round"/>
<path d="M503.844 166.148C503.844 166.148 501.996 165.187 500.61 165.791C499.224 166.395 498.201 169.653 498.269 170.497C498.486 171.603 498.783 172.692 499.156 173.756L500.622 169.53L504.466 167.842L503.844 166.148Z" fill="#263238" stroke="#263238" stroke-linecap="round" stroke-linejoin="round"/>
<path d="M501.984 166.998C501.984 166.998 505.027 164.584 507.491 165.766C508.245 166.094 508.868 166.664 509.262 167.386C509.656 168.108 509.798 168.94 509.665 169.752C509.628 170.368 509.579 173.128 509.579 173.128L508.113 173.374L507.392 171.101C506.559 170.772 505.749 170.389 504.965 169.955C504.965 169.955 501.706 169.53 501.984 166.998Z" fill="#263238" stroke="#263238" stroke-linecap="round" stroke-linejoin="round"/>
<path d="M503.142 173.756L502.926 177.261H503.77" fill="white"/>
<path d="M503.142 173.756L502.926 177.261H503.77" stroke="#263238" stroke-linecap="round" stroke-linejoin="round"/>
<path d="M502.482 178.585H504.293" stroke="#263238" stroke-linecap="round" stroke-linejoin="round"/>
<path d="M502.667 185.472L501.996 196.456" stroke="#263238" stroke-linecap="round" stroke-linejoin="round"/>
<path d="M512.788 185.83C512.788 185.83 510.269 191.509 510.195 192.716C510.121 193.924 509.837 196.579 509.837 196.579" stroke="#263238" stroke-linecap="round" stroke-linejoin="round"/>
<path d="M492.83 186.433C492.83 186.433 495.337 190.782 495.663 191.361C495.99 191.94 495.59 196.554 495.59 196.554" stroke="#263238" stroke-linecap="round" stroke-linejoin="round"/>
<path d="M514.47 189.938L515.301 186.193L516.718 184.745L518.055 182.571H518.659L517.919 184.869L519.792 183.778L520.999 181.85L521.702 182.208L519.977 186.68L517.242 188.004L516.767 189.815L514.47 189.938Z" fill="white" stroke="#263238" stroke-linecap="round" stroke-linejoin="round"/>
<path d="M516.811 196.819L517.038 189.335L514.291 188.848L512.123 196.819H516.811Z" fill="white" stroke="#263238" stroke-linecap="round" stroke-linejoin="round"/>
<path d="M523.661 199.597H485.623L485.795 196.819H523.827L523.661 199.597Z" fill="white" stroke="#263238" stroke-linecap="round" stroke-linejoin="round"/>
<path d="M487.175 197.909H522.071" stroke="#263238" stroke-linecap="round" stroke-linejoin="round"/>
<path d="M540.175 172.302H527.375L527.917 163.487H540.718L540.175 172.302Z" fill="#409B95" stroke="#263238" stroke-linecap="round" stroke-linejoin="round"/>
<path d="M540.175 172.302H527.375L527.467 170.855H540.268L540.175 172.302Z" fill="white" stroke="#263238" stroke-linecap="round" stroke-linejoin="round"/>
<path d="M536.042 167.38L532.716 165.391L532.476 169.37L536.042 167.38Z" fill="white" stroke="#263238" stroke-linecap="round" stroke-linejoin="round"/>
<path d="M539.344 185.947H526.543L527.079 177.138H539.88L539.344 185.947Z" fill="#409B95" stroke="#263238" stroke-linecap="round" stroke-linejoin="round"/>
<path d="M539.344 185.947H526.543L526.636 184.499H539.43L539.344 185.947Z" fill="white" stroke="#263238" stroke-linecap="round" stroke-linejoin="round"/>
<path d="M535.21 181.031L531.884 179.041L531.644 183.021L535.21 181.031Z" fill="white" stroke="#263238" stroke-linecap="round" stroke-linejoin="round"/>
<path d="M538.506 199.597H525.712L526.248 190.782H539.048L538.506 199.597Z" fill="#409B95" stroke="#263238" stroke-linecap="round" stroke-linejoin="round"/>
<path d="M538.506 199.597H525.712L525.798 198.15H538.599L538.506 199.597Z" fill="white" stroke="#263238" stroke-linecap="round" stroke-linejoin="round"/>
<path d="M534.373 194.675L531.053 192.686L530.806 196.665L534.373 194.675Z" fill="white" stroke="#263238" stroke-linecap="round" stroke-linejoin="round"/>
<path d="M527.412 173.756H539.843" stroke="#263238" stroke-linecap="round" stroke-linejoin="round"/>
<path d="M527.32 175.21H539.757" stroke="#263238" stroke-linecap="round" stroke-linejoin="round"/>
<path d="M526.568 187.524H539.005" stroke="#263238" stroke-linecap="round" stroke-linejoin="round"/>
<path d="M526.482 188.971H538.919" stroke="#263238" stroke-linecap="round" stroke-linejoin="round"/>
<path d="M521.055 211.061H511.704C511.704 210.128 512.074 209.233 512.734 208.574C513.394 207.914 514.288 207.544 515.221 207.544H517.525C518.458 207.544 519.353 207.914 520.012 208.574C520.672 209.233 521.042 210.128 521.042 211.061H521.055Z" fill="white" stroke="#263238" stroke-linecap="round" stroke-linejoin="round"/>
<path d="M507.25 209.145H461.531V211.061H507.25V209.145Z" fill="#919191" stroke="#263238" stroke-linecap="round" stroke-linejoin="round"/>
<path d="M507.238 209.145H495.75V211.061H507.238V209.145Z" fill="white" stroke="#263238" stroke-linecap="round" stroke-linejoin="round"/>
<path d="M442.792 117.164V80.7646" stroke="#263238" stroke-linecap="round" stroke-linejoin="round"/>
<path d="M442.792 299.334V120.786" stroke="#263238" stroke-linecap="round" stroke-linejoin="round"/>
<path d="M525.915 223.837L531.459 298.576C531.488 298.849 531.62 299.1 531.827 299.279C532.035 299.459 532.303 299.552 532.577 299.54C532.851 299.528 533.111 299.412 533.302 299.216C533.494 299.02 533.604 298.758 533.609 298.484L532.777 223.837H525.915Z" fill="#919191" stroke="#263238" stroke-linecap="round" stroke-linejoin="round"/>
<path d="M530.098 223.837L533.024 299.438C533.197 299.346 533.341 299.209 533.441 299.04C533.54 298.872 533.592 298.679 533.591 298.484L532.778 223.837H530.098Z" fill="white" stroke="#263238" stroke-linecap="round" stroke-linejoin="round"/>
<path d="M560.762 223.837L566.306 298.576C566.335 298.849 566.467 299.1 566.674 299.279C566.882 299.459 567.15 299.552 567.425 299.54C567.699 299.528 567.958 299.412 568.149 299.216C568.341 299.02 568.451 298.758 568.456 298.484L567.624 223.837H560.762Z" fill="#919191" stroke="#263238" stroke-linecap="round" stroke-linejoin="round"/>
<path d="M564.618 223.837L568.031 299.328C568.159 299.228 568.262 299.099 568.333 298.953C568.403 298.807 568.439 298.646 568.438 298.484L567.624 223.837H564.618Z" fill="white" stroke="#263238" stroke-linecap="round" stroke-linejoin="round"/>
<path d="M468.904 224.65L463.36 298.57C463.342 298.841 463.221 299.095 463.022 299.28C462.823 299.466 462.561 299.568 462.289 299.568C462.146 299.57 462.004 299.544 461.872 299.492C461.739 299.439 461.619 299.361 461.517 299.261C461.415 299.161 461.333 299.042 461.278 298.911C461.222 298.78 461.193 298.639 461.192 298.496L462.011 224.453L468.904 224.65Z" fill="#263238" stroke="#263238" stroke-linecap="round" stroke-linejoin="round"/>
<path d="M434.088 224.65L428.544 298.57C428.525 298.841 428.404 299.095 428.205 299.28C428.006 299.466 427.744 299.568 427.472 299.568C427.33 299.567 427.19 299.538 427.059 299.483C426.928 299.427 426.809 299.347 426.71 299.245C426.61 299.144 426.531 299.024 426.478 298.892C426.425 298.76 426.399 298.619 426.4 298.477L427.22 224.434L434.088 224.65Z" fill="#263238" stroke="#263238" stroke-linecap="round" stroke-linejoin="round"/>
<path d="M569.663 212.798H425.131V224.44H569.663V212.798Z" fill="#919191" stroke="#263238" stroke-linecap="round" stroke-linejoin="round"/>
<path d="M569.663 212.798H528.244V224.44H569.663V212.798Z" fill="white" stroke="#263238" stroke-linecap="round" stroke-linejoin="round"/>
<path d="M569.663 214.646H425.131V217.855H569.663V214.646Z" fill="#263238" stroke="#263238" stroke-linecap="round" stroke-linejoin="round"/>
<path d="M571.746 211.129H423.049V215.022H571.746V211.129Z" fill="#919191" stroke="#263238" stroke-linecap="round" stroke-linejoin="round"/>
<path d="M571.739 211.129H530.905V215.022H571.739V211.129Z" fill="white" stroke="#263238" stroke-linecap="round" stroke-linejoin="round"/>
<path d="M527.899 138.952H507.829C506.784 138.952 505.781 139.367 505.042 140.107C504.302 140.846 503.887 141.849 503.887 142.894V150.286C503.886 150.804 503.988 151.317 504.185 151.796C504.383 152.275 504.674 152.71 505.04 153.076C505.406 153.442 505.841 153.733 506.32 153.93C506.798 154.128 507.311 154.23 507.829 154.229H518.338L514.402 165.224L521.942 154.229H527.899C528.417 154.23 528.93 154.128 529.408 153.93C529.887 153.733 530.322 153.442 530.688 153.076C531.054 152.71 531.345 152.275 531.543 151.796C531.74 151.317 531.842 150.804 531.841 150.286V142.894C531.841 141.849 531.426 140.846 530.686 140.107C529.947 139.367 528.944 138.952 527.899 138.952Z" fill="white" stroke="#263238" stroke-linecap="round" stroke-linejoin="round"/>
<path d="M512.486 148.272C513.279 148.272 513.922 147.629 513.922 146.837C513.922 146.044 513.279 145.401 512.486 145.401C511.694 145.401 511.051 146.044 511.051 146.837C511.051 147.629 511.694 148.272 512.486 148.272Z" fill="#263238"/>
<path d="M517.864 148.272C518.657 148.272 519.299 147.629 519.299 146.837C519.299 146.044 518.657 145.401 517.864 145.401C517.071 145.401 516.429 146.044 516.429 146.837C516.429 147.629 517.071 148.272 517.864 148.272Z" fill="#263238"/>
<path d="M524.671 146.837C524.671 146.553 524.587 146.275 524.429 146.039C524.271 145.803 524.046 145.619 523.783 145.51C523.521 145.402 523.232 145.374 522.953 145.43C522.675 145.486 522.419 145.623 522.218 145.824C522.018 146.026 521.882 146.282 521.827 146.561C521.772 146.839 521.802 147.128 521.911 147.39C522.021 147.653 522.206 147.876 522.443 148.033C522.679 148.19 522.958 148.273 523.242 148.272C523.43 148.272 523.616 148.235 523.79 148.163C523.964 148.091 524.122 147.985 524.254 147.851C524.387 147.718 524.492 147.56 524.564 147.386C524.635 147.212 524.672 147.025 524.671 146.837Z" fill="#263238"/>
<path d="M623.2 299.728H639.832" stroke="#263238" stroke-linecap="round" stroke-linejoin="round"/>
<path d="M360.784 299.728H614.576" stroke="#263238" stroke-linecap="round" stroke-linejoin="round"/>
<path d="M458.506 190.868C456.701 187.788 451.391 175.93 451.391 175.93C451.551 174.664 451.811 173.411 452.168 172.185C452.605 170.953 453.708 167.22 453.486 166.444C453.264 165.668 450.067 164.239 449.74 164.128C449.414 164.017 450.178 162.144 448.964 161.701C447.751 161.257 447.313 161.923 447.313 161.923L446.851 165.003L445.435 167.22C444.845 166.772 444.228 166.36 443.587 165.988C442.595 165.434 440.279 165.212 440.168 166.099C440.057 166.986 442.016 167.75 442.7 168.304C443.383 168.859 444.246 171.501 445.022 172.278C445.727 173.047 446.389 173.856 447.005 174.698L447.449 176.134C447.449 176.134 448.958 190.665 449.137 194.281C449.315 197.897 449.858 207.463 450.942 208.905C452.026 210.346 452.211 211.258 455.254 210.174C458.297 209.09 458.863 207.642 459.566 204.39C460.268 201.137 460.311 193.936 458.506 190.868Z" fill="white" stroke="#263238" stroke-linecap="round" stroke-linejoin="round"/>
<path d="M459.59 204.408C460.311 201.162 460.311 193.936 458.506 190.856C458.309 190.517 458.069 190.08 457.798 189.563C453.714 188.374 449.833 190.314 449.833 190.314L448.847 190.745C448.977 192.254 449.075 193.517 449.112 194.287C449.297 197.897 449.833 207.47 450.917 208.911C452.001 210.353 452.186 211.264 455.229 210.18C458.272 209.096 458.864 207.661 459.59 204.408Z" fill="#409B95" stroke="#263238" stroke-linecap="round" stroke-linejoin="round"/>
<path d="M445.336 142.032C445.781 143.666 446.029 145.347 446.076 147.04C446.076 149.449 445.336 150.933 446.451 151.672C447.566 152.412 448.49 152.418 448.299 153.902C448.226 154.722 447.901 155.499 447.369 156.126C447.369 156.126 447 163.727 446.63 164.473C446.26 165.218 441.437 164.288 440.322 164.097C439.207 163.906 436.059 165.397 434.014 161.319C431.969 157.241 433.645 151.118 437.353 147.964C439.904 145.842 442.569 143.862 445.336 142.032Z" fill="white" stroke="#263238" stroke-linecap="round" stroke-linejoin="round"/>
<path d="M446.075 147.009C446.075 147.009 445.071 146.258 444.542 147.576" stroke="#263238" stroke-linecap="round" stroke-linejoin="round"/>
<path d="M445.176 150.077C445.032 150.824 445.078 151.595 445.311 152.319" stroke="#263238" stroke-linecap="round" stroke-linejoin="round"/>
<path d="M447.024 158.787C446.859 158.84 446.686 158.858 446.514 158.839C446.342 158.82 446.176 158.765 446.026 158.678C445.877 158.591 445.748 158.473 445.647 158.333C445.546 158.193 445.476 158.032 445.441 157.863" stroke="#263238" stroke-linecap="round" stroke-linejoin="round"/>
<path d="M449.125 193.653C449.125 193.653 448.509 196.474 447.96 197.965C447.412 199.455 437.581 202.19 433.3 202.757C430.479 203.109 427.641 203.297 424.799 203.318L425.07 211.116C425.07 211.116 433.361 211.283 433.946 211.116C434.532 210.95 448.49 204.71 448.49 204.71L454.515 203.921C454.515 203.921 457.046 203.305 457.145 201.34C457.244 199.375 455.007 193.788 453.991 192.92C452.975 192.051 450.831 189.747 449.544 191.164C448.256 192.581 449.125 193.653 449.125 193.653Z" fill="white" stroke="#263238" stroke-linecap="round" stroke-linejoin="round"/>
<path d="M430.638 207.654C430.638 204.285 431.501 204.199 432.486 202.862C429.94 203.146 427.38 203.299 424.817 203.318L424.614 210.476C424.614 210.476 429.154 210.895 431.92 211.092C431.692 211.443 430.638 209.823 430.638 207.654Z" fill="#409B95" stroke="#263238" stroke-linecap="round" stroke-linejoin="round"/>
<path d="M457.41 222.808C454.13 219.122 449.961 216.338 445.299 214.72L434.482 219.334C433.642 217.271 432.527 215.332 431.168 213.568L429.148 211.104L430.447 204.039C430.447 204.039 438.234 198.704 439.238 196.394L439.275 196.32C440.839 198.741 447.628 209.219 448.903 210.235C450.344 211.394 454.669 211.535 456.541 209.804C458.414 208.073 459.282 206.921 458.851 204.328C458.851 204.328 455.968 198.125 454.379 195.384C452.79 192.643 449.334 182.842 447.603 179.811C446.371 177.643 445.86 176.115 444.985 175.093C444.378 174.047 443.661 173.068 442.848 172.173C441.117 170.325 436.355 169.863 435.345 169.432C434.334 169 434.193 168.853 428.427 167.128C422.661 165.403 416.169 164.387 411.555 167.99C411.555 167.99 405.358 175.345 402.931 187.456C400.504 199.566 400.331 211.825 400.048 213.987C399.765 216.149 397.307 226.677 396.586 232.732C395.865 238.787 402.185 244.867 406.079 246.752C409.972 248.637 426.696 248.914 436.503 246.752C446.309 244.59 461.882 234.783 461.882 234.783C461.882 234.783 462.455 228.722 457.41 222.808Z" fill="#409B95" stroke="#263238" stroke-linecap="round" stroke-linejoin="round"/>
<path d="M431.914 196.166L429.936 196.098" stroke="#263238" stroke-linecap="round" stroke-linejoin="round"/>
<path d="M431.168 193.018C433.938 193.952 436.635 195.088 439.238 196.419L434.162 196.246" stroke="#263238" stroke-linecap="round" stroke-linejoin="round"/>
<path d="M457.958 196.659C458.527 197.552 458.877 198.567 458.981 199.622C458.981 200.983 459.209 202.806 458.642 202.24C458.075 201.673 457.841 199.733 457.841 199.733L457.958 196.659Z" fill="white" stroke="#263238" stroke-linecap="round" stroke-linejoin="round"/>
<path d="M454.545 195.07C454.545 195.07 456.677 193.911 457.625 195.304C458.574 196.696 458.321 199.474 457.625 200.848C456.929 202.221 456.135 200.909 456.233 199.69C456.332 198.47 454.545 195.07 454.545 195.07Z" fill="white" stroke="#263238" stroke-linecap="round" stroke-linejoin="round"/>
<path d="M453.745 193.591C453.745 193.591 455.882 192.433 456.825 193.825C457.767 195.217 457.515 197.989 456.825 199.369C456.135 200.749 455.334 199.431 455.432 198.211C455.531 196.992 453.745 193.591 453.745 193.591Z" fill="white" stroke="#263238" stroke-linecap="round" stroke-linejoin="round"/>
<path d="M452.765 191.996C452.765 191.996 454.903 190.838 455.845 192.23C456.788 193.622 456.541 196.4 455.845 197.774C455.149 199.147 454.354 197.835 454.453 196.616C454.552 195.396 452.765 191.996 452.765 191.996Z" fill="white" stroke="#263238" stroke-linecap="round" stroke-linejoin="round"/>
<path d="M447.357 136.248C447.392 138.462 446.821 140.643 445.706 142.556C442.552 147.379 439.589 146.818 438.314 150.718C437.039 154.617 435.135 158.664 437.168 160.919C439.201 163.173 440.864 161.843 440.864 161.843C440.864 161.843 442.164 165.181 438.825 168.52C435.486 171.859 429.739 170.559 428.255 170.005C427.32 169.644 426.445 169.144 425.661 168.52C425.661 168.52 424.731 171.119 420.117 171.119C415.503 171.119 410.261 167.966 410.261 162.212C410.261 156.459 413.409 152.572 414.154 150.342C414.9 148.112 412.855 141.256 416.002 136.993C419.15 132.73 424.01 129.601 427.706 129.601C431.402 129.601 438.616 131.628 438.647 131.64C439.133 131.905 442.25 130.636 443.094 130.691C446.193 130.864 447.32 133.408 447.357 136.248Z" fill="#263238" stroke="#263238" stroke-linecap="round" stroke-linejoin="round"/>
<path d="M435.32 162.631C435.993 162.72 436.674 162.72 437.347 162.631" stroke="#919191" stroke-linecap="round" stroke-linejoin="round"/>
<path d="M444.683 139.482C444.391 141.133 443.782 142.712 442.891 144.132C440.008 148.66 436.731 150.292 432.807 154.604C430.287 157.395 430.762 160.179 432.807 161.639" stroke="#919191" stroke-linecap="round" stroke-linejoin="round"/>
<path d="M444.739 134.671C444.859 135.35 444.919 136.038 444.917 136.728" stroke="#919191" stroke-linecap="round" stroke-linejoin="round"/>
<path d="M440.864 138.989C440.864 138.989 440.248 145.364 437.575 149.067C434.901 152.769 429.567 154.611 429.758 158.528" stroke="#919191" stroke-linecap="round" stroke-linejoin="round"/>
<path d="M465.689 245.711C465.689 245.711 469.533 265.46 472.822 275.057C476.112 284.654 479.401 293.432 480.214 294.258C481.027 295.083 483.233 298.096 483.233 298.096C482.213 298.91 480.968 299.389 479.666 299.469C477.744 299.469 475.28 297.005 473.081 295.625C470.882 294.246 470.617 293.432 466.225 291.788C461.833 290.143 465.406 285.757 466.502 283.558C467.136 282.371 467.51 281.063 467.599 279.72C465.855 273.543 462.765 267.83 458.549 262.99C451.706 255.314 450.332 237.512 450.332 237.512L463.496 232.584L465.689 245.711Z" fill="white" stroke="#263238" stroke-linecap="round" stroke-linejoin="round"/>
<path d="M479.672 293.272L478.878 293.432C478.878 293.432 474.214 287.125 470.654 284.932C469.44 284.094 468.013 283.619 466.539 283.564C465.436 285.757 461.876 290.143 466.262 291.788C470.648 293.432 470.925 294.252 473.118 295.625C475.311 296.999 477.781 299.469 479.703 299.469C481.005 299.389 482.25 298.909 483.27 298.096C483.27 298.096 481.07 295.077 480.251 294.258C480.018 293.955 479.823 293.624 479.672 293.272Z" fill="#409B95" stroke="#263238" stroke-linecap="round" stroke-linejoin="round"/>
<path d="M477.461 298.687C475.292 297.19 473.333 293.864 469.804 291.788C466.594 289.903 464.944 289.829 464.26 289.971C464.427 290.41 464.697 290.804 465.046 291.12C465.395 291.436 465.814 291.665 466.268 291.788C470.66 293.432 470.931 294.252 473.124 295.625C474.51 296.512 476.038 297.88 477.461 298.687Z" fill="#409B95" stroke="#263238" stroke-linecap="round" stroke-linejoin="round"/>
<path d="M479.672 299.469C479.532 299.464 479.392 299.45 479.253 299.426C479.391 299.452 479.531 299.467 479.672 299.469Z" fill="#409B95" stroke="#263238" stroke-linecap="round" stroke-linejoin="round"/>
<path d="M441.246 215.952C441.246 215.952 454.428 211.283 455.66 214.363C456.892 217.443 462.535 228.931 460.477 233.65C458.42 238.368 443.956 220.098 441.899 219.703C439.841 219.309 441.006 217.332 441.246 215.952Z" fill="white" stroke="#263238" stroke-linecap="round" stroke-linejoin="round"/>
<path d="M454.164 221.97C454.164 221.97 469.151 220.738 472.028 223.412C474.904 226.085 465.048 258.111 459.708 268.17C451.336 283.903 453.868 288.024 453.868 288.024C453.868 288.024 454.484 290.488 458.593 294.393C462.701 298.299 463.933 298.909 462.492 299.525C461.05 300.141 454.897 299.525 454.281 299.112C453.665 298.699 449.149 295.009 445.041 293.777C440.932 292.545 441.548 291.72 443.396 288.024C445.244 284.328 445.041 287.408 447.092 281.045C449.551 273.203 451.493 265.209 452.907 257.113C453.997 250.516 455.66 243.272 455.192 236.563L454.164 221.97Z" fill="white" stroke="#263238" stroke-linecap="round" stroke-linejoin="round"/>
<path d="M465.141 231.999C463.571 228.212 460.871 225.003 457.41 222.808C450.856 218.625 445.299 214.72 445.299 214.72L434.482 219.334C434.482 219.334 437.119 223.806 423.567 226.067C413.132 227.804 403.553 225.284 398.385 222.247C397.664 225.826 396.912 229.806 396.537 232.719C395.816 238.775 402.161 244.83 406.054 246.709C409.947 248.588 441.314 252.475 449.759 247.048C465.141 237.21 465.141 231.999 465.141 231.999Z" fill="#263238" stroke="#263238" stroke-linecap="round" stroke-linejoin="round"/>
<path d="M433.256 222.728C431.809 223.917 428.988 225.192 423.567 226.073C413.132 227.81 403.553 225.291 398.385 222.254C398.2 223.172 398.015 224.102 397.83 225.056C401.372 227.188 408.814 230.798 417.204 229.769C427.214 228.543 431.661 225.808 433.256 222.728Z" fill="#409B95" stroke="#263238" stroke-linecap="round" stroke-linejoin="round"/>
<path d="M425.261 235.923C424.78 236.539 424.281 237.155 423.776 237.771" stroke="white" stroke-linecap="round" stroke-linejoin="round"/>
<path d="M432.807 224.231C430.911 227.717 428.796 231.079 426.474 234.296" stroke="white" stroke-linecap="round" stroke-linejoin="round"/>
<path d="M428.292 228.13C428.292 228.13 424.596 233.058 420.696 235.935" stroke="white" stroke-linecap="round" stroke-linejoin="round"/>
<path d="M458.593 294.381C454.484 290.488 453.868 288.024 453.868 288.024C453.73 287.896 453.621 287.741 453.548 287.568C453.27 287.858 452.433 288.406 450.381 287.617C448.601 286.934 446.913 285.769 445.133 284.987C444.708 285.745 444.295 286.219 443.396 288.024C441.548 291.72 440.932 292.545 445.041 293.777C449.149 295.009 453.665 298.705 454.281 299.112C454.897 299.518 461.057 300.141 462.492 299.525C463.927 298.909 462.701 298.28 458.593 294.381Z" fill="#409B95" stroke="#263238" stroke-linecap="round" stroke-linejoin="round"/>
<path d="M462.375 234.087L469.36 229.775" stroke="#263238" stroke-linecap="round" stroke-linejoin="round"/>
<path d="M378.925 195.045C378.925 195.045 401.175 192.261 415.392 196.277L417.555 250.368H384.192C384.192 250.368 386.342 221.311 378.925 195.045Z" fill="#919191" stroke="#263238" stroke-linecap="round" stroke-linejoin="round"/>
<path d="M415.392 196.277C401.175 192.261 378.925 195.045 378.925 195.045C381.306 203.799 382.888 212.751 383.65 221.792C396.074 227.995 407.453 236.101 417.376 245.816L415.392 196.277Z" fill="#757575" stroke="#263238" stroke-linecap="round" stroke-linejoin="round"/>
<path d="M457.348 300.96C457.097 300.961 456.851 300.884 456.644 300.741C456.437 300.598 456.278 300.395 456.19 300.159C451.262 286.878 450.03 252.401 449.956 250.941C449.945 250.614 450.064 250.296 450.287 250.057C450.51 249.818 450.818 249.677 451.145 249.666C451.472 249.654 451.79 249.773 452.029 249.996C452.268 250.219 452.409 250.528 452.42 250.855C452.42 251.212 453.702 286.392 458.5 299.297C458.614 299.603 458.601 299.942 458.465 300.239C458.328 300.536 458.08 300.766 457.773 300.88C457.638 300.934 457.494 300.961 457.348 300.96Z" fill="white" stroke="#263238" stroke-linecap="round" stroke-linejoin="round"/>
<path d="M430.521 300.96C430.271 300.96 430.026 300.883 429.82 300.74C429.615 300.596 429.457 300.394 429.369 300.159C424.441 286.878 423.209 252.401 423.129 250.941C423.118 250.614 423.237 250.296 423.46 250.057C423.683 249.818 423.992 249.677 424.318 249.666C424.645 249.654 424.963 249.773 425.202 249.996C425.441 250.219 425.582 250.528 425.593 250.855C425.593 251.212 426.875 286.392 431.679 299.297C431.793 299.603 431.78 299.942 431.644 300.239C431.508 300.536 431.259 300.766 430.953 300.88C430.815 300.934 430.669 300.961 430.521 300.96Z" fill="white" stroke="#263238" stroke-linecap="round" stroke-linejoin="round"/>
<path d="M457.016 250.343H383.607V247.879H454.564C455.217 247.879 455.844 248.139 456.306 248.601C456.768 249.063 457.028 249.69 457.028 250.343H457.016Z" fill="#919191" stroke="#263238" stroke-linecap="round" stroke-linejoin="round"/>
<path d="M457.009 249.746H383.607V252.191H457.009V249.746Z" fill="white" stroke="#263238" stroke-linecap="round" stroke-linejoin="round"/>
<path d="M414.844 300.96C414.659 300.964 414.475 300.926 414.306 300.849C414.137 300.772 413.988 300.658 413.87 300.515C413.751 300.372 413.667 300.205 413.622 300.025C413.578 299.845 413.574 299.657 413.612 299.475C420.579 266.47 414.228 197.065 414.142 196.369C414.127 196.207 414.144 196.044 414.192 195.889C414.24 195.734 414.318 195.59 414.422 195.465C414.526 195.34 414.653 195.236 414.797 195.161C414.941 195.085 415.098 195.038 415.26 195.023C415.587 194.993 415.912 195.094 416.164 195.304C416.417 195.513 416.576 195.815 416.606 196.141C416.674 196.844 423.074 266.612 416.033 299.98C415.976 300.255 415.827 300.501 415.611 300.679C415.394 300.857 415.124 300.956 414.844 300.96Z" fill="white" stroke="#263238" stroke-linecap="round" stroke-linejoin="round"/>
<path d="M376.652 300.061C376.537 300.062 376.423 300.045 376.313 300.011C376 299.922 375.735 299.713 375.576 299.429C375.416 299.145 375.376 298.81 375.463 298.496C391.479 241.639 377.884 195.858 377.749 195.402C377.671 195.096 377.714 194.771 377.869 194.495C378.025 194.22 378.28 194.014 378.582 193.922C378.885 193.829 379.211 193.856 379.494 193.998C379.777 194.139 379.994 194.384 380.102 194.682C380.243 195.144 394.073 241.578 377.835 299.161C377.763 299.419 377.608 299.647 377.394 299.809C377.181 299.972 376.92 300.06 376.652 300.061Z" fill="white" stroke="#263238" stroke-linecap="round" stroke-linejoin="round"/>
<path d="M601.874 198.488C601.874 198.488 594.303 194.281 593.743 203.817C593.182 213.352 591.784 275.328 591.784 275.328" stroke="#263238" stroke-width="2" stroke-linecap="round" stroke-linejoin="round"/>
<path d="M589.813 204.655C589.813 204.655 595.973 218.397 593.182 274.49" stroke="#263238" stroke-width="2" stroke-linecap="round" stroke-linejoin="round"/>
<path d="M595.88 200.41C595.88 200.41 592.979 202.258 591.334 200.139C589.689 198.02 592.449 194.127 590.016 192.464C587.583 190.801 583.375 193.339 583.375 193.339C583.375 193.339 586.609 194.287 586.505 196.055C586.4 197.823 584.842 198.488 584.657 197.718C584.472 196.948 582.901 193.055 580.277 194.675C579.519 195.122 578.859 195.718 578.338 196.428C577.817 197.137 577.446 197.945 577.246 198.803C577.246 198.803 583.363 198.15 583.733 200.447C584.102 202.745 581.226 200.047 578.7 199.899C576.174 199.751 573.871 200.121 574.037 201.648C574.093 203 574.013 204.354 573.797 205.689C575.179 204.541 576.927 203.925 578.725 203.952C581.503 204.119 581.398 205.887 578.872 205.739C576.347 205.591 574.179 207.993 574.179 207.993C574.179 207.993 576.482 211.929 579.408 213.876C582.334 215.823 583.388 215.108 583.72 213.623C584.053 212.139 583.277 208.277 585.045 208.381C586.813 208.486 582.119 215.046 584.373 215.435C586.628 215.823 588.445 215.17 589.036 213.685L589.652 212.201C589.652 212.201 588.864 208.351 589.209 206.854C589.554 205.357 589.967 206.897 590.367 208.702C590.767 210.507 591.02 214.819 591.79 214.609C592.56 214.4 595.03 211.258 595.609 210.02C596.188 208.782 592.357 205.018 592.4 204.26C592.443 203.503 595.4 204.944 595.862 205.733C596.197 206.331 596.5 206.948 596.767 207.581C596.767 207.581 598.615 206.422 598.566 202.874C598.517 199.326 595.88 200.41 595.88 200.41Z" fill="#409B95"/>
<path opacity="0.3" d="M595.88 200.41C595.88 200.41 592.979 202.258 591.334 200.139C589.689 198.02 592.449 194.127 590.016 192.464C587.583 190.801 583.375 193.339 583.375 193.339C583.375 193.339 586.609 194.287 586.505 196.055C586.4 197.823 584.842 198.488 584.657 197.718C584.472 196.948 582.901 193.055 580.277 194.675C579.519 195.122 578.859 195.718 578.338 196.428C577.817 197.137 577.446 197.945 577.246 198.803C577.246 198.803 583.363 198.15 583.733 200.447C584.102 202.745 581.226 200.047 578.7 199.899C576.174 199.751 573.871 200.121 574.037 201.648C574.093 203 574.013 204.354 573.797 205.689C575.179 204.541 576.927 203.925 578.725 203.952C581.503 204.119 581.398 205.887 578.872 205.739C576.347 205.591 574.179 207.993 574.179 207.993C574.179 207.993 576.482 211.929 579.408 213.876C582.334 215.823 583.388 215.108 583.72 213.623C584.053 212.139 583.277 208.277 585.045 208.381C586.813 208.486 582.119 215.046 584.373 215.435C586.628 215.823 588.445 215.17 589.036 213.685L589.652 212.201C589.652 212.201 588.864 208.351 589.209 206.854C589.554 205.357 589.967 206.897 590.367 208.702C590.767 210.507 591.02 214.819 591.79 214.609C592.56 214.4 595.03 211.258 595.609 210.02C596.188 208.782 592.357 205.018 592.4 204.26C592.443 203.503 595.4 204.944 595.862 205.733C596.197 206.331 596.5 206.948 596.767 207.581C596.767 207.581 598.615 206.422 598.566 202.874C598.517 199.326 595.88 200.41 595.88 200.41Z" fill="#263238"/>
<path d="M581.195 208.732C583.086 206.398 585.864 203.238 588.199 201.729" stroke="#263238" stroke-linecap="round" stroke-linejoin="round"/>
<path d="M579.008 211.572C579.008 211.572 579.489 210.901 580.277 209.891" stroke="#263238" stroke-linecap="round" stroke-linejoin="round"/>
<path d="M589.431 202.308C589.431 202.308 592.24 206.275 592.757 210.359" stroke="#263238" stroke-linecap="round" stroke-linejoin="round"/>
<path d="M586.24 204.655C586.24 204.655 587.028 204.193 586.733 209.244" stroke="#263238" stroke-linecap="round" stroke-linejoin="round"/>
<path d="M588.303 199.936C588.303 199.936 589.911 198.513 589.061 195.673" stroke="#263238" stroke-linecap="round" stroke-linejoin="round"/>
<path d="M586.135 202.369L584.99 200.275" stroke="#263238" stroke-linecap="round" stroke-linejoin="round"/>
<path d="M583.727 204.507C583.727 204.507 580.092 201.759 577.819 201.624" stroke="#263238" stroke-linecap="round" stroke-linejoin="round"/>
<path d="M606.204 192.926C606.204 192.926 606.087 197.09 602.835 197.293C599.582 197.497 597.574 192.076 594.248 193.382C590.921 194.688 590.601 200.626 590.601 200.626C590.601 200.626 593.755 198.033 595.455 199.338C597.155 200.644 596.761 202.665 595.843 202.345C594.925 202.024 589.985 200.922 589.813 204.655C589.744 205.719 589.891 206.786 590.246 207.792C590.6 208.797 591.155 209.721 591.876 210.507C591.876 210.507 595.394 203.934 597.956 205.129C600.519 206.324 595.843 207.371 593.971 209.798C592.098 212.225 590.891 214.782 592.548 215.662C593.939 216.524 595.24 217.525 596.429 218.65C596.429 218.65 595.985 215.213 598.042 212.545C600.1 209.878 601.794 211.184 599.927 213.611C598.061 216.038 598.985 219.851 598.985 219.851C598.985 219.851 604.492 220.227 608.434 218.619C612.377 217.011 612.401 215.484 611.132 214.122C609.863 212.761 605.478 210.925 606.783 209.194C608.089 207.463 611.465 216.667 613.393 214.671C615.321 212.675 615.9 210.414 614.816 208.806L613.732 207.205C613.732 207.205 609.346 205.357 608.077 204.002C606.808 202.646 608.638 203.275 610.714 204.1C612.79 204.926 617.28 207.617 617.6 206.7C617.921 205.782 616.449 201.156 615.611 199.751C614.773 198.347 608.379 199.597 607.652 199.037C606.925 198.476 610.381 196.499 611.484 196.573C612.31 196.641 613.133 196.754 613.948 196.911C613.948 196.911 614.046 194.275 610.461 191.903C606.876 189.532 606.204 192.926 606.204 192.926Z" fill="#409B95"/>
<path opacity="0.2" d="M606.204 192.926C606.204 192.926 606.087 197.09 602.835 197.293C599.582 197.497 597.574 192.076 594.248 193.382C590.921 194.688 590.601 200.626 590.601 200.626C590.601 200.626 593.755 198.033 595.455 199.338C597.155 200.644 596.761 202.665 595.843 202.345C594.925 202.024 589.985 200.922 589.813 204.655C589.744 205.719 589.891 206.786 590.246 207.792C590.6 208.797 591.155 209.721 591.876 210.507C591.876 210.507 595.394 203.934 597.956 205.129C600.519 206.324 595.843 207.371 593.971 209.798C592.098 212.225 590.891 214.782 592.548 215.662C593.939 216.524 595.24 217.525 596.429 218.65C596.429 218.65 595.985 215.213 598.042 212.545C600.1 209.878 601.794 211.184 599.927 213.611C598.061 216.038 598.985 219.851 598.985 219.851C598.985 219.851 604.492 220.227 608.434 218.619C612.377 217.011 612.401 215.484 611.132 214.122C609.863 212.761 605.478 210.925 606.783 209.194C608.089 207.463 611.465 216.667 613.393 214.671C615.321 212.675 615.9 210.414 614.816 208.806L613.732 207.205C613.732 207.205 609.346 205.357 608.077 204.002C606.808 202.646 608.638 203.275 610.714 204.1C612.79 204.926 617.28 207.617 617.6 206.7C617.921 205.782 616.449 201.156 615.611 199.751C614.773 198.347 608.379 199.597 607.652 199.037C606.925 198.476 610.381 196.499 611.484 196.573C612.31 196.641 613.133 196.754 613.948 196.911C613.948 196.911 614.046 194.275 610.461 191.903C606.876 189.532 606.204 192.926 606.204 192.926Z" fill="#263238"/>
<path d="M604.529 213.297C603.488 209.792 602.207 204.864 602.293 201.513" stroke="#263238" stroke-linecap="round" stroke-linejoin="round"/>
<path d="M605.878 217.43C605.878 217.43 605.533 216.482 605.059 215.01" stroke="#263238" stroke-linecap="round" stroke-linejoin="round"/>
<path d="M603.71 200.675C603.71 200.675 609.593 200.564 614.034 202.831" stroke="#263238" stroke-linecap="round" stroke-linejoin="round"/>
<path d="M603.895 205.48C603.895 205.48 603.968 204.377 608.823 208.116" stroke="#263238" stroke-linecap="round" stroke-linejoin="round"/>
<path d="M600.593 200.201C600.593 200.201 600.26 197.626 596.841 196.542" stroke="#263238" stroke-linecap="round" stroke-linejoin="round"/>
<path d="M601.523 204.014L598.646 203.731" stroke="#263238" stroke-linecap="round" stroke-linejoin="round"/>
<path d="M602.022 207.882C602.022 207.882 596.792 209.65 595.11 211.837" stroke="#263238" stroke-linecap="round" stroke-linejoin="round"/>
<path d="M571.308 220.646C571.308 220.646 587.854 231.58 587.577 273.93" stroke="#263238" stroke-width="2" stroke-linecap="round" stroke-linejoin="round"/>
<path d="M591.71 217.757C591.71 217.757 591.18 222.549 587.398 222.475C583.616 222.401 581.854 215.958 577.862 217.153C573.871 218.348 572.965 225.161 572.965 225.161C572.965 225.161 576.858 222.463 578.694 224.139C580.53 225.814 579.883 228.099 578.854 227.644C577.825 227.188 572.226 225.445 571.678 229.738C571.499 230.96 571.571 232.206 571.889 233.399C572.207 234.592 572.764 235.709 573.526 236.68C573.526 236.68 578.207 229.43 581.047 231.056C583.887 232.683 578.398 233.44 576.008 236.064C573.618 238.689 571.998 241.522 573.809 242.693C575.336 243.819 576.744 245.099 578.01 246.512C578.01 246.512 577.819 242.508 580.443 239.619C583.068 236.73 584.909 238.387 582.519 241.029C580.129 243.672 580.844 248.138 580.844 248.138C580.844 248.138 587.17 249.093 591.87 247.614C596.57 246.136 596.737 244.374 595.4 242.686C594.063 240.999 589.178 238.461 590.848 236.625C592.517 234.789 595.542 245.692 597.956 243.567C600.371 241.442 601.246 238.898 600.149 236.939L599.053 234.98C599.053 234.98 594.168 232.448 592.831 230.754C591.494 229.06 593.546 229.972 595.862 231.118C598.178 232.264 603.112 235.793 603.562 234.771C604.012 233.748 602.755 228.278 601.923 226.559C601.092 224.841 593.595 225.697 592.807 224.983C592.018 224.268 596.201 222.315 597.463 222.519C598.404 222.675 599.335 222.881 600.254 223.135C600.254 223.135 600.611 220.104 596.7 217.024C592.788 213.944 591.71 217.757 591.71 217.757Z" fill="#409B95"/>
<path opacity="0.3" d="M591.71 217.757C591.71 217.757 591.18 222.549 587.398 222.475C583.616 222.401 581.854 215.958 577.862 217.153C573.871 218.348 572.965 225.161 572.965 225.161C572.965 225.161 576.858 222.463 578.694 224.139C580.53 225.814 579.883 228.099 578.854 227.644C577.825 227.188 572.226 225.445 571.678 229.738C571.499 230.96 571.571 232.206 571.889 233.399C572.207 234.592 572.764 235.709 573.526 236.68C573.526 236.68 578.207 229.43 581.047 231.056C583.887 232.683 578.398 233.44 576.008 236.064C573.618 238.689 571.998 241.522 573.809 242.693C575.336 243.819 576.744 245.099 578.01 246.512C578.01 246.512 577.819 242.508 580.443 239.619C583.068 236.73 584.909 238.387 582.519 241.029C580.129 243.672 580.844 248.138 580.844 248.138C580.844 248.138 587.17 249.093 591.87 247.614C596.57 246.136 596.737 244.374 595.4 242.686C594.063 240.999 589.178 238.461 590.848 236.625C592.517 234.789 595.542 245.692 597.956 243.567C600.371 241.442 601.246 238.898 600.149 236.939L599.053 234.98C599.053 234.98 594.168 232.448 592.831 230.754C591.494 229.06 593.546 229.972 595.862 231.118C598.178 232.264 603.112 235.793 603.562 234.771C604.012 233.748 602.755 228.278 601.923 226.559C601.092 224.841 593.595 225.697 592.807 224.983C592.018 224.268 596.201 222.315 597.463 222.519C598.404 222.675 599.335 222.881 600.254 223.135C600.254 223.135 600.611 220.104 596.7 217.024C592.788 213.944 591.71 217.757 591.71 217.757Z" fill="#263238"/>
<path d="M587.854 241.103C586.967 236.988 585.975 231.167 586.382 227.293" stroke="#263238" stroke-linecap="round" stroke-linejoin="round"/>
<path d="M589.024 246C589.024 246 588.716 244.873 588.303 243.13" stroke="#263238" stroke-linecap="round" stroke-linejoin="round"/>
<path d="M588.088 226.461C588.088 226.461 594.864 226.892 599.792 229.923" stroke="#263238" stroke-linecap="round" stroke-linejoin="round"/>
<path d="M587.86 231.968C587.86 231.968 588.051 230.705 593.299 235.479" stroke="#263238" stroke-linecap="round" stroke-linejoin="round"/>
<path d="M584.546 225.623C584.546 225.623 584.404 222.617 580.567 221.04" stroke="#263238" stroke-linecap="round" stroke-linejoin="round"/>
<path d="M585.26 230.108L581.971 229.51" stroke="#263238" stroke-linecap="round" stroke-linejoin="round"/>
<path d="M585.476 234.617C585.476 234.617 579.273 236.169 577.123 238.528" stroke="#263238" stroke-linecap="round" stroke-linejoin="round"/>
<path d="M577.758 254.015C577.758 254.015 588.414 262.146 589.535 274.207L587.293 233.816" stroke="#263238" stroke-width="2" stroke-linecap="round" stroke-linejoin="round"/>
<path d="M603.556 248.126C589.536 245.6 589.536 274.207 589.536 274.207" stroke="#263238" stroke-width="2" stroke-linecap="round" stroke-linejoin="round"/>
<path d="M591.217 273.93C591.217 273.93 583.086 214.757 606.617 214.757" stroke="#263238" stroke-width="2" stroke-linecap="round" stroke-linejoin="round"/>
<path d="M598.215 246.426C596.299 244.27 592.227 244.27 589.837 249.777C587.447 255.284 589.597 254.329 589.597 254.329C589.597 254.329 594.143 252.887 597.02 251.933C599.897 250.978 603.722 248.582 603.962 250.017C604.202 251.452 602.046 252.887 599.41 253.368C596.773 253.848 589.837 255.764 590.552 257.224C591.266 258.684 592.948 262.971 592.948 262.971C594.993 261.234 597.152 259.635 599.41 258.185C602.527 256.269 604.443 256.984 602.767 259.14C601.092 261.296 596.299 263.686 597.26 266.563C598.221 269.439 603.962 273.024 603.962 273.024C603.962 273.024 604.683 267.043 606.358 265.127C608.034 263.212 608.034 265.368 607.553 268.719C607.313 270.146 607.153 271.585 607.073 273.031L613.775 275.427C614.871 273.758 616.071 272.159 617.366 270.64L618.598 269.408C618.598 269.408 613.332 264.862 613.091 262.016C612.851 259.171 616.683 262.016 617.878 262.497C619.073 262.977 620.988 266.328 620.988 266.328C620.988 266.328 622.19 260.821 622.43 258.906L622.67 256.99C622.67 256.99 617.637 255.074 615.722 255.074C613.806 255.074 612.851 256.509 612.851 254.6C612.851 252.69 614.767 251.483 616.923 251.723C618.873 252.049 620.795 252.529 622.67 253.158C622.67 253.158 624.105 251.963 623.625 248.372C623.144 244.781 621.949 244.781 619.079 245.736C616.208 246.69 614.286 248.853 612.13 248.853C609.974 248.853 611.176 246.216 612.611 245.502C614.046 244.787 617.637 243.345 618.358 243.105C619.079 242.865 614.527 239.514 612.13 239.034C609.734 238.553 606.636 240.266 606.864 242.625C607.313 247.621 600.131 248.6 598.215 246.426Z" fill="#409B95"/>
<path d="M613.627 271.078C613.701 271.797 613.75 272.517 613.774 273.24" stroke="#263238" stroke-linecap="round" stroke-linejoin="round"/>
<path d="M608.816 253.891C610.927 258.632 612.447 263.614 613.344 268.725" stroke="#263238" stroke-linecap="round" stroke-linejoin="round"/>
<path d="M607.954 251.97C606.771 249.419 605.878 247.861 605.878 247.861C607.185 247.245 608.27 246.243 608.989 244.99C609.549 243.855 610.37 242.87 611.385 242.114" stroke="#263238" stroke-linecap="round" stroke-linejoin="round"/>
<path d="M597.5 255.992C597.5 255.992 606.124 252.401 606.124 253.115" stroke="#263238" stroke-linecap="round" stroke-linejoin="round"/>
<path d="M610.88 251.452C610.88 251.452 614.711 249.536 618.062 249.536" stroke="#263238" stroke-linecap="round" stroke-linejoin="round"/>
<path d="M609.469 257.224C607.807 258.59 606.283 260.114 604.917 261.776C603.52 263.424 602.389 265.28 601.566 267.277" stroke="#263238" stroke-linecap="round" stroke-linejoin="round"/>
<path d="M612.112 258.16C612.112 258.16 617.145 256.719 619.775 259.115" stroke="#263238" stroke-linecap="round" stroke-linejoin="round"/>
<path d="M621.21 225.808C618.605 224.268 615.722 224.231 614.305 222.605C612.888 220.978 615.666 220.141 617.151 220.757C618.635 221.373 622.079 223.141 622.726 223.523C623.372 223.904 622.929 218.28 621.722 216.131C620.514 213.981 617.206 212.773 615.562 214.51C612.081 218.163 606.648 213.371 607.018 210.513C607.387 207.654 604.72 204.581 599.01 206.379C593.299 208.178 595.418 209.182 595.418 209.182C595.418 209.182 599.484 211.677 602.096 213.217C604.708 214.757 609.02 216.081 608.089 217.202C607.159 218.324 604.664 217.64 602.576 215.97C600.488 214.301 594.494 210.309 593.878 211.794C593.262 213.278 591.106 217.369 591.106 217.369C593.76 217.775 596.384 218.358 598.96 219.112C602.447 220.208 603.161 222.124 600.439 222.272C597.716 222.42 592.763 220.375 591.199 222.98C589.634 225.586 590.712 232.276 590.712 232.276C590.712 232.276 595.702 228.9 598.246 228.906C600.79 228.913 599.164 230.329 596.318 232.165C595.083 232.919 593.893 233.741 592.751 234.629L595.338 241.263C597.317 240.995 599.311 240.851 601.307 240.832L602.995 240.955C602.995 240.955 602.995 233.995 604.991 231.931C606.987 229.867 607.344 234.641 607.769 235.861C608.194 237.081 606.919 240.721 606.919 240.721C606.919 240.721 611.847 238.017 613.461 236.939L615.069 235.867C615.069 235.867 613.221 230.81 611.958 229.368C610.695 227.927 608.995 228.136 610.436 226.904C611.878 225.672 614.046 226.288 615.278 228.099C616.311 229.785 617.207 231.55 617.958 233.379C617.958 233.379 619.806 233.68 622.202 230.964C624.598 228.247 623.816 227.348 621.21 225.808ZM598.56 233.471C596.644 232.51 601.19 230.594 601.19 230.594C602.872 230.36 600.47 234.432 598.56 233.471ZM601.782 224.533C600.968 224.126 603.414 223.301 603.414 223.301C606.95 223.96 602.595 224.939 601.775 224.533H601.782Z" fill="#409B95"/>
<path d="M598.498 238.35C598.006 238.873 597.488 239.385 596.965 239.877" stroke="#263238" stroke-linecap="round" stroke-linejoin="round"/>
<path d="M608.323 223.449C606.123 228.146 603.353 232.555 600.075 236.576" stroke="#263238" stroke-linecap="round" stroke-linejoin="round"/>
<path d="M609.21 221.539C610.362 218.97 610.948 217.276 610.948 217.276C612.272 217.857 613.742 218.021 615.161 217.745C616.383 217.421 617.665 217.394 618.9 217.664" stroke="#263238" stroke-linecap="round" stroke-linejoin="round"/>
<path d="M607.129 220.911C607.671 220.436 599.312 216.285 599.312 216.285" stroke="#263238" stroke-linecap="round" stroke-linejoin="round"/>
<path d="M611.533 223.424C611.533 223.424 615.494 225.063 617.693 227.594" stroke="#263238" stroke-linecap="round" stroke-linejoin="round"/>
<path d="M606.254 226.11C604.134 225.75 601.984 225.598 599.835 225.654C597.673 225.681 595.528 226.045 593.478 226.732" stroke="#263238" stroke-linecap="round" stroke-linejoin="round"/>
<path d="M607.258 228.728C607.258 228.728 611.638 231.58 611.57 235.14" stroke="#263238" stroke-linecap="round" stroke-linejoin="round"/>
<path d="M584.004 258.98C581.909 257.748 579.587 257.717 578.46 256.405C577.332 255.093 579.55 254.433 580.745 254.926C581.94 255.419 584.712 256.848 585.236 257.156C585.759 257.464 585.396 252.93 584.423 251.224C583.449 249.518 580.788 248.526 579.464 249.918C576.661 252.863 572.287 249 572.589 246.703C572.891 244.405 570.741 241.929 566.127 243.376C561.514 244.824 563.238 245.631 563.238 245.631C563.238 245.631 566.509 247.639 568.61 248.877C570.71 250.115 574.185 251.187 573.433 252.086C572.682 252.986 570.68 252.444 568.998 251.095C567.316 249.746 562.493 246.536 562 247.731C561.507 248.926 559.77 252.216 559.77 252.216C561.905 252.545 564.017 253.014 566.09 253.62C568.893 254.501 569.466 256.041 567.273 256.158C565.08 256.275 561.113 254.631 559.881 256.731C558.649 258.832 559.487 264.216 559.487 264.216C559.487 264.216 563.503 261.493 565.548 261.499C567.594 261.505 566.288 262.645 564.002 264.123C563.009 264.73 562.05 265.392 561.132 266.107L563.208 271.441C564.8 271.227 566.405 271.114 568.012 271.102L569.374 271.195C569.374 271.195 569.374 265.595 570.982 263.932C572.589 262.269 572.873 266.113 573.211 267.098C573.55 268.084 572.528 271.01 572.528 271.01C572.528 271.01 576.507 268.829 577.794 267.967L579.088 267.098C579.088 267.098 577.597 263.033 576.587 261.869C575.577 260.704 574.197 260.883 575.355 259.873C576.513 258.862 578.256 259.392 579.248 260.828C580.08 262.185 580.803 263.606 581.41 265.078C581.41 265.078 582.895 265.318 584.823 263.138C586.751 260.957 586.104 260.224 584.004 258.98ZM565.77 265.14C564.23 264.37 567.889 262.83 567.889 262.83C569.238 262.645 567.31 265.922 565.77 265.146V265.14ZM568.376 257.957C567.717 257.624 569.688 256.971 569.688 256.971C572.528 257.52 569.023 258.283 568.376 257.957Z" fill="#409B95"/>
<path d="M565.733 269.076C565.333 269.495 564.92 269.907 564.501 270.308" stroke="#263238" stroke-linecap="round" stroke-linejoin="round"/>
<path d="M573.637 257.082C571.867 260.863 569.639 264.411 567.002 267.647" stroke="#263238" stroke-linecap="round" stroke-linejoin="round"/>
<path d="M574.351 255.542C575.275 253.479 575.749 252.117 575.749 252.117C576.814 252.583 577.996 252.715 579.137 252.493C580.12 252.233 581.151 252.212 582.143 252.431" stroke="#263238" stroke-linecap="round" stroke-linejoin="round"/>
<path d="M566.38 251.317C566.38 251.317 573.113 254.661 572.676 255.013" stroke="#263238" stroke-linecap="round" stroke-linejoin="round"/>
<path d="M576.218 257.064C576.218 257.064 579.402 258.382 581.146 260.421" stroke="#263238" stroke-linecap="round" stroke-linejoin="round"/>
<path d="M571.967 259.226C570.262 258.937 568.534 258.815 566.805 258.862C565.066 258.879 563.34 259.172 561.692 259.731" stroke="#263238" stroke-linecap="round" stroke-linejoin="round"/>
<path d="M572.78 261.333C572.78 261.333 576.304 263.63 576.236 266.489" stroke="#263238" stroke-linecap="round" stroke-linejoin="round"/>
<path d="M575.454 219.445C575.454 219.445 572.817 221.36 571.142 219.445C569.466 217.529 571.862 213.697 569.466 212.262C567.07 210.827 563.245 213.457 563.245 213.457C563.245 213.457 566.355 214.178 566.355 215.853C566.355 217.529 564.92 218.25 564.68 217.529C564.44 216.808 562.764 213.217 560.368 214.899C559.678 215.363 559.089 215.963 558.637 216.662C558.184 217.361 557.879 218.144 557.738 218.964C557.738 218.964 563.479 218.009 563.959 220.165C564.44 222.321 561.569 219.925 559.173 219.925C556.777 219.925 554.621 220.406 554.861 221.841C554.991 223.115 554.991 224.399 554.861 225.672C556.101 224.511 557.716 223.832 559.413 223.757C562.043 223.757 562.043 225.432 559.653 225.432C557.263 225.432 555.341 227.828 555.341 227.828C555.341 227.828 557.738 231.42 560.608 233.095C563.479 234.771 564.44 234.05 564.68 232.615C564.92 231.179 563.959 227.588 565.635 227.588C567.31 227.588 563.245 234.05 565.394 234.29C567.544 234.531 569.226 233.81 569.706 232.375L570.187 230.939C570.187 230.939 569.226 227.348 569.466 225.913C569.706 224.477 570.187 225.913 570.661 227.588C571.136 229.264 571.622 233.329 572.343 233.095C573.064 232.861 575.214 229.738 575.694 228.543C576.174 227.348 572.343 223.997 572.343 223.276C572.343 222.555 575.214 223.757 575.694 224.471C576.174 225.186 576.649 226.147 576.649 226.147C576.649 226.147 578.324 224.952 578.084 221.601C577.844 218.25 575.454 219.445 575.454 219.445Z" fill="#409B95"/>
<path d="M562.037 228.13C563.694 225.82 566.152 222.679 568.271 221.12" stroke="#263238" stroke-linecap="round" stroke-linejoin="round"/>
<path d="M560.128 230.939C560.128 230.939 560.553 230.274 561.236 229.276" stroke="#263238" stroke-linecap="round" stroke-linejoin="round"/>
<path d="M569.466 221.601C569.466 221.601 572.343 225.192 573.058 229.023" stroke="#263238" stroke-linecap="round" stroke-linejoin="round"/>
<path d="M566.596 223.997C566.596 223.997 567.31 223.516 567.31 228.309" stroke="#263238" stroke-linecap="round" stroke-linejoin="round"/>
<path d="M568.271 219.445C568.271 219.445 569.707 218.009 568.752 215.373" stroke="#263238" stroke-linecap="round" stroke-linejoin="round"/>
<path d="M566.355 221.841L565.16 219.925" stroke="#263238" stroke-linecap="round" stroke-linejoin="round"/>
<path d="M564.199 223.997C564.199 223.997 560.608 221.601 558.452 221.601" stroke="#263238" stroke-linecap="round" stroke-linejoin="round"/>
<path d="M599.632 273.086H581.121V299.728H599.632V273.086Z" fill="#263238" stroke="#263238" stroke-width="2" stroke-linecap="round" stroke-linejoin="round"/>
</svg>
