<svg width="893" height="536" viewBox="0 0 893 536" fill="none" xmlns="http://www.w3.org/2000/svg">
<mask id="mask0_8_4672" style="mask-type:alpha" maskUnits="userSpaceOnUse" x="0" y="0" width="893" height="536">
<rect width="893" height="536" fill="white"/>
</mask>
<g mask="url(#mask0_8_4672)">
<path d="M429.166 409.755C373.661 711.076 271.026 655.251 143.219 734.527C15.4132 813.803 -34.8004 818.227 -132.791 708.051C-230.782 597.875 -275.971 383.064 -176.323 202.862C-76.6753 22.6587 -94.5818 -121.644 -19.1356 -228.514C56.3106 -335.385 152.085 -337.652 227.556 -187.716C303.027 -37.7807 497.559 38.2112 429.166 409.755Z" fill="#409B95"/>
<path opacity="0.7" d="M429.166 409.755C373.661 711.076 271.026 655.251 143.219 734.527C15.4132 813.803 -34.8004 818.227 -132.791 708.051C-230.782 597.875 -275.971 383.064 -176.323 202.862C-76.6753 22.6587 -94.5818 -121.644 -19.1356 -228.514C56.3106 -335.385 152.085 -337.652 227.556 -187.716C303.027 -37.7807 497.559 38.2112 429.166 409.755Z" fill="white"/>
</g>
<path d="M874.243 251.906C869.841 230.376 862.113 209.36 852.924 190.04C837.081 156.708 811.125 129.03 777.92 112.6C696.44 72.28 637.64 89.08 605.72 121.84C573.8 154.6 583.04 210.88 548.6 235.24C514.16 259.6 489.8 270.52 488.12 315.04C486.44 359.56 508.28 393.16 543.56 404.08C578.84 415 631.76 450.28 737.6 430.12C843.44 409.96 869.48 353.68 876.2 313.36C879.56 293.074 878.401 272.259 874.243 251.906Z" fill="#409B95"/>
<path opacity="0.7" d="M874.243 251.906C869.841 230.376 862.113 209.36 852.924 190.04C837.081 156.708 811.125 129.03 777.92 112.6C696.44 72.28 637.64 89.08 605.72 121.84C573.8 154.6 583.04 210.88 548.6 235.24C514.16 259.6 489.8 270.52 488.12 315.04C486.44 359.56 508.28 393.16 543.56 404.08C578.84 415 631.76 450.28 737.6 430.12C843.44 409.96 869.48 353.68 876.2 313.36C879.56 293.074 878.401 272.259 874.243 251.906Z" fill="white"/>
<path d="M626.149 128.997H618.538V162.723H626.149V128.997Z" fill="#C9C9C9" stroke="#263238" stroke-linecap="round" stroke-linejoin="round"/>
<path d="M626.149 134.07H618.538V137.363H626.149V134.07Z" fill="white" stroke="#263238" stroke-linecap="round" stroke-linejoin="round"/>
<path d="M626.149 154.995H618.538V158.288H626.149V154.995Z" fill="white" stroke="#263238" stroke-linecap="round" stroke-linejoin="round"/>
<path d="M635.027 128.997H624.376V162.723H635.027V128.997Z" fill="#878787" stroke="#263238" stroke-linecap="round" stroke-linejoin="round"/>
<path d="M634.272 128.997H626.661V162.723H634.272V128.997Z" fill="#C9C9C9" stroke="#263238" stroke-linecap="round" stroke-linejoin="round"/>
<path d="M634.272 134.07H626.661V137.363H634.272V134.07Z" fill="white" stroke="#263238" stroke-linecap="round" stroke-linejoin="round"/>
<path d="M634.272 154.995H626.661V158.288H634.272V154.995Z" fill="white" stroke="#263238" stroke-linecap="round" stroke-linejoin="round"/>
<path d="M643.142 128.997H632.491V162.723H643.142V128.997Z" fill="#878787" stroke="#263238" stroke-linecap="round" stroke-linejoin="round"/>
<path d="M642.386 128.997H634.776V162.723H642.386V128.997Z" fill="#C9C9C9" stroke="#263238" stroke-linecap="round" stroke-linejoin="round"/>
<path d="M642.386 134.07H634.776V137.363H642.386V134.07Z" fill="white" stroke="#263238" stroke-linecap="round" stroke-linejoin="round"/>
<path d="M642.386 154.995H634.776V158.288H642.386V154.995Z" fill="white" stroke="#263238" stroke-linecap="round" stroke-linejoin="round"/>
<path d="M651.256 128.997H640.605V162.723H651.256V128.997Z" fill="#C9C9C9" stroke="#263238" stroke-linecap="round" stroke-linejoin="round"/>
<path d="M658.195 163.067H676.07L680.824 158.766H658.195V163.067Z" fill="white" stroke="#263238" stroke-linecap="round" stroke-linejoin="round"/>
<path d="M678.8 163.286L678.229 162.303L657.825 162.261L658.413 163.286H678.8Z" fill="white" stroke="#263238" stroke-linecap="round" stroke-linejoin="round"/>
<path d="M647.846 129.699L641.258 133.509L658.141 162.705L664.729 158.895L647.846 129.699Z" fill="#C9C9C9" stroke="#263238" stroke-linecap="round" stroke-linejoin="round"/>
<path d="M650.388 134.079L643.8 137.889L645.448 140.74L652.036 136.93L650.388 134.079Z" fill="white" stroke="#263238" stroke-linecap="round" stroke-linejoin="round"/>
<path d="M660.869 152.191L654.281 156.001L655.929 158.851L662.518 155.041L660.869 152.191Z" fill="white" stroke="#263238" stroke-linecap="round" stroke-linejoin="round"/>
<path d="M680.707 159.06L664.553 159.018L647.669 129.82L663.823 129.862L680.707 159.06Z" fill="#C9C9C9" stroke="#263238" stroke-linecap="round" stroke-linejoin="round"/>
<path d="M689.51 145.99C689.51 145.99 686.57 144.94 685.73 140.32C684.89 135.7 683.42 129.19 685.1 127.72C686.78 126.25 689.93 125.41 690.35 128.35C690.77 131.29 690.14 136.96 690.77 138.22C691.4 139.48 693.5 138.64 693.5 136.12C693.5 131.97 691.82 127.72 692.416 123.52C693.256 117.716 699.136 117.077 699.766 123.52C700.119 127.082 700.22 130.719 700.22 134.297C700.22 135.767 702.74 136.607 702.53 133.037C702.379 130.517 704.21 127.577 706.73 128.417C709.25 129.257 707.15 140.387 706.31 142.277C705.47 144.167 700.22 144.52 700.22 144.52V149.35L693.92 149.56L693.71 144.73C692.427 145.471 690.989 145.903 689.51 145.99Z" fill="#409B95" stroke="#263238" stroke-linecap="round" stroke-linejoin="round"/>
<path d="M695.18 136.784C695.255 137.834 695.305 138.464 695.305 138.464" stroke="#263238" stroke-linecap="round" stroke-linejoin="round"/>
<path d="M695.6 120.496C695.6 120.496 694.222 121.454 694.323 124.326C694.39 126.074 694.726 130.912 694.987 134.448" stroke="#263238" stroke-linecap="round" stroke-linejoin="round"/>
<path d="M697.969 130.4L698.187 137.43" stroke="#263238" stroke-linecap="round" stroke-linejoin="round"/>
<path d="M701.043 142C700.557 142.075 700.066 142.117 699.573 142.125" stroke="#263238" stroke-linecap="round" stroke-linejoin="round"/>
<path d="M705.428 130.19C704.943 131.109 704.686 132.132 704.68 133.172C704.68 134.852 704.789 139.564 703.723 140.841C703.462 141.127 703.145 141.356 702.79 141.513" stroke="#263238" stroke-linecap="round" stroke-linejoin="round"/>
<path d="M687.2 139.64C687.452 140.903 688.058 142.068 688.947 143C689.473 143.42 690.122 143.658 690.795 143.676C691.468 143.694 692.129 143.492 692.677 143.1" stroke="#263238" stroke-linecap="round" stroke-linejoin="round"/>
<path d="M686.998 128.274C686.998 128.274 684.873 128.274 685.612 131.996C685.931 133.566 686.225 135.498 686.603 137.321" stroke="#263238" stroke-linecap="round" stroke-linejoin="round"/>
<path d="M694.987 142.437L695.415 147.015" stroke="#263238" stroke-linecap="round" stroke-linejoin="round"/>
<path d="M705.89 147.46L705.125 153.726L704.605 157.994L704 162.958H688.888L688.284 157.994L687.763 153.726L686.998 147.46H705.89Z" fill="white" stroke="#263238" stroke-linecap="round" stroke-linejoin="round"/>
<path d="M705.125 153.726L704.605 157.994H688.284L687.763 153.726H705.125Z" fill="#409B95" stroke="#263238" stroke-linecap="round" stroke-linejoin="round"/>
<path d="M714.189 162.958H617.194V169.384H714.189V162.958Z" fill="white" stroke="#263238" stroke-linecap="round" stroke-linejoin="round"/>
<path d="M714.189 162.958H691.828V169.384H714.189V162.958Z" fill="white" stroke="#263238" stroke-linecap="round" stroke-linejoin="round"/>
<path d="M689.653 169.409C700.044 173.24 698.17 180.48 698.17 180.48H708.007V169.409H689.653Z" fill="#919191" stroke="#263238" stroke-linecap="round" stroke-linejoin="round"/>
<path d="M692.971 169.409C703.353 173.24 701.48 180.48 701.48 180.48H711.325V169.409H692.971Z" fill="white" stroke="#263238" stroke-linecap="round" stroke-linejoin="round"/>
<path d="M623.083 169.409C633.474 173.24 631.6 180.48 631.6 180.48H641.437V169.409H623.083Z" fill="#919191" stroke="#263238" stroke-linecap="round" stroke-linejoin="round"/>
<path d="M626.401 169.409C636.783 173.24 634.91 180.48 634.91 180.48H644.755V169.409H626.401Z" fill="white" stroke="#263238" stroke-linecap="round" stroke-linejoin="round"/>
<path d="M849.354 130.198H762.363V250.956H849.354V130.198Z" fill="#919191" stroke="#263238" stroke-linecap="round" stroke-linejoin="round"/>
<path d="M845.582 135.44H766.143V245.715H845.582V135.44Z" fill="#409B95"/>
<path opacity="0.5" d="M845.582 135.44H766.143V245.715H845.582V135.44Z" fill="white"/>
<path d="M783.607 237.34C781.477 240.589 778.786 243.433 775.66 245.74H845.582V135.44H832.696L831.016 135.969C818.416 139.942 805.396 151.442 798.013 172.341" stroke="#263238" stroke-linecap="round" stroke-linejoin="round"/>
<path d="M796.786 176.003C793.853 185.97 792.232 196.277 791.965 206.663C791.503 219.129 788.849 228.092 785.304 234.534" stroke="#263238" stroke-linecap="round" stroke-linejoin="round"/>
<path d="M837.812 163.428C826.262 170.148 812.814 181.438 807.79 198.75C805.094 207.99 807.622 216.323 812.62 223.455" stroke="#263238" stroke-linecap="round" stroke-linejoin="round"/>
<path d="M815.325 226.932C822.255 235.047 832.125 241.431 840.114 245.723H845.582V159.354C844.02 160.085 842.356 160.908 840.626 161.874" stroke="#263238" stroke-linecap="round" stroke-linejoin="round"/>
<path d="M779.348 164.193C785.43 151.794 786.068 141.958 785.371 135.44H766.16V185.89C768.999 181.85 772.477 176.448 776.677 169.208C776.937 168.762 777.181 168.368 777.425 167.897" stroke="#263238" stroke-linecap="round" stroke-linejoin="round"/>
<path d="M786.875 211.947C785.942 218.054 783.137 222.489 779.827 222.489C775.753 222.489 772.443 215.769 772.443 207.453C772.443 199.137 775.753 192.417 779.827 192.417C783.901 192.417 787.211 199.137 787.211 207.453" stroke="#263238" stroke-linecap="round" stroke-linejoin="round"/>
<path d="M790.377 176.591C790.377 179.792 788.966 182.396 787.21 182.396C785.455 182.396 784.052 179.792 784.052 176.591C784.052 173.391 785.463 170.787 787.21 170.787C788.958 170.787 790.377 173.382 790.377 176.591Z" stroke="#263238" stroke-linecap="round" stroke-linejoin="round"/>
<path d="M830.68 201.111C833.73 202.564 835.72 205.101 835.72 207.982C835.72 212.493 830.764 216.155 824.641 216.155C818.517 216.155 813.57 212.493 813.57 207.982C813.57 203.471 818.526 199.8 824.641 199.8C825.617 199.8 826.59 199.895 827.547 200.086" stroke="#263238" stroke-linecap="round" stroke-linejoin="round"/>
<path d="M829.311 207.982C829.311 209.872 827.236 211.409 824.666 211.409C822.096 211.409 820.021 209.872 820.021 207.982C820.021 206.092 822.104 204.546 824.666 204.546C827.228 204.546 829.311 206.084 829.311 207.982Z" stroke="#263238" stroke-linecap="round" stroke-linejoin="round"/>
<path d="M836.804 187.142C836.804 189.762 834.209 191.888 831 191.888C827.791 191.888 825.195 189.762 825.195 187.142C825.195 184.521 827.791 182.396 831 182.396C834.209 182.396 836.804 184.521 836.804 187.142Z" stroke="#263238" stroke-linecap="round" stroke-linejoin="round"/>
<path d="M794.863 160.766C797.048 160.766 798.819 156.396 798.819 151.005C798.819 145.614 797.048 141.244 794.863 141.244C792.678 141.244 790.906 145.614 790.906 151.005C790.906 156.396 792.678 160.766 794.863 160.766Z" stroke="#263238" stroke-linecap="round" stroke-linejoin="round"/>
<path d="M805.682 234.887C805.682 235.984 805.357 237.056 804.748 237.967C804.139 238.879 803.273 239.59 802.26 240.009C801.247 240.429 800.132 240.539 799.056 240.325C797.981 240.111 796.993 239.583 796.218 238.807C795.442 238.032 794.914 237.044 794.701 235.969C794.487 234.893 794.596 233.779 795.016 232.766C795.436 231.753 796.146 230.887 797.058 230.278C797.97 229.668 799.042 229.343 800.138 229.343C801.608 229.343 803.019 229.927 804.058 230.967C805.098 232.007 805.682 233.417 805.682 234.887Z" stroke="#263238" stroke-linecap="round" stroke-linejoin="round"/>
<path d="M831.529 152.584C831.531 153.264 831.33 153.93 830.953 154.496C830.577 155.062 830.04 155.504 829.412 155.765C828.784 156.026 828.092 156.095 827.425 155.962C826.758 155.83 826.145 155.503 825.664 155.022C825.183 154.541 824.856 153.928 824.723 153.261C824.591 152.593 824.66 151.902 824.921 151.274C825.182 150.646 825.624 150.109 826.19 149.732C826.756 149.355 827.421 149.155 828.102 149.157C829.01 149.159 829.88 149.521 830.523 150.163C831.165 150.805 831.527 151.676 831.529 152.584Z" stroke="#263238" stroke-linecap="round" stroke-linejoin="round"/>
<path d="M809.899 176.852C809.901 177.217 809.794 177.576 809.592 177.881C809.389 178.186 809.101 178.424 808.764 178.565C808.426 178.706 808.055 178.744 807.696 178.673C807.336 178.603 807.006 178.428 806.747 178.17C806.488 177.912 806.311 177.582 806.239 177.224C806.167 176.865 806.203 176.493 806.343 176.155C806.482 175.817 806.719 175.527 807.023 175.324C807.327 175.121 807.685 175.012 808.051 175.012C808.293 175.011 808.533 175.058 808.757 175.15C808.982 175.242 809.185 175.377 809.357 175.548C809.529 175.719 809.665 175.922 809.758 176.146C809.851 176.369 809.899 176.609 809.899 176.852Z" stroke="#263238" stroke-linecap="round" stroke-linejoin="round"/>
<path d="M845.582 135.44H766.143V245.715H845.582V135.44Z" stroke="#263238" stroke-linecap="round" stroke-linejoin="round"/>
<path d="M715.751 292.688H694.172V300.81H715.751V292.688Z" fill="#263238" stroke="#263238" stroke-linecap="round" stroke-linejoin="round"/>
<path d="M744.706 293.914H658.816L662.882 227.336H748.78L744.706 293.914Z" fill="#919191" stroke="#263238" stroke-linecap="round" stroke-linejoin="round"/>
<path d="M742.245 293.914H656.355L660.421 227.336H746.311L742.245 293.914Z" fill="#263238" stroke="#263238" stroke-linecap="round" stroke-linejoin="round"/>
<path d="M737.701 290.21H661.353L664.965 231.032H741.313L737.701 290.21Z" fill="white" stroke="#263238" stroke-linecap="round" stroke-linejoin="round"/>
<path d="M715.491 281.39H663.63L666.41 235.786H718.28L715.491 281.39Z" fill="#919191" stroke="#263238" stroke-linecap="round" stroke-linejoin="round"/>
<path d="M684.092 261.801C684.092 261.801 673.29 266.076 673.222 267.227C673.155 268.378 671.038 281.39 671.038 281.39H703.16L700.455 266.404L688.569 261.465L684.092 261.801Z" fill="white" stroke="#263238" stroke-linecap="round" stroke-linejoin="round"/>
<path d="M684.411 259.163C683.598 259.377 682.843 259.771 682.202 260.314C681.362 261.154 680.337 263.934 680.337 263.934L680.295 267.227L684.554 264.926L688.88 264.64L692.929 268.428L693.45 262.666C693.45 262.666 692.828 259.373 691.518 259.205C690.207 259.037 684.411 259.163 684.411 259.163Z" fill="white" stroke="#263238" stroke-linecap="round" stroke-linejoin="round"/>
<path d="M684.277 256.038L684.092 261.801L686.637 265.917L690.846 261.633L691.501 256.366L684.277 256.038Z" fill="white" stroke="#263238" stroke-linecap="round" stroke-linejoin="round"/>
<path d="M694.659 249.302C694.357 254.132 691.148 259.986 687.628 259.986C684.109 259.986 681.614 254.106 681.908 249.302C682.202 244.497 685.268 240.557 688.813 240.557C692.358 240.557 694.953 244.48 694.659 249.302Z" fill="white" stroke="#263238" stroke-linecap="round" stroke-linejoin="round"/>
<path d="M681.849 249.94C681.849 249.94 680.715 246.983 680.245 249.285C679.774 251.586 682.093 254.056 682.093 254.056L681.849 249.94Z" fill="white" stroke="#263238" stroke-linecap="round" stroke-linejoin="round"/>
<path d="M694.659 249.302C694.659 249.302 697.44 248.134 696.625 250.604C696.418 251.302 696.057 251.946 695.569 252.487C695.08 253.027 694.477 253.452 693.802 253.728L694.659 249.302Z" fill="white" stroke="#263238" stroke-linecap="round" stroke-linejoin="round"/>
<path d="M687.284 249.94C687.306 249.643 687.266 249.345 687.167 249.065C687.068 248.785 686.911 248.528 686.707 248.312C686.504 248.095 686.257 247.924 685.983 247.808C685.709 247.692 685.414 247.634 685.117 247.638C684.498 247.655 683.906 247.898 683.456 248.323C683.005 248.747 682.726 249.323 682.672 249.94C682.65 250.237 682.69 250.535 682.789 250.816C682.888 251.097 683.045 251.354 683.249 251.571C683.452 251.788 683.699 251.961 683.973 252.078C684.247 252.194 684.542 252.253 684.84 252.25C685.46 252.233 686.053 251.989 686.504 251.562C686.955 251.136 687.233 250.558 687.284 249.94Z" fill="white" stroke="#263238" stroke-linecap="round" stroke-linejoin="round"/>
<path d="M692.878 249.94L695.39 249.285" stroke="#263238" stroke-linecap="round" stroke-linejoin="round"/>
<path d="M692.878 249.94C692.9 249.644 692.861 249.347 692.762 249.067C692.663 248.787 692.508 248.531 692.305 248.315C692.102 248.098 691.856 247.927 691.583 247.81C691.31 247.694 691.016 247.635 690.719 247.638C690.099 247.653 689.506 247.895 689.053 248.32C688.6 248.745 688.32 249.322 688.267 249.94C688.245 250.237 688.284 250.535 688.384 250.816C688.483 251.097 688.639 251.354 688.843 251.571C689.047 251.788 689.293 251.961 689.567 252.078C689.841 252.194 690.136 252.253 690.434 252.25C691.054 252.233 691.647 251.989 692.098 251.562C692.549 251.136 692.827 250.558 692.878 249.94Z" fill="white" stroke="#263238" stroke-linecap="round" stroke-linejoin="round"/>
<path d="M688.242 239.566C688.242 239.566 685.722 238.256 683.832 239.079C681.942 239.902 680.547 244.346 680.64 245.496C680.936 247.005 681.34 248.49 681.849 249.94L683.848 244.178L689.09 241.876L688.242 239.566Z" fill="#263238" stroke="#263238" stroke-linecap="round" stroke-linejoin="round"/>
<path d="M685.705 240.725C685.705 240.725 689.854 237.432 693.214 239.045C694.243 239.492 695.093 240.269 695.63 241.254C696.167 242.238 696.36 243.373 696.18 244.48C696.129 245.32 696.062 249.083 696.062 249.083L694.063 249.419L693.08 246.32C691.944 245.87 690.839 245.349 689.77 244.757C689.77 244.757 685.327 244.178 685.705 240.725Z" fill="#263238" stroke="#263238" stroke-linecap="round" stroke-linejoin="round"/>
<path d="M687.284 249.94L686.99 254.72H688.141" fill="white"/>
<path d="M687.284 249.94L686.99 254.72H688.141" stroke="#263238" stroke-linecap="round" stroke-linejoin="round"/>
<path d="M686.385 256.526H688.855" stroke="#263238" stroke-linecap="round" stroke-linejoin="round"/>
<path d="M686.637 265.917L685.722 280.894" stroke="#263238" stroke-linecap="round" stroke-linejoin="round"/>
<path d="M700.438 266.404C700.438 266.404 697.003 274.149 696.902 275.795C696.801 277.442 696.415 281.062 696.415 281.062" stroke="#263238" stroke-linecap="round" stroke-linejoin="round"/>
<path d="M673.222 267.227C673.222 267.227 676.641 273.158 677.086 273.947C677.532 274.737 676.986 281.028 676.986 281.028" stroke="#263238" stroke-linecap="round" stroke-linejoin="round"/>
<path d="M702.732 272.007L703.866 266.9L705.798 264.926L707.62 261.96H708.444L707.436 265.094L709.989 263.607L711.636 260.978L712.593 261.465L710.241 267.563L706.512 269.369L705.865 271.839L702.732 272.007Z" fill="white" stroke="#263238" stroke-linecap="round" stroke-linejoin="round"/>
<path d="M705.924 281.39L706.234 271.184L702.488 270.52L699.531 281.39H705.924Z" fill="white" stroke="#263238" stroke-linecap="round" stroke-linejoin="round"/>
<path d="M715.264 285.178H663.394L663.629 281.39H715.491L715.264 285.178Z" fill="white" stroke="#263238" stroke-linecap="round" stroke-linejoin="round"/>
<path d="M665.511 282.876H713.097" stroke="#263238" stroke-linecap="round" stroke-linejoin="round"/>
<path d="M737.785 247.958H720.33L721.069 235.937H738.524L737.785 247.958Z" fill="#409B95" stroke="#263238" stroke-linecap="round" stroke-linejoin="round"/>
<path d="M737.785 247.958H720.33L720.456 245.984H737.911L737.785 247.958Z" fill="white" stroke="#263238" stroke-linecap="round" stroke-linejoin="round"/>
<path d="M732.148 241.246L727.612 238.533L727.285 243.959L732.148 241.246Z" fill="white" stroke="#263238" stroke-linecap="round" stroke-linejoin="round"/>
<path d="M736.651 266.564H719.196L719.926 254.552H737.382L736.651 266.564Z" fill="#409B95" stroke="#263238" stroke-linecap="round" stroke-linejoin="round"/>
<path d="M736.651 266.564H719.196L719.322 264.59H736.768L736.651 266.564Z" fill="white" stroke="#263238" stroke-linecap="round" stroke-linejoin="round"/>
<path d="M731.014 259.86L726.478 257.147L726.151 262.574L731.014 259.86Z" fill="white" stroke="#263238" stroke-linecap="round" stroke-linejoin="round"/>
<path d="M735.508 285.178H718.062L718.792 273.158H736.248L735.508 285.178Z" fill="#409B95" stroke="#263238" stroke-linecap="round" stroke-linejoin="round"/>
<path d="M735.508 285.178H718.062L718.179 283.204H735.634L735.508 285.178Z" fill="white" stroke="#263238" stroke-linecap="round" stroke-linejoin="round"/>
<path d="M729.872 278.466L725.344 275.753L725.008 281.18L729.872 278.466Z" fill="white" stroke="#263238" stroke-linecap="round" stroke-linejoin="round"/>
<path d="M720.38 249.94H737.331" stroke="#263238" stroke-linecap="round" stroke-linejoin="round"/>
<path d="M720.254 251.922H737.214" stroke="#263238" stroke-linecap="round" stroke-linejoin="round"/>
<path d="M719.229 268.714H736.189" stroke="#263238" stroke-linecap="round" stroke-linejoin="round"/>
<path d="M719.112 270.688H736.071" stroke="#263238" stroke-linecap="round" stroke-linejoin="round"/>
<path d="M711.711 300.81H698.96C698.96 299.538 699.465 298.318 700.365 297.419C701.264 296.519 702.484 296.014 703.756 296.014H706.898C708.17 296.014 709.39 296.519 710.29 297.419C711.189 298.318 711.694 299.538 711.694 300.81H711.711Z" fill="white" stroke="#263238" stroke-linecap="round" stroke-linejoin="round"/>
<path d="M692.887 298.198H630.542V300.81H692.887V298.198Z" fill="#919191" stroke="#263238" stroke-linecap="round" stroke-linejoin="round"/>
<path d="M692.87 298.198H677.204V300.81H692.87V298.198Z" fill="white" stroke="#263238" stroke-linecap="round" stroke-linejoin="round"/>
<path d="M604.989 172.769V123.134" stroke="#263238" stroke-linecap="round" stroke-linejoin="round"/>
<path d="M604.989 421.182V177.708" stroke="#263238" stroke-linecap="round" stroke-linejoin="round"/>
<path d="M718.339 318.232L725.899 420.149C725.938 420.521 726.118 420.864 726.401 421.108C726.684 421.353 727.05 421.48 727.424 421.464C727.798 421.447 728.151 421.29 728.412 421.022C728.674 420.754 728.823 420.397 728.83 420.023L727.696 318.232H718.339Z" fill="#919191" stroke="#263238" stroke-linecap="round" stroke-linejoin="round"/>
<path d="M724.042 318.232L728.032 421.325C728.268 421.199 728.464 421.012 728.6 420.782C728.737 420.553 728.807 420.29 728.805 420.023L727.696 318.232H724.042Z" fill="white" stroke="#263238" stroke-linecap="round" stroke-linejoin="round"/>
<path d="M765.858 318.232L773.418 420.149C773.457 420.521 773.637 420.864 773.92 421.108C774.203 421.353 774.569 421.48 774.943 421.464C775.316 421.447 775.67 421.29 775.931 421.022C776.193 420.754 776.342 420.397 776.349 420.023L775.215 318.232H765.858Z" fill="#919191" stroke="#263238" stroke-linecap="round" stroke-linejoin="round"/>
<path d="M771.116 318.232L775.77 421.174C775.944 421.038 776.085 420.863 776.181 420.663C776.277 420.464 776.326 420.245 776.324 420.023L775.215 318.232H771.116Z" fill="white" stroke="#263238" stroke-linecap="round" stroke-linejoin="round"/>
<path d="M640.597 319.341L633.037 420.141C633.011 420.511 632.846 420.857 632.574 421.11C632.303 421.362 631.946 421.503 631.575 421.502C631.381 421.505 631.187 421.47 631.007 421.398C630.826 421.326 630.661 421.219 630.522 421.083C630.383 420.947 630.272 420.785 630.197 420.606C630.121 420.427 630.081 420.235 630.08 420.04L631.197 319.072L640.597 319.341Z" fill="#263238" stroke="#263238" stroke-linecap="round" stroke-linejoin="round"/>
<path d="M593.12 319.341L585.56 420.141C585.534 420.511 585.369 420.857 585.098 421.11C584.826 421.362 584.469 421.502 584.098 421.502C583.905 421.501 583.713 421.461 583.535 421.386C583.356 421.31 583.194 421.2 583.058 421.062C582.923 420.924 582.815 420.76 582.743 420.581C582.671 420.401 582.635 420.209 582.637 420.015L583.754 319.047L593.12 319.341Z" fill="#263238" stroke="#263238" stroke-linecap="round" stroke-linejoin="round"/>
<path d="M777.995 303.179H580.906V319.055H777.995V303.179Z" fill="#919191" stroke="#263238" stroke-linecap="round" stroke-linejoin="round"/>
<path d="M777.996 303.179H721.514V319.055H777.996V303.179Z" fill="white" stroke="#263238" stroke-linecap="round" stroke-linejoin="round"/>
<path d="M777.995 305.699H580.906V310.076H777.995V305.699Z" fill="#263238" stroke="#263238" stroke-linecap="round" stroke-linejoin="round"/>
<path d="M780.835 300.903H578.067V306.212H780.835V300.903Z" fill="#919191" stroke="#263238" stroke-linecap="round" stroke-linejoin="round"/>
<path d="M780.826 300.903H725.143V306.212H780.826V300.903Z" fill="white" stroke="#263238" stroke-linecap="round" stroke-linejoin="round"/>
<path d="M721.044 202.48H693.676C692.25 202.48 690.883 203.046 689.875 204.055C688.867 205.063 688.3 206.43 688.3 207.856V217.936C688.299 218.642 688.437 219.342 688.707 219.995C688.977 220.647 689.373 221.24 689.872 221.74C690.372 222.239 690.965 222.635 691.618 222.905C692.27 223.175 692.97 223.313 693.676 223.312H708.007L702.639 238.306L712.921 223.312H721.044C721.75 223.313 722.449 223.175 723.102 222.905C723.755 222.635 724.348 222.239 724.847 221.74C725.347 221.24 725.743 220.647 726.013 219.995C726.282 219.342 726.421 218.642 726.42 217.936V207.856C726.42 206.43 725.853 205.063 724.845 204.055C723.837 203.046 722.469 202.48 721.044 202.48Z" fill="white" stroke="#263238" stroke-linecap="round" stroke-linejoin="round"/>
<path d="M700.027 215.189C701.108 215.189 701.984 214.313 701.984 213.232C701.984 212.151 701.108 211.275 700.027 211.275C698.946 211.275 698.07 212.151 698.07 213.232C698.07 214.313 698.946 215.189 700.027 215.189Z" fill="#263238"/>
<path d="M707.36 215.189C708.441 215.189 709.317 214.313 709.317 213.232C709.317 212.151 708.441 211.275 707.36 211.275C706.279 211.275 705.403 212.151 705.403 213.232C705.403 214.313 706.279 215.189 707.36 215.189Z" fill="#263238"/>
<path d="M716.642 213.232C716.642 212.845 716.527 212.466 716.311 212.144C716.096 211.822 715.79 211.571 715.432 211.423C715.074 211.275 714.68 211.237 714.3 211.313C713.92 211.389 713.571 211.576 713.298 211.851C713.024 212.126 712.839 212.475 712.764 212.855C712.69 213.236 712.73 213.629 712.879 213.987C713.028 214.344 713.281 214.649 713.603 214.863C713.926 215.077 714.306 215.191 714.693 215.189C714.95 215.189 715.204 215.138 715.441 215.04C715.678 214.942 715.893 214.797 716.074 214.615C716.255 214.434 716.399 214.218 716.496 213.98C716.593 213.743 716.643 213.489 716.642 213.232Z" fill="#263238"/>
<path d="M851 421.72H873.68" stroke="#263238" stroke-linecap="round" stroke-linejoin="round"/>
<path d="M493.16 421.72H839.24" stroke="#263238" stroke-linecap="round" stroke-linejoin="round"/>
<path d="M626.418 273.275C623.957 269.075 616.716 252.905 616.716 252.905C616.934 251.178 617.288 249.47 617.774 247.798C618.371 246.118 619.874 241.028 619.572 239.969C619.269 238.911 614.91 236.962 614.465 236.811C614.019 236.66 615.061 234.106 613.406 233.501C611.751 232.896 611.155 233.804 611.155 233.804L610.525 238.004L608.593 241.028C607.788 240.416 606.947 239.855 606.073 239.348C604.721 238.592 601.562 238.289 601.411 239.499C601.26 240.708 603.931 241.75 604.863 242.506C605.796 243.262 606.972 246.866 608.03 247.924C608.992 248.974 609.895 250.076 610.735 251.225L611.34 253.182C611.34 253.182 613.398 272.998 613.641 277.929C613.885 282.86 614.624 295.905 616.103 297.87C617.581 299.836 617.833 301.079 621.983 299.601C626.132 298.122 626.905 296.148 627.863 291.713C628.82 287.278 628.879 277.458 626.418 273.275Z" fill="white" stroke="#263238" stroke-linecap="round" stroke-linejoin="round"/>
<path d="M627.896 291.738C628.879 287.312 628.879 277.458 626.418 273.258C626.149 272.796 625.821 272.2 625.452 271.494C619.882 269.873 614.59 272.519 614.59 272.519L613.246 273.107C613.423 275.165 613.557 276.887 613.608 277.937C613.86 282.86 614.59 295.913 616.069 297.879C617.547 299.844 617.799 301.088 621.949 299.609C626.098 298.131 626.905 296.174 627.896 291.738Z" fill="#409B95" stroke="#263238" stroke-linecap="round" stroke-linejoin="round"/>
<path d="M608.458 206.68C609.065 208.908 609.403 211.201 609.466 213.509C609.466 216.794 608.458 218.818 609.979 219.826C611.499 220.834 612.759 220.842 612.499 222.867C612.399 223.984 611.956 225.044 611.23 225.899C611.23 225.899 610.726 236.265 610.222 237.281C609.718 238.298 603.141 237.029 601.621 236.769C600.1 236.508 595.808 238.541 593.019 232.98C590.23 227.42 592.515 219.07 597.572 214.769C601.05 211.876 604.685 209.175 608.458 206.68Z" fill="white" stroke="#263238" stroke-linecap="round" stroke-linejoin="round"/>
<path d="M609.466 213.467C609.466 213.467 608.097 212.442 607.375 214.24" stroke="#263238" stroke-linecap="round" stroke-linejoin="round"/>
<path d="M608.24 217.65C608.043 218.669 608.107 219.721 608.425 220.708" stroke="#263238" stroke-linecap="round" stroke-linejoin="round"/>
<path d="M610.76 229.528C610.536 229.6 610.298 229.624 610.064 229.598C609.83 229.573 609.603 229.498 609.4 229.379C609.196 229.261 609.02 229.1 608.882 228.909C608.745 228.717 608.649 228.499 608.601 228.268" stroke="#263238" stroke-linecap="round" stroke-linejoin="round"/>
<path d="M613.624 277.072C613.624 277.072 612.784 280.919 612.037 282.952C611.289 284.985 597.883 288.714 592.045 289.487C588.199 289.967 584.328 290.223 580.453 290.252L580.822 300.886C580.822 300.886 592.129 301.113 592.927 300.886C593.725 300.659 612.759 292.15 612.759 292.15L620.974 291.075C620.974 291.075 624.427 290.235 624.561 287.555C624.696 284.876 621.646 277.257 620.26 276.072C618.874 274.888 615.951 271.746 614.196 273.678C612.44 275.61 613.624 277.072 613.624 277.072Z" fill="white" stroke="#263238" stroke-linecap="round" stroke-linejoin="round"/>
<path d="M588.416 296.165C588.416 291.57 589.592 291.453 590.936 289.63C587.463 290.018 583.973 290.225 580.478 290.252L580.201 300.012C580.201 300.012 586.392 300.584 590.163 300.852C589.853 301.331 588.416 299.122 588.416 296.165Z" fill="#409B95" stroke="#263238" stroke-linecap="round" stroke-linejoin="round"/>
<path d="M624.922 316.829C620.45 311.803 614.764 308.006 608.408 305.8L593.658 312.092C592.512 309.279 590.992 306.635 589.138 304.229L586.383 300.869L588.156 291.234C588.156 291.234 598.773 283.96 600.142 280.81L600.193 280.709C602.326 284.01 611.583 298.299 613.322 299.685C615.288 301.264 621.184 301.457 623.738 299.097C626.292 296.736 627.476 295.166 626.888 291.629C626.888 291.629 622.957 283.17 620.79 279.432C618.622 275.694 613.91 262.33 611.55 258.197C609.87 255.24 609.172 253.157 607.98 251.763C607.152 250.336 606.174 249.002 605.065 247.781C602.704 245.261 596.211 244.631 594.834 244.043C593.456 243.455 593.263 243.254 585.4 240.902C577.538 238.55 568.684 237.164 562.393 242.078C562.393 242.078 553.942 252.107 550.633 268.622C547.323 285.136 547.088 301.852 546.702 304.8C546.315 307.749 542.964 322.104 541.981 330.362C540.998 338.619 549.616 346.91 554.925 349.48C560.234 352.05 583.04 352.428 596.413 349.48C609.786 346.532 631.021 333.159 631.021 333.159C631.021 333.159 631.802 324.893 624.922 316.829Z" fill="#409B95" stroke="#263238" stroke-linecap="round" stroke-linejoin="round"/>
<path d="M590.155 280.499L587.458 280.407" stroke="#263238" stroke-linecap="round" stroke-linejoin="round"/>
<path d="M589.138 276.207C592.916 277.479 596.594 279.029 600.142 280.844L593.221 280.608" stroke="#263238" stroke-linecap="round" stroke-linejoin="round"/>
<path d="M625.67 281.171C626.446 282.39 626.924 283.774 627.065 285.212C627.065 287.068 627.375 289.554 626.603 288.782C625.83 288.009 625.51 285.363 625.51 285.363L625.67 281.171Z" fill="white" stroke="#263238" stroke-linecap="round" stroke-linejoin="round"/>
<path d="M621.016 279.004C621.016 279.004 623.923 277.425 625.216 279.323C626.51 281.222 626.166 285.01 625.216 286.883C624.267 288.756 623.184 286.967 623.318 285.304C623.452 283.641 621.016 279.004 621.016 279.004Z" fill="white" stroke="#263238" stroke-linecap="round" stroke-linejoin="round"/>
<path d="M619.924 276.988C619.924 276.988 622.839 275.409 624.124 277.307C625.41 279.206 625.065 282.986 624.124 284.867C623.184 286.749 622.092 284.951 622.226 283.288C622.36 281.625 619.924 276.988 619.924 276.988Z" fill="white" stroke="#263238" stroke-linecap="round" stroke-linejoin="round"/>
<path d="M618.589 274.812C618.589 274.812 621.504 273.233 622.789 275.132C624.074 277.03 623.738 280.818 622.789 282.692C621.84 284.565 620.756 282.776 620.89 281.112C621.025 279.449 618.589 274.812 618.589 274.812Z" fill="white" stroke="#263238" stroke-linecap="round" stroke-linejoin="round"/>
<path d="M611.214 198.792C611.262 201.811 610.484 204.786 608.963 207.394C604.662 213.971 600.621 213.207 598.883 218.524C597.144 223.841 594.548 229.36 597.32 232.434C600.092 235.509 602.36 233.694 602.36 233.694C602.36 233.694 604.133 238.247 599.58 242.8C595.027 247.353 587.19 245.58 585.165 244.824C583.89 244.333 582.698 243.651 581.629 242.8C581.629 242.8 580.361 246.345 574.069 246.345C567.777 246.345 560.629 242.044 560.629 234.198C560.629 226.353 564.921 221.052 565.938 218.012C566.954 214.971 564.165 205.622 568.458 199.809C572.75 193.996 579.378 189.729 584.418 189.729C589.458 189.729 599.294 192.492 599.336 192.509C600 192.87 604.25 191.14 605.401 191.216C609.626 191.451 611.163 194.92 611.214 198.792Z" fill="#263238" stroke="#263238" stroke-linecap="round" stroke-linejoin="round"/>
<path d="M594.8 234.77C595.717 234.891 596.646 234.891 597.564 234.77" stroke="#919191" stroke-linecap="round" stroke-linejoin="round"/>
<path d="M607.568 203.202C607.169 205.454 606.339 207.608 605.124 209.544C601.192 215.718 596.724 217.944 591.373 223.824C587.937 227.63 588.584 231.426 591.373 233.417" stroke="#919191" stroke-linecap="round" stroke-linejoin="round"/>
<path d="M607.644 196.642C607.807 197.568 607.889 198.507 607.887 199.448" stroke="#919191" stroke-linecap="round" stroke-linejoin="round"/>
<path d="M602.36 202.53C602.36 202.53 601.52 211.224 597.874 216.273C594.229 221.321 586.954 223.833 587.215 229.175" stroke="#919191" stroke-linecap="round" stroke-linejoin="round"/>
<path d="M636.212 348.06C636.212 348.06 641.454 374.991 645.939 388.078C650.425 401.165 654.91 413.135 656.019 414.261C657.128 415.386 660.135 419.494 660.135 419.494C658.745 420.604 657.047 421.258 655.272 421.367C652.651 421.367 649.291 418.007 646.292 416.126C643.293 414.244 642.932 413.135 636.943 410.892C630.954 408.65 635.826 402.669 637.321 399.67C638.185 398.052 638.695 396.268 638.816 394.437C636.439 386.014 632.224 378.222 626.476 371.622C617.144 361.156 615.271 336.88 615.271 336.88L633.222 330.16L636.212 348.06Z" fill="white" stroke="#263238" stroke-linecap="round" stroke-linejoin="round"/>
<path d="M655.28 412.917L654.196 413.135C654.196 413.135 647.838 404.534 642.982 401.543C641.327 400.401 639.381 399.754 637.371 399.678C635.868 402.669 631.012 408.65 636.993 410.892C642.974 413.135 643.352 414.252 646.342 416.126C649.333 417.999 652.701 421.367 655.322 421.367C657.097 421.258 658.796 420.604 660.186 419.494C660.186 419.494 657.187 415.378 656.07 414.261C655.751 413.848 655.486 413.396 655.28 412.917Z" fill="#409B95" stroke="#263238" stroke-linecap="round" stroke-linejoin="round"/>
<path d="M652.264 420.3C649.308 418.259 646.636 413.723 641.823 410.892C637.447 408.322 635.196 408.221 634.263 408.414C634.492 409.014 634.859 409.552 635.335 409.982C635.811 410.413 636.382 410.725 637.002 410.892C642.991 413.135 643.36 414.252 646.351 416.126C648.241 417.335 650.324 419.2 652.264 420.3Z" fill="#409B95" stroke="#263238" stroke-linecap="round" stroke-linejoin="round"/>
<path d="M655.28 421.367C655.088 421.36 654.898 421.34 654.709 421.308C654.897 421.344 655.088 421.364 655.28 421.367Z" fill="#409B95" stroke="#263238" stroke-linecap="round" stroke-linejoin="round"/>
<path d="M602.881 307.48C602.881 307.48 620.857 301.113 622.537 305.313C624.217 309.513 631.911 325.179 629.106 331.613C626.3 338.048 606.577 313.133 603.771 312.596C600.966 312.058 602.553 309.362 602.881 307.48Z" fill="white" stroke="#263238" stroke-linecap="round" stroke-linejoin="round"/>
<path d="M620.496 315.687C620.496 315.687 640.933 314.007 644.856 317.652C648.779 321.298 635.339 364.97 628.056 378.687C616.64 400.14 620.093 405.76 620.093 405.76C620.093 405.76 620.933 409.12 626.535 414.446C632.138 419.771 633.818 420.603 631.853 421.443C629.887 422.283 621.495 421.443 620.655 420.88C619.815 420.317 613.658 415.286 608.055 413.606C602.453 411.926 603.293 410.8 605.813 405.76C608.333 400.72 608.055 404.92 610.853 396.243C614.206 385.55 616.854 374.648 618.782 363.609C620.269 354.612 622.537 344.734 621.899 335.586L620.496 315.687Z" fill="white" stroke="#263238" stroke-linecap="round" stroke-linejoin="round"/>
<path d="M635.464 329.362C633.324 324.199 629.643 319.822 624.922 316.829C615.985 311.126 608.408 305.8 608.408 305.8L593.658 312.092C593.658 312.092 597.253 318.19 578.773 321.273C564.543 323.642 551.481 320.206 544.434 316.065C543.451 320.945 542.426 326.372 541.914 330.345C540.931 338.602 549.583 346.859 554.892 349.421C560.2 351.983 602.973 357.284 614.49 349.883C635.464 336.468 635.464 329.362 635.464 329.362Z" fill="#263238" stroke="#263238" stroke-linecap="round" stroke-linejoin="round"/>
<path d="M591.986 316.72C590.012 318.341 586.165 320.08 578.773 321.281C564.543 323.65 551.481 320.214 544.434 316.073C544.182 317.325 543.93 318.593 543.678 319.895C548.508 322.802 558.655 327.724 570.096 326.321C583.746 324.65 589.811 320.92 591.986 316.72Z" fill="#409B95" stroke="#263238" stroke-linecap="round" stroke-linejoin="round"/>
<path d="M581.083 334.713C580.428 335.553 579.747 336.393 579.058 337.233" stroke="white" stroke-linecap="round" stroke-linejoin="round"/>
<path d="M591.373 318.77C588.788 323.523 585.903 328.107 582.738 332.495" stroke="white" stroke-linecap="round" stroke-linejoin="round"/>
<path d="M585.216 324.087C585.216 324.087 580.176 330.807 574.858 334.73" stroke="white" stroke-linecap="round" stroke-linejoin="round"/>
<path d="M626.535 414.429C620.933 409.12 620.093 405.76 620.093 405.76C619.905 405.586 619.756 405.374 619.656 405.138C619.278 405.533 618.135 406.281 615.338 405.206C612.911 404.273 610.609 402.686 608.181 401.619C607.602 402.652 607.039 403.299 605.813 405.76C603.293 410.8 602.453 411.926 608.055 413.606C613.658 415.286 619.815 420.326 620.655 420.88C621.495 421.434 629.895 422.283 631.853 421.443C633.81 420.603 632.138 419.746 626.535 414.429Z" fill="#409B95" stroke="#263238" stroke-linecap="round" stroke-linejoin="round"/>
<path d="M631.693 332.21L641.218 326.33" stroke="#263238" stroke-linecap="round" stroke-linejoin="round"/>
<path d="M517.898 278.97C517.898 278.97 548.239 275.174 567.626 280.65L570.574 354.411H525.08C525.08 354.411 528.012 314.788 517.898 278.97Z" fill="#919191" stroke="#263238" stroke-linecap="round" stroke-linejoin="round"/>
<path d="M567.626 280.65C548.239 275.174 517.898 278.97 517.898 278.97C521.145 290.908 523.301 303.116 524.341 315.443C541.283 323.903 556.799 334.956 570.331 348.203L567.626 280.65Z" fill="#757575" stroke="#263238" stroke-linecap="round" stroke-linejoin="round"/>
<path d="M624.838 423.4C624.495 423.401 624.16 423.297 623.877 423.102C623.595 422.907 623.379 422.63 623.259 422.308C616.539 404.198 614.859 357.183 614.758 355.192C614.743 354.746 614.905 354.313 615.209 353.987C615.513 353.661 615.934 353.469 616.38 353.453C616.825 353.438 617.259 353.6 617.585 353.904C617.911 354.208 618.103 354.629 618.118 355.074C618.118 355.562 619.866 403.534 626.409 421.132C626.564 421.55 626.546 422.012 626.361 422.417C626.175 422.821 625.836 423.136 625.418 423.291C625.234 423.364 625.037 423.401 624.838 423.4Z" fill="white" stroke="#263238" stroke-linecap="round" stroke-linejoin="round"/>
<path d="M588.256 423.4C587.915 423.399 587.581 423.295 587.3 423.099C587.02 422.904 586.805 422.628 586.686 422.308C579.966 404.198 578.286 357.183 578.176 355.192C578.161 354.746 578.323 354.313 578.627 353.987C578.931 353.661 579.352 353.469 579.798 353.453C580.243 353.438 580.677 353.6 581.003 353.904C581.329 354.208 581.521 354.629 581.536 355.074C581.536 355.562 583.284 403.534 589.836 421.132C589.99 421.55 589.973 422.012 589.787 422.417C589.601 422.821 589.262 423.136 588.844 423.291C588.657 423.364 588.457 423.401 588.256 423.4Z" fill="white" stroke="#263238" stroke-linecap="round" stroke-linejoin="round"/>
<path d="M624.385 354.377H524.282V351.017H621.042C621.933 351.017 622.787 351.371 623.417 352.001C624.048 352.631 624.402 353.486 624.402 354.377H624.385Z" fill="#919191" stroke="#263238" stroke-linecap="round" stroke-linejoin="round"/>
<path d="M624.376 353.562H524.282V356.897H624.376V353.562Z" fill="white" stroke="#263238" stroke-linecap="round" stroke-linejoin="round"/>
<path d="M566.878 423.4C566.626 423.405 566.375 423.354 566.145 423.249C565.915 423.144 565.711 422.988 565.55 422.793C565.388 422.599 565.273 422.37 565.212 422.125C565.151 421.879 565.146 421.623 565.198 421.376C574.699 376.368 566.038 281.726 565.921 280.776C565.9 280.556 565.924 280.333 565.989 280.122C566.055 279.91 566.161 279.713 566.303 279.543C566.445 279.373 566.618 279.232 566.814 279.128C567.01 279.025 567.225 278.961 567.445 278.941C567.891 278.9 568.335 279.037 568.679 279.323C569.023 279.609 569.24 280.02 569.281 280.466C569.373 281.423 578.101 376.562 568.5 422.064C568.421 422.438 568.218 422.774 567.923 423.017C567.629 423.26 567.26 423.395 566.878 423.4Z" fill="white" stroke="#263238" stroke-linecap="round" stroke-linejoin="round"/>
<path d="M514.798 422.174C514.642 422.175 514.486 422.153 514.336 422.106C513.909 421.985 513.548 421.7 513.331 421.312C513.113 420.925 513.058 420.468 513.177 420.04C535.017 342.508 516.478 280.079 516.294 279.458C516.188 279.04 516.247 278.597 516.458 278.221C516.67 277.845 517.018 277.565 517.43 277.439C517.843 277.313 518.288 277.35 518.673 277.543C519.059 277.735 519.356 278.069 519.502 278.475C519.696 279.105 538.554 342.424 516.411 420.947C516.312 421.299 516.102 421.61 515.811 421.831C515.519 422.052 515.164 422.173 514.798 422.174Z" fill="white" stroke="#263238" stroke-linecap="round" stroke-linejoin="round"/>
<path d="M821.919 283.666C821.919 283.666 811.596 277.929 810.831 290.932C810.067 303.935 808.16 388.448 808.16 388.448" stroke="#263238" stroke-width="2" stroke-linecap="round" stroke-linejoin="round"/>
<path d="M805.472 292.074C805.472 292.074 813.872 310.815 810.067 387.305" stroke="#263238" stroke-width="2" stroke-linecap="round" stroke-linejoin="round"/>
<path d="M813.746 286.287C813.746 286.287 809.79 288.807 807.547 285.917C805.304 283.028 809.067 277.719 805.749 275.451C802.431 273.183 796.694 276.644 796.694 276.644C796.694 276.644 801.104 277.937 800.961 280.348C800.818 282.759 798.693 283.666 798.441 282.616C798.189 281.566 796.047 276.257 792.469 278.466C791.435 279.076 790.535 279.889 789.825 280.856C789.114 281.824 788.608 282.925 788.336 284.094C788.336 284.094 796.677 283.204 797.181 286.337C797.685 289.47 793.762 285.791 790.318 285.59C786.874 285.388 783.733 285.892 783.96 287.975C784.036 289.818 783.926 291.665 783.632 293.486C785.518 291.92 787.901 291.079 790.352 291.117C794.14 291.344 793.998 293.754 790.554 293.553C787.11 293.351 784.153 296.627 784.153 296.627C784.153 296.627 787.294 301.995 791.284 304.649C795.274 307.304 796.711 306.329 797.164 304.305C797.618 302.28 796.56 297.014 798.97 297.156C801.381 297.299 794.98 306.245 798.055 306.774C801.129 307.304 803.607 306.413 804.414 304.389L805.254 302.364C805.254 302.364 804.178 297.114 804.649 295.073C805.119 293.032 805.682 295.132 806.228 297.593C806.774 300.054 807.118 305.934 808.168 305.649C809.218 305.363 812.587 301.079 813.376 299.391C814.166 297.702 808.941 292.57 809 291.537C809.059 290.504 813.091 292.469 813.721 293.544C814.179 294.361 814.591 295.202 814.956 296.064C814.956 296.064 817.476 294.485 817.408 289.647C817.341 284.808 813.746 286.287 813.746 286.287Z" fill="#409B95"/>
<path opacity="0.3" d="M813.746 286.287C813.746 286.287 809.79 288.807 807.547 285.917C805.304 283.028 809.067 277.719 805.749 275.451C802.431 273.183 796.694 276.644 796.694 276.644C796.694 276.644 801.104 277.937 800.961 280.348C800.818 282.759 798.693 283.666 798.441 282.616C798.189 281.566 796.047 276.257 792.469 278.466C791.435 279.076 790.535 279.889 789.825 280.856C789.114 281.824 788.608 282.925 788.336 284.094C788.336 284.094 796.677 283.204 797.181 286.337C797.685 289.47 793.762 285.791 790.318 285.59C786.874 285.388 783.733 285.892 783.96 287.975C784.036 289.818 783.926 291.665 783.632 293.486C785.518 291.92 787.901 291.079 790.352 291.117C794.14 291.344 793.998 293.754 790.554 293.553C787.11 293.351 784.153 296.627 784.153 296.627C784.153 296.627 787.294 301.995 791.284 304.649C795.274 307.304 796.711 306.329 797.164 304.305C797.618 302.28 796.56 297.014 798.97 297.156C801.381 297.299 794.98 306.245 798.055 306.774C801.129 307.304 803.607 306.413 804.414 304.389L805.254 302.364C805.254 302.364 804.178 297.114 804.649 295.073C805.119 293.032 805.682 295.132 806.228 297.593C806.774 300.054 807.118 305.934 808.168 305.649C809.218 305.363 812.587 301.079 813.376 299.391C814.166 297.702 808.941 292.57 809 291.537C809.059 290.504 813.091 292.469 813.721 293.544C814.179 294.361 814.591 295.202 814.956 296.064C814.956 296.064 817.476 294.485 817.408 289.647C817.341 284.808 813.746 286.287 813.746 286.287Z" fill="#263238"/>
<path d="M793.72 297.635C796.299 294.452 800.088 290.142 803.271 288.084" stroke="#263238" stroke-linecap="round" stroke-linejoin="round"/>
<path d="M790.739 301.508C790.739 301.508 791.394 300.592 792.469 299.214" stroke="#263238" stroke-linecap="round" stroke-linejoin="round"/>
<path d="M804.951 288.874C804.951 288.874 808.782 294.284 809.487 299.853" stroke="#263238" stroke-linecap="round" stroke-linejoin="round"/>
<path d="M800.6 292.074C800.6 292.074 801.675 291.444 801.272 298.332" stroke="#263238" stroke-linecap="round" stroke-linejoin="round"/>
<path d="M803.414 285.64C803.414 285.64 805.606 283.7 804.447 279.827" stroke="#263238" stroke-linecap="round" stroke-linejoin="round"/>
<path d="M800.457 288.958L798.895 286.102" stroke="#263238" stroke-linecap="round" stroke-linejoin="round"/>
<path d="M797.173 291.873C797.173 291.873 792.217 288.126 789.117 287.942" stroke="#263238" stroke-linecap="round" stroke-linejoin="round"/>
<path d="M827.824 276.081C827.824 276.081 827.665 281.759 823.23 282.036C818.794 282.314 816.056 274.922 811.52 276.702C806.984 278.483 806.547 286.581 806.547 286.581C806.547 286.581 810.848 283.044 813.166 284.825C815.485 286.606 814.947 289.361 813.696 288.924C812.444 288.488 805.707 286.984 805.472 292.074C805.378 293.526 805.579 294.981 806.062 296.352C806.546 297.724 807.302 298.983 808.286 300.054C808.286 300.054 813.082 291.092 816.577 292.721C820.071 294.351 813.696 295.779 811.142 299.088C808.588 302.398 806.942 305.884 809.202 307.085C811.099 308.26 812.873 309.625 814.494 311.159C814.494 311.159 813.889 306.472 816.694 302.835C819.5 299.198 821.81 300.978 819.265 304.288C816.72 307.598 817.98 312.797 817.98 312.797C817.98 312.797 825.489 313.31 830.865 311.117C836.241 308.925 836.275 306.842 834.544 304.985C832.814 303.129 826.833 300.626 828.614 298.265C830.395 295.905 834.998 308.454 837.627 305.733C840.256 303.011 841.046 299.928 839.568 297.736L838.089 295.552C838.089 295.552 832.108 293.032 830.378 291.184C828.648 289.336 831.142 290.193 833.973 291.318C836.804 292.444 842.928 296.115 843.364 294.863C843.801 293.612 841.794 287.303 840.651 285.388C839.509 283.473 830.79 285.178 829.798 284.414C828.807 283.649 833.52 280.953 835.023 281.054C836.151 281.147 837.272 281.301 838.383 281.516C838.383 281.516 838.518 277.92 833.629 274.686C828.74 271.452 827.824 276.081 827.824 276.081Z" fill="#409B95"/>
<path opacity="0.2" d="M827.824 276.081C827.824 276.081 827.665 281.759 823.23 282.036C818.794 282.314 816.056 274.922 811.52 276.702C806.984 278.483 806.547 286.581 806.547 286.581C806.547 286.581 810.848 283.044 813.166 284.825C815.485 286.606 814.947 289.361 813.696 288.924C812.444 288.488 805.707 286.984 805.472 292.074C805.378 293.526 805.579 294.981 806.062 296.352C806.546 297.724 807.302 298.983 808.286 300.054C808.286 300.054 813.082 291.092 816.577 292.721C820.071 294.351 813.696 295.779 811.142 299.088C808.588 302.398 806.942 305.884 809.202 307.085C811.099 308.26 812.873 309.625 814.494 311.159C814.494 311.159 813.889 306.472 816.694 302.835C819.5 299.198 821.81 300.978 819.265 304.288C816.72 307.598 817.98 312.797 817.98 312.797C817.98 312.797 825.489 313.31 830.865 311.117C836.241 308.925 836.275 306.842 834.544 304.985C832.814 303.129 826.833 300.626 828.614 298.265C830.395 295.905 834.998 308.454 837.627 305.733C840.256 303.011 841.046 299.928 839.568 297.736L838.089 295.552C838.089 295.552 832.108 293.032 830.378 291.184C828.648 289.336 831.142 290.193 833.973 291.318C836.804 292.444 842.928 296.115 843.364 294.863C843.801 293.612 841.794 287.303 840.651 285.388C839.509 283.473 830.79 285.178 829.798 284.414C828.807 283.649 833.52 280.953 835.023 281.054C836.151 281.147 837.272 281.301 838.383 281.516C838.383 281.516 838.518 277.92 833.629 274.686C828.74 271.452 827.824 276.081 827.824 276.081Z" fill="#263238"/>
<path d="M825.54 303.86C824.12 299.08 822.373 292.36 822.49 287.79" stroke="#263238" stroke-linecap="round" stroke-linejoin="round"/>
<path d="M827.379 309.496C827.379 309.496 826.909 308.202 826.262 306.195" stroke="#263238" stroke-linecap="round" stroke-linejoin="round"/>
<path d="M824.422 286.648C824.422 286.648 832.444 286.497 838.501 289.588" stroke="#263238" stroke-linecap="round" stroke-linejoin="round"/>
<path d="M824.674 293.2C824.674 293.2 824.775 291.696 831.394 296.795" stroke="#263238" stroke-linecap="round" stroke-linejoin="round"/>
<path d="M820.172 286.001C820.172 286.001 819.718 282.49 815.056 281.012" stroke="#263238" stroke-linecap="round" stroke-linejoin="round"/>
<path d="M821.44 291.201L817.518 290.814" stroke="#263238" stroke-linecap="round" stroke-linejoin="round"/>
<path d="M822.121 296.476C822.121 296.476 814.989 298.887 812.696 301.869" stroke="#263238" stroke-linecap="round" stroke-linejoin="round"/>
<path d="M780.239 313.881C780.239 313.881 802.801 328.791 802.423 386.541" stroke="#263238" stroke-width="2" stroke-linecap="round" stroke-linejoin="round"/>
<path d="M808.059 309.941C808.059 309.941 807.337 316.476 802.179 316.376C797.022 316.275 794.619 307.488 789.176 309.118C783.733 310.748 782.498 320.038 782.498 320.038C782.498 320.038 787.807 316.359 790.31 318.644C792.813 320.928 791.931 324.045 790.528 323.423C789.126 322.802 781.49 320.424 780.742 326.279C780.499 327.946 780.597 329.644 781.031 331.271C781.464 332.899 782.223 334.421 783.262 335.746C783.262 335.746 789.646 325.859 793.519 328.077C797.391 330.294 789.907 331.328 786.648 334.906C783.388 338.484 781.179 342.348 783.649 343.944C785.731 345.481 787.651 347.226 789.378 349.152C789.378 349.152 789.117 343.692 792.696 339.753C796.274 335.813 798.786 338.073 795.526 341.676C792.267 345.28 793.242 351.37 793.242 351.37C793.242 351.37 801.868 352.672 808.278 350.656C814.687 348.64 814.914 346.238 813.091 343.936C811.268 341.634 804.607 338.174 806.883 335.67C809.16 333.167 813.284 348.035 816.577 345.137C819.87 342.239 821.062 338.77 819.567 336.099L818.072 333.428C818.072 333.428 811.411 329.975 809.588 327.665C807.765 325.355 810.562 326.598 813.721 328.161C816.879 329.723 823.608 334.536 824.221 333.142C824.834 331.748 823.12 324.288 821.986 321.945C820.852 319.601 810.63 320.769 809.554 319.794C808.479 318.82 814.183 316.157 815.905 316.434C817.187 316.648 818.457 316.928 819.71 317.274C819.71 317.274 820.197 313.142 814.863 308.942C809.529 304.742 808.059 309.941 808.059 309.941Z" fill="#409B95"/>
<path opacity="0.3" d="M808.059 309.941C808.059 309.941 807.337 316.476 802.179 316.376C797.022 316.275 794.619 307.488 789.176 309.118C783.733 310.748 782.498 320.038 782.498 320.038C782.498 320.038 787.807 316.359 790.31 318.644C792.813 320.928 791.931 324.045 790.528 323.423C789.126 322.802 781.49 320.424 780.742 326.279C780.499 327.946 780.597 329.644 781.031 331.271C781.464 332.899 782.223 334.421 783.262 335.746C783.262 335.746 789.646 325.859 793.519 328.077C797.391 330.294 789.907 331.328 786.648 334.906C783.388 338.484 781.179 342.348 783.649 343.944C785.731 345.481 787.651 347.226 789.378 349.152C789.378 349.152 789.117 343.692 792.696 339.753C796.274 335.813 798.786 338.073 795.526 341.676C792.267 345.28 793.242 351.37 793.242 351.37C793.242 351.37 801.868 352.672 808.278 350.656C814.687 348.64 814.914 346.238 813.091 343.936C811.268 341.634 804.607 338.174 806.883 335.67C809.16 333.167 813.284 348.035 816.577 345.137C819.87 342.239 821.062 338.77 819.567 336.099L818.072 333.428C818.072 333.428 811.411 329.975 809.588 327.665C807.765 325.355 810.562 326.598 813.721 328.161C816.879 329.723 823.608 334.536 824.221 333.142C824.834 331.748 823.12 324.288 821.986 321.945C820.852 319.601 810.63 320.769 809.554 319.794C808.479 318.82 814.183 316.157 815.905 316.434C817.187 316.648 818.457 316.928 819.71 317.274C819.71 317.274 820.197 313.142 814.863 308.942C809.529 304.742 808.059 309.941 808.059 309.941Z" fill="#263238"/>
<path d="M802.801 341.777C801.591 336.166 800.239 328.228 800.793 322.944" stroke="#263238" stroke-linecap="round" stroke-linejoin="round"/>
<path d="M804.397 348.455C804.397 348.455 803.977 346.918 803.414 344.541" stroke="#263238" stroke-linecap="round" stroke-linejoin="round"/>
<path d="M803.12 321.81C803.12 321.81 812.36 322.398 819.08 326.531" stroke="#263238" stroke-linecap="round" stroke-linejoin="round"/>
<path d="M802.809 329.32C802.809 329.32 803.07 327.598 810.227 334.108" stroke="#263238" stroke-linecap="round" stroke-linejoin="round"/>
<path d="M798.29 320.668C798.29 320.668 798.097 316.569 792.864 314.418" stroke="#263238" stroke-linecap="round" stroke-linejoin="round"/>
<path d="M799.264 326.783L794.779 325.968" stroke="#263238" stroke-linecap="round" stroke-linejoin="round"/>
<path d="M799.558 332.932C799.558 332.932 791.1 335.049 788.168 338.266" stroke="#263238" stroke-linecap="round" stroke-linejoin="round"/>
<path d="M789.033 359.384C789.033 359.384 803.565 370.472 805.094 386.919L802.036 331.84" stroke="#263238" stroke-width="2" stroke-linecap="round" stroke-linejoin="round"/>
<path d="M824.212 351.353C805.094 347.909 805.094 386.919 805.094 386.919" stroke="#263238" stroke-width="2" stroke-linecap="round" stroke-linejoin="round"/>
<path d="M807.387 386.541C807.387 386.541 796.299 305.85 828.387 305.85" stroke="#263238" stroke-width="2" stroke-linecap="round" stroke-linejoin="round"/>
<path d="M816.93 349.035C814.317 346.095 808.765 346.095 805.506 353.604C802.246 361.114 805.178 359.812 805.178 359.812C805.178 359.812 811.377 357.846 815.3 356.544C819.223 355.242 824.439 351.975 824.767 353.932C825.094 355.889 822.154 357.846 818.559 358.502C814.964 359.157 805.506 361.769 806.48 363.76C807.454 365.751 809.748 371.597 809.748 371.597C812.536 369.228 815.48 367.047 818.559 365.07C822.81 362.458 825.422 363.432 823.137 366.372C820.852 369.312 814.317 372.572 815.628 376.494C816.938 380.417 824.767 385.306 824.767 385.306C824.767 385.306 825.75 377.15 828.034 374.537C830.319 371.925 830.319 374.865 829.664 379.434C829.336 381.381 829.118 383.344 829.009 385.314L838.148 388.582C839.643 386.306 841.278 384.127 843.045 382.055L844.725 380.375C844.725 380.375 837.543 374.176 837.216 370.295C836.888 366.414 842.113 370.295 843.742 370.95C845.372 371.606 847.984 376.175 847.984 376.175C847.984 376.175 849.622 368.666 849.95 366.053L850.278 363.441C850.278 363.441 843.415 360.828 840.802 360.828C838.19 360.828 836.888 362.786 836.888 360.182C836.888 357.578 839.5 355.931 842.44 356.259C845.1 356.704 847.721 357.358 850.278 358.216C850.278 358.216 852.235 356.586 851.58 351.689C850.924 346.792 849.295 346.792 845.38 348.094C841.466 349.396 838.845 352.344 835.905 352.344C832.965 352.344 834.603 348.749 836.56 347.775C838.518 346.8 843.415 344.835 844.398 344.507C845.38 344.18 839.173 339.61 835.905 338.955C832.638 338.3 828.412 340.635 828.723 343.852C829.336 350.664 819.542 352 816.93 349.035Z" fill="#409B95"/>
<path d="M837.947 382.652C838.047 383.632 838.114 384.614 838.147 385.6" stroke="#263238" stroke-linecap="round" stroke-linejoin="round"/>
<path d="M831.386 359.216C834.264 365.68 836.337 372.473 837.56 379.443" stroke="#263238" stroke-linecap="round" stroke-linejoin="round"/>
<path d="M830.21 356.595C828.597 353.117 827.379 350.992 827.379 350.992C829.161 350.153 830.642 348.786 831.621 347.078C832.385 345.53 833.505 344.186 834.889 343.155" stroke="#263238" stroke-linecap="round" stroke-linejoin="round"/>
<path d="M815.955 362.08C815.955 362.08 827.715 357.183 827.715 358.157" stroke="#263238" stroke-linecap="round" stroke-linejoin="round"/>
<path d="M834.2 355.889C834.2 355.889 839.425 353.277 843.994 353.277" stroke="#263238" stroke-linecap="round" stroke-linejoin="round"/>
<path d="M832.276 363.76C830.01 365.622 827.931 367.702 826.069 369.968C824.164 372.215 822.622 374.746 821.499 377.469" stroke="#263238" stroke-linecap="round" stroke-linejoin="round"/>
<path d="M835.88 365.037C835.88 365.037 842.743 363.071 846.33 366.339" stroke="#263238" stroke-linecap="round" stroke-linejoin="round"/>
<path d="M848.287 320.92C844.734 318.82 840.802 318.77 838.87 316.552C836.938 314.334 840.727 313.192 842.751 314.032C844.776 314.872 849.471 317.283 850.353 317.804C851.235 318.324 850.63 310.655 848.984 307.724C847.338 304.792 842.827 303.146 840.584 305.514C835.838 310.496 828.429 303.96 828.933 300.063C829.437 296.165 825.8 291.974 818.013 294.426C810.226 296.879 813.116 298.248 813.116 298.248C813.116 298.248 818.66 301.65 822.222 303.75C825.783 305.85 831.663 307.656 830.395 309.185C829.126 310.714 825.724 309.782 822.877 307.505C820.029 305.229 811.856 299.786 811.016 301.81C810.176 303.834 807.236 309.412 807.236 309.412C810.855 309.967 814.433 310.761 817.946 311.789C822.7 313.284 823.675 315.897 819.962 316.098C816.249 316.3 809.496 313.511 807.362 317.064C805.228 320.618 806.698 329.74 806.698 329.74C806.698 329.74 813.502 325.137 816.972 325.145C820.441 325.154 818.223 327.086 814.342 329.589C812.659 330.616 811.035 331.738 809.479 332.949L813.007 341.996C815.705 341.63 818.424 341.434 821.146 341.408L823.448 341.576C823.448 341.576 823.448 332.084 826.17 329.27C828.891 326.456 829.378 332.966 829.958 334.629C830.538 336.292 828.799 341.256 828.799 341.256C828.799 341.256 835.519 337.569 837.72 336.099L839.912 334.637C839.912 334.637 837.392 327.741 835.67 325.775C833.948 323.81 831.63 324.095 833.595 322.415C835.561 320.735 838.518 321.575 840.198 324.045C841.606 326.343 842.828 328.75 843.852 331.244C843.852 331.244 846.372 331.655 849.639 327.951C852.907 324.246 851.84 323.02 848.287 320.92ZM817.4 331.37C814.788 330.059 820.987 327.447 820.987 327.447C823.28 327.128 820.004 332.68 817.4 331.37ZM821.793 319.181C820.684 318.627 824.019 317.501 824.019 317.501C828.841 318.4 822.902 319.736 821.785 319.181H821.793Z" fill="#409B95"/>
<path d="M817.316 338.022C816.644 338.736 815.938 339.434 815.224 340.106" stroke="#263238" stroke-linecap="round" stroke-linejoin="round"/>
<path d="M830.714 317.703C827.714 324.109 823.936 330.121 819.466 335.603" stroke="#263238" stroke-linecap="round" stroke-linejoin="round"/>
<path d="M831.924 315.099C833.494 311.596 834.292 309.286 834.292 309.286C836.098 310.078 838.102 310.301 840.038 309.924C841.705 309.484 843.453 309.446 845.137 309.815" stroke="#263238" stroke-linecap="round" stroke-linejoin="round"/>
<path d="M829.084 314.242C829.824 313.595 818.425 307.934 818.425 307.934" stroke="#263238" stroke-linecap="round" stroke-linejoin="round"/>
<path d="M835.09 317.669C835.09 317.669 840.492 319.904 843.49 323.356" stroke="#263238" stroke-linecap="round" stroke-linejoin="round"/>
<path d="M827.892 321.332C825.001 320.841 822.07 320.633 819.139 320.71C816.19 320.747 813.266 321.243 810.47 322.18" stroke="#263238" stroke-linecap="round" stroke-linejoin="round"/>
<path d="M829.261 324.902C829.261 324.902 835.233 328.791 835.141 333.646" stroke="#263238" stroke-linecap="round" stroke-linejoin="round"/>
<path d="M797.551 366.154C794.695 364.474 791.528 364.432 789.991 362.643C788.454 360.854 791.478 359.955 793.107 360.627C794.737 361.299 798.517 363.248 799.231 363.668C799.945 364.088 799.449 357.905 798.122 355.578C796.795 353.252 793.166 351.899 791.36 353.798C787.538 357.813 781.574 352.546 781.986 349.413C782.397 346.28 779.466 342.903 773.174 344.877C766.882 346.851 769.234 347.951 769.234 347.951C769.234 347.951 773.695 350.69 776.559 352.378C779.424 354.066 784.161 355.528 783.136 356.754C782.112 357.981 779.382 357.242 777.088 355.402C774.795 353.562 768.218 349.186 767.546 350.816C766.874 352.445 764.505 356.931 764.505 356.931C767.417 357.38 770.296 358.02 773.124 358.846C776.946 360.047 777.727 362.147 774.736 362.307C771.746 362.466 766.336 360.224 764.656 363.088C762.976 365.952 764.119 373.294 764.119 373.294C764.119 373.294 769.596 369.581 772.384 369.59C775.173 369.598 773.392 371.152 770.276 373.168C768.921 373.995 767.614 374.898 766.362 375.873L769.192 383.147C771.365 382.856 773.553 382.701 775.744 382.685L777.601 382.811C777.601 382.811 777.601 375.176 779.793 372.908C781.986 370.64 782.372 375.881 782.834 377.225C783.296 378.569 781.902 382.559 781.902 382.559C781.902 382.559 787.328 379.586 789.084 378.41L790.848 377.225C790.848 377.225 788.815 371.681 787.437 370.094C786.06 368.506 784.178 368.75 785.757 367.372C787.336 365.994 789.714 366.717 791.066 368.674C792.2 370.525 793.186 372.463 794.014 374.47C794.014 374.47 796.039 374.798 798.668 371.824C801.297 368.85 800.415 367.851 797.551 366.154ZM772.687 374.554C770.587 373.504 775.576 371.404 775.576 371.404C777.416 371.152 774.787 375.621 772.687 374.562V374.554ZM776.24 364.76C775.341 364.306 778.029 363.416 778.029 363.416C781.902 364.163 777.122 365.205 776.24 364.76Z" fill="#409B95"/>
<path d="M772.637 379.922C772.091 380.493 771.528 381.056 770.957 381.602" stroke="#263238" stroke-linecap="round" stroke-linejoin="round"/>
<path d="M783.414 363.567C781.001 368.722 777.963 373.561 774.367 377.973" stroke="#263238" stroke-linecap="round" stroke-linejoin="round"/>
<path d="M784.388 361.467C785.648 358.653 786.295 356.796 786.295 356.796C787.747 357.432 789.358 357.611 790.915 357.309C792.255 356.954 793.66 356.925 795.014 357.225" stroke="#263238" stroke-linecap="round" stroke-linejoin="round"/>
<path d="M773.519 355.704C773.519 355.704 782.7 360.266 782.103 360.744" stroke="#263238" stroke-linecap="round" stroke-linejoin="round"/>
<path d="M786.933 363.542C786.933 363.542 791.276 365.339 793.653 368.12" stroke="#263238" stroke-linecap="round" stroke-linejoin="round"/>
<path d="M781.137 366.49C778.812 366.096 776.455 365.93 774.098 365.994C771.726 366.017 769.372 366.417 767.126 367.179" stroke="#263238" stroke-linecap="round" stroke-linejoin="round"/>
<path d="M782.246 369.363C782.246 369.363 787.051 372.496 786.959 376.394" stroke="#263238" stroke-linecap="round" stroke-linejoin="round"/>
<path d="M785.892 312.243C785.892 312.243 782.296 314.855 780.012 312.243C777.727 309.63 780.994 304.406 777.727 302.448C774.459 300.491 769.243 304.078 769.243 304.078C769.243 304.078 773.485 305.061 773.485 307.346C773.485 309.63 771.528 310.613 771.2 309.63C770.872 308.648 768.588 303.75 765.32 306.044C764.379 306.677 763.576 307.496 762.959 308.448C762.343 309.401 761.926 310.469 761.733 311.588C761.733 311.588 769.562 310.286 770.217 313.226C770.872 316.166 766.958 312.898 763.69 312.898C760.423 312.898 757.483 313.553 757.81 315.51C757.988 317.247 757.988 318.998 757.81 320.735C759.502 319.152 761.703 318.225 764.018 318.123C767.605 318.123 767.605 320.408 764.346 320.408C761.086 320.408 758.466 323.675 758.466 323.675C758.466 323.675 761.733 328.572 765.648 330.857C769.562 333.142 770.872 332.159 771.2 330.202C771.528 328.245 770.217 323.348 772.502 323.348C774.787 323.348 769.243 332.159 772.174 332.487C775.106 332.814 777.399 331.832 778.054 329.874L778.71 327.917C778.71 327.917 777.399 323.02 777.727 321.063C778.054 319.106 778.71 321.063 779.356 323.348C780.003 325.632 780.667 331.176 781.65 330.857C782.632 330.538 785.564 326.279 786.219 324.65C786.874 323.02 781.65 318.45 781.65 317.468C781.65 316.485 785.564 318.123 786.219 319.097C786.874 320.072 787.521 321.382 787.521 321.382C787.521 321.382 789.806 319.752 789.478 315.183C789.151 310.613 785.892 312.243 785.892 312.243Z" fill="#409B95"/>
<path d="M767.596 324.087C769.856 320.937 773.208 316.653 776.097 314.528" stroke="#263238" stroke-linecap="round" stroke-linejoin="round"/>
<path d="M764.992 327.917C764.992 327.917 765.572 327.01 766.504 325.649" stroke="#263238" stroke-linecap="round" stroke-linejoin="round"/>
<path d="M777.727 315.183C777.727 315.183 781.65 320.08 782.624 325.305" stroke="#263238" stroke-linecap="round" stroke-linejoin="round"/>
<path d="M773.812 318.45C773.812 318.45 774.787 317.795 774.787 324.33" stroke="#263238" stroke-linecap="round" stroke-linejoin="round"/>
<path d="M776.097 312.243C776.097 312.243 778.054 310.286 776.752 306.69" stroke="#263238" stroke-linecap="round" stroke-linejoin="round"/>
<path d="M773.485 315.51L771.855 312.898" stroke="#263238" stroke-linecap="round" stroke-linejoin="round"/>
<path d="M770.545 318.45C770.545 318.45 765.648 315.183 762.708 315.183" stroke="#263238" stroke-linecap="round" stroke-linejoin="round"/>
<path d="M818.862 385.39H793.62V421.72H818.862V385.39Z" fill="#263238" stroke="#263238" stroke-width="2" stroke-linecap="round" stroke-linejoin="round"/>
</svg>
