<svg width="1316" height="536" viewBox="0 0 1316 536" fill="none" xmlns="http://www.w3.org/2000/svg">
<mask id="mask0_8_4671" style="mask-type:alpha" maskUnits="userSpaceOnUse" x="0" y="0" width="1316" height="536">
<rect width="1316" height="536" fill="white"/>
</mask>
<g mask="url(#mask0_8_4671)">
<path d="M753.5 403.103C671.703 704.425 520.451 648.599 332.105 727.875C143.759 807.152 69.7601 811.576 -74.6476 701.4C-219.055 591.224 -285.649 376.413 -138.8 196.21C8.04963 16.0071 -18.3389 -128.295 92.845 -235.166C204.029 -342.037 345.171 -344.303 456.391 -194.368C567.61 -44.4323 854.29 31.5595 753.5 403.103Z" fill="#409B95"/>
<path opacity="0.7" d="M753.5 403.103C671.703 704.425 520.451 648.599 332.105 727.875C143.759 807.152 69.7601 811.576 -74.6476 701.4C-219.055 591.224 -285.649 376.413 -138.8 196.21C8.04963 16.0071 -18.3389 -128.295 92.845 -235.166C204.029 -342.037 345.171 -344.303 456.391 -194.368C567.61 -44.4323 854.29 31.5595 753.5 403.103Z" fill="white"/>
</g>
<path d="M1293.67 248.84C1288.43 223.21 1279.23 198.19 1268.29 175.19C1249.43 135.51 1218.53 102.56 1179 83C1082 35 1012 55 974 94C936 133 947 200 906 229C865 258 836 271 834 324C832 377 858 417 900 430C942 443 1005 485 1131 461C1257 437 1288 370 1296 322C1300 297.85 1298.62 273.07 1293.67 248.84Z" fill="#409B95"/>
<path opacity="0.7" d="M1293.67 248.84C1288.43 223.21 1279.23 198.19 1268.29 175.19C1249.43 135.51 1218.53 102.56 1179 83C1082 35 1012 55 974 94C936 133 947 200 906 229C865 258 836 271 834 324C832 377 858 417 900 430C942 443 1005 485 1131 461C1257 437 1288 370 1296 322C1300 297.85 1298.62 273.07 1293.67 248.84Z" fill="white"/>
<path d="M998.32 102.52H989.26V142.67H998.32V102.52Z" fill="#C9C9C9" stroke="#263238" stroke-linecap="round" stroke-linejoin="round"/>
<path d="M998.32 108.56H989.26V112.48H998.32V108.56Z" fill="white" stroke="#263238" stroke-linecap="round" stroke-linejoin="round"/>
<path d="M998.32 133.47H989.26V137.39H998.32V133.47Z" fill="white" stroke="#263238" stroke-linecap="round" stroke-linejoin="round"/>
<path d="M1008.89 102.52H996.21V142.67H1008.89V102.52Z" fill="#878787" stroke="#263238" stroke-linecap="round" stroke-linejoin="round"/>
<path d="M1007.99 102.52H998.93V142.67H1007.99V102.52Z" fill="#C9C9C9" stroke="#263238" stroke-linecap="round" stroke-linejoin="round"/>
<path d="M1007.99 108.56H998.93V112.48H1007.99V108.56Z" fill="white" stroke="#263238" stroke-linecap="round" stroke-linejoin="round"/>
<path d="M1007.99 133.47H998.93V137.39H1007.99V133.47Z" fill="white" stroke="#263238" stroke-linecap="round" stroke-linejoin="round"/>
<path d="M1018.55 102.52H1005.87V142.67H1018.55V102.52Z" fill="#878787" stroke="#263238" stroke-linecap="round" stroke-linejoin="round"/>
<path d="M1017.65 102.52H1008.59V142.67H1017.65V102.52Z" fill="#C9C9C9" stroke="#263238" stroke-linecap="round" stroke-linejoin="round"/>
<path d="M1017.65 108.56H1008.59V112.48H1017.65V108.56Z" fill="white" stroke="#263238" stroke-linecap="round" stroke-linejoin="round"/>
<path d="M1017.65 133.47H1008.59V137.39H1017.65V133.47Z" fill="white" stroke="#263238" stroke-linecap="round" stroke-linejoin="round"/>
<path d="M1028.21 102.52H1015.53V142.67H1028.21V102.52Z" fill="#C9C9C9" stroke="#263238" stroke-linecap="round" stroke-linejoin="round"/>
<path d="M1036.47 143.08H1057.75L1063.41 137.96H1036.47V143.08Z" fill="white" stroke="#263238" stroke-linecap="round" stroke-linejoin="round"/>
<path d="M1061 143.34L1060.32 142.17L1036.03 142.12L1036.73 143.34H1061Z" fill="white" stroke="#263238" stroke-linecap="round" stroke-linejoin="round"/>
<path d="M1024.15 103.356L1016.31 107.891L1036.41 142.648L1044.25 138.113L1024.15 103.356Z" fill="#C9C9C9" stroke="#263238" stroke-linecap="round" stroke-linejoin="round"/>
<path d="M1027.18 108.571L1019.33 113.106L1021.3 116.5L1029.14 111.964L1027.18 108.571Z" fill="white" stroke="#263238" stroke-linecap="round" stroke-linejoin="round"/>
<path d="M1039.65 130.132L1031.81 134.668L1033.77 138.061L1041.62 133.526L1039.65 130.132Z" fill="white" stroke="#263238" stroke-linecap="round" stroke-linejoin="round"/>
<path d="M1063.27 138.31L1044.04 138.26L1023.94 103.5L1043.17 103.55L1063.27 138.31Z" fill="#C9C9C9" stroke="#263238" stroke-linecap="round" stroke-linejoin="round"/>
<path d="M1073.75 122.75C1073.75 122.75 1070.25 121.5 1069.25 116C1068.25 110.5 1066.5 102.75 1068.5 101C1070.5 99.25 1074.25 98.25 1074.75 101.75C1075.25 105.25 1074.5 112 1075.25 113.5C1076 115 1078.5 114 1078.5 111C1078.5 106.06 1076.5 101 1077.21 96C1078.21 89.09 1085.21 88.33 1085.96 96C1086.38 100.24 1086.5 104.57 1086.5 108.83C1086.5 110.58 1089.5 111.58 1089.25 107.33C1089.07 104.33 1091.25 100.83 1094.25 101.83C1097.25 102.83 1094.75 116.08 1093.75 118.33C1092.75 120.58 1086.5 121 1086.5 121V126.75L1079 127L1078.75 121.25C1077.22 122.133 1075.51 122.646 1073.75 122.75Z" fill="#409B95" stroke="#263238" stroke-linecap="round" stroke-linejoin="round"/>
<path d="M1080.5 111.79C1080.59 113.04 1080.65 113.79 1080.65 113.79" stroke="#263238" stroke-linecap="round" stroke-linejoin="round"/>
<path d="M1081 92.4C1081 92.4 1079.36 93.54 1079.48 96.96C1079.56 99.04 1079.96 104.8 1080.27 109.01" stroke="#263238" stroke-linecap="round" stroke-linejoin="round"/>
<path d="M1083.82 104.19L1084.08 112.56" stroke="#263238" stroke-linecap="round" stroke-linejoin="round"/>
<path d="M1087.48 118C1086.9 118.09 1086.32 118.14 1085.73 118.15" stroke="#263238" stroke-linecap="round" stroke-linejoin="round"/>
<path d="M1092.7 103.94C1092.12 105.035 1091.82 106.252 1091.81 107.49C1091.81 109.49 1091.94 115.1 1090.67 116.62C1090.36 116.961 1089.98 117.234 1089.56 117.42" stroke="#263238" stroke-linecap="round" stroke-linejoin="round"/>
<path d="M1071 115.19C1071.3 116.693 1072.02 118.081 1073.08 119.19C1073.71 119.691 1074.48 119.974 1075.28 119.995C1076.08 120.017 1076.87 119.776 1077.52 119.31" stroke="#263238" stroke-linecap="round" stroke-linejoin="round"/>
<path d="M1070.76 101.66C1070.76 101.66 1068.23 101.66 1069.11 106.09C1069.49 107.96 1069.84 110.26 1070.29 112.43" stroke="#263238" stroke-linecap="round" stroke-linejoin="round"/>
<path d="M1080.27 118.52L1080.78 123.97" stroke="#263238" stroke-linecap="round" stroke-linejoin="round"/>
<path d="M1093.25 124.5L1092.34 131.96L1091.72 137.04L1091 142.95H1073.01L1072.29 137.04L1071.67 131.96L1070.76 124.5H1093.25Z" fill="white" stroke="#263238" stroke-linecap="round" stroke-linejoin="round"/>
<path d="M1092.34 131.96L1091.72 137.04H1072.29L1071.67 131.96H1092.34Z" fill="#409B95" stroke="#263238" stroke-linecap="round" stroke-linejoin="round"/>
<path d="M1103.13 142.95H987.66V150.6H1103.13V142.95Z" fill="white" stroke="#263238" stroke-linecap="round" stroke-linejoin="round"/>
<path d="M1103.13 142.95H1076.51V150.6H1103.13V142.95Z" fill="white" stroke="#263238" stroke-linecap="round" stroke-linejoin="round"/>
<path d="M1073.92 150.63C1086.29 155.19 1084.06 163.81 1084.06 163.81H1095.77V150.63H1073.92Z" fill="#919191" stroke="#263238" stroke-linecap="round" stroke-linejoin="round"/>
<path d="M1077.87 150.63C1090.23 155.19 1088 163.81 1088 163.81H1099.72V150.63H1077.87Z" fill="white" stroke="#263238" stroke-linecap="round" stroke-linejoin="round"/>
<path d="M994.67 150.63C1007.04 155.19 1004.81 163.81 1004.81 163.81H1016.52V150.63H994.67Z" fill="#919191" stroke="#263238" stroke-linecap="round" stroke-linejoin="round"/>
<path d="M998.62 150.63C1010.98 155.19 1008.75 163.81 1008.75 163.81H1020.47V150.63H998.62Z" fill="white" stroke="#263238" stroke-linecap="round" stroke-linejoin="round"/>
<path d="M1264.04 103.95H1160.48V247.71H1264.04V103.95Z" fill="#919191" stroke="#263238" stroke-linecap="round" stroke-linejoin="round"/>
<path d="M1259.55 110.19H1164.98V241.47H1259.55V110.19Z" fill="#409B95"/>
<path opacity="0.5" d="M1259.55 110.19H1164.98V241.47H1259.55V110.19Z" fill="white"/>
<path d="M1185.77 231.5C1183.23 235.368 1180.03 238.754 1176.31 241.5H1259.55V110.19H1244.21L1242.21 110.82C1227.21 115.55 1211.71 129.24 1202.92 154.12" stroke="#263238" stroke-linecap="round" stroke-linejoin="round"/>
<path d="M1201.46 158.48C1197.97 170.345 1196.04 182.616 1195.72 194.98C1195.17 209.82 1192.01 220.49 1187.79 228.16" stroke="#263238" stroke-linecap="round" stroke-linejoin="round"/>
<path d="M1250.3 143.51C1236.55 151.51 1220.54 164.95 1214.56 185.56C1211.35 196.56 1214.36 206.48 1220.31 214.97" stroke="#263238" stroke-linecap="round" stroke-linejoin="round"/>
<path d="M1223.53 219.11C1231.78 228.77 1243.53 236.37 1253.04 241.48H1259.55V138.66C1257.69 139.53 1255.71 140.51 1253.65 141.66" stroke="#263238" stroke-linecap="round" stroke-linejoin="round"/>
<path d="M1180.7 144.42C1187.94 129.66 1188.7 117.95 1187.87 110.19H1165V170.25C1168.38 165.44 1172.52 159.01 1177.52 150.39C1177.83 149.86 1178.12 149.39 1178.41 148.83" stroke="#263238" stroke-linecap="round" stroke-linejoin="round"/>
<path d="M1189.66 201.27C1188.55 208.54 1185.21 213.82 1181.27 213.82C1176.42 213.82 1172.48 205.82 1172.48 195.92C1172.48 186.02 1176.42 178.02 1181.27 178.02C1186.12 178.02 1190.06 186.02 1190.06 195.92" stroke="#263238" stroke-linecap="round" stroke-linejoin="round"/>
<path d="M1193.83 159.18C1193.83 162.99 1192.15 166.09 1190.06 166.09C1187.97 166.09 1186.3 162.99 1186.3 159.18C1186.3 155.37 1187.98 152.27 1190.06 152.27C1192.14 152.27 1193.83 155.36 1193.83 159.18Z" stroke="#263238" stroke-linecap="round" stroke-linejoin="round"/>
<path d="M1241.81 188.37C1245.44 190.1 1247.81 193.12 1247.81 196.55C1247.81 201.92 1241.91 206.28 1234.62 206.28C1227.33 206.28 1221.44 201.92 1221.44 196.55C1221.44 191.18 1227.34 186.81 1234.62 186.81C1235.78 186.809 1236.94 186.923 1238.08 187.15" stroke="#263238" stroke-linecap="round" stroke-linejoin="round"/>
<path d="M1240.18 196.55C1240.18 198.8 1237.71 200.63 1234.65 200.63C1231.59 200.63 1229.12 198.8 1229.12 196.55C1229.12 194.3 1231.6 192.46 1234.65 192.46C1237.7 192.46 1240.18 194.29 1240.18 196.55Z" stroke="#263238" stroke-linecap="round" stroke-linejoin="round"/>
<path d="M1249.1 171.74C1249.1 174.86 1246.01 177.39 1242.19 177.39C1238.37 177.39 1235.28 174.86 1235.28 171.74C1235.28 168.62 1238.37 166.09 1242.19 166.09C1246.01 166.09 1249.1 168.62 1249.1 171.74Z" stroke="#263238" stroke-linecap="round" stroke-linejoin="round"/>
<path d="M1199.17 140.34C1201.77 140.34 1203.88 135.138 1203.88 128.72C1203.88 122.302 1201.77 117.1 1199.17 117.1C1196.57 117.1 1194.46 122.302 1194.46 128.72C1194.46 135.138 1196.57 140.34 1199.17 140.34Z" stroke="#263238" stroke-linecap="round" stroke-linejoin="round"/>
<path d="M1212.05 228.58C1212.05 229.885 1211.66 231.161 1210.94 232.247C1210.21 233.332 1209.18 234.178 1207.98 234.678C1206.77 235.177 1205.44 235.308 1204.16 235.053C1202.88 234.799 1201.71 234.17 1200.78 233.247C1199.86 232.324 1199.23 231.148 1198.98 229.868C1198.72 228.587 1198.85 227.26 1199.35 226.054C1199.85 224.848 1200.7 223.818 1201.78 223.092C1202.87 222.367 1204.14 221.98 1205.45 221.98C1207.2 221.98 1208.88 222.675 1210.12 223.913C1211.35 225.151 1212.05 226.83 1212.05 228.58Z" stroke="#263238" stroke-linecap="round" stroke-linejoin="round"/>
<path d="M1242.82 130.6C1242.82 131.41 1242.58 132.202 1242.13 132.876C1241.69 133.55 1241.05 134.076 1240.3 134.387C1239.55 134.698 1238.73 134.779 1237.93 134.622C1237.14 134.464 1236.41 134.075 1235.84 133.502C1235.27 132.929 1234.88 132.2 1234.72 131.405C1234.56 130.611 1234.64 129.788 1234.95 129.04C1235.26 128.292 1235.79 127.654 1236.46 127.205C1237.14 126.756 1237.93 126.518 1238.74 126.52C1239.82 126.523 1240.86 126.953 1241.62 127.718C1242.39 128.482 1242.82 129.519 1242.82 130.6Z" stroke="#263238" stroke-linecap="round" stroke-linejoin="round"/>
<path d="M1217.07 159.49C1217.07 159.926 1216.94 160.352 1216.7 160.715C1216.46 161.078 1216.12 161.362 1215.72 161.53C1215.32 161.698 1214.87 161.743 1214.45 161.659C1214.02 161.575 1213.63 161.366 1213.32 161.059C1213.01 160.752 1212.8 160.36 1212.71 159.933C1212.63 159.506 1212.67 159.063 1212.84 158.66C1213 158.258 1213.28 157.914 1213.65 157.671C1214.01 157.429 1214.43 157.3 1214.87 157.3C1215.16 157.299 1215.44 157.354 1215.71 157.464C1215.98 157.573 1216.22 157.734 1216.42 157.938C1216.63 158.141 1216.79 158.383 1216.9 158.65C1217.01 158.916 1217.07 159.202 1217.07 159.49Z" stroke="#263238" stroke-linecap="round" stroke-linejoin="round"/>
<path d="M1259.55 110.19H1164.98V241.47H1259.55V110.19Z" stroke="#263238" stroke-linecap="round" stroke-linejoin="round"/>
<path d="M1104.99 297.39H1079.3V307.06H1104.99V297.39Z" fill="#263238" stroke="#263238" stroke-linecap="round" stroke-linejoin="round"/>
<path d="M1139.46 298.85H1037.21L1042.05 219.59H1144.31L1139.46 298.85Z" fill="#919191" stroke="#263238" stroke-linecap="round" stroke-linejoin="round"/>
<path d="M1136.53 298.85H1034.28L1039.12 219.59H1141.37L1136.53 298.85Z" fill="#263238" stroke="#263238" stroke-linecap="round" stroke-linejoin="round"/>
<path d="M1131.12 294.44H1040.23L1044.53 223.99H1135.42L1131.12 294.44Z" fill="white" stroke="#263238" stroke-linecap="round" stroke-linejoin="round"/>
<path d="M1104.68 283.94H1042.94L1046.25 229.65H1108L1104.68 283.94Z" fill="#919191" stroke="#263238" stroke-linecap="round" stroke-linejoin="round"/>
<path d="M1067.3 260.62C1067.3 260.62 1054.44 265.71 1054.36 267.08C1054.28 268.45 1051.76 283.94 1051.76 283.94H1090L1086.78 266.1L1072.63 260.22L1067.3 260.62Z" fill="white" stroke="#263238" stroke-linecap="round" stroke-linejoin="round"/>
<path d="M1067.68 257.48C1066.71 257.735 1065.81 258.203 1065.05 258.85C1064.05 259.85 1062.83 263.16 1062.83 263.16L1062.78 267.08L1067.85 264.34L1073 264L1077.82 268.51L1078.44 261.65C1078.44 261.65 1077.7 257.73 1076.14 257.53C1074.58 257.33 1067.68 257.48 1067.68 257.48Z" fill="white" stroke="#263238" stroke-linecap="round" stroke-linejoin="round"/>
<path d="M1067.52 253.76L1067.3 260.62L1070.33 265.52L1075.34 260.42L1076.12 254.15L1067.52 253.76Z" fill="white" stroke="#263238" stroke-linecap="round" stroke-linejoin="round"/>
<path d="M1079.88 245.74C1079.52 251.49 1075.7 258.46 1071.51 258.46C1067.32 258.46 1064.35 251.46 1064.7 245.74C1065.05 240.02 1068.7 235.33 1072.92 235.33C1077.14 235.33 1080.23 240 1079.88 245.74Z" fill="white" stroke="#263238" stroke-linecap="round" stroke-linejoin="round"/>
<path d="M1064.63 246.5C1064.63 246.5 1063.28 242.98 1062.72 245.72C1062.16 248.46 1064.92 251.4 1064.92 251.4L1064.63 246.5Z" fill="white" stroke="#263238" stroke-linecap="round" stroke-linejoin="round"/>
<path d="M1079.88 245.74C1079.88 245.74 1083.19 244.35 1082.22 247.29C1081.97 248.122 1081.54 248.888 1080.96 249.532C1080.38 250.176 1079.66 250.681 1078.86 251.01L1079.88 245.74Z" fill="white" stroke="#263238" stroke-linecap="round" stroke-linejoin="round"/>
<path d="M1071.1 246.5C1071.13 246.147 1071.08 245.792 1070.96 245.459C1070.84 245.125 1070.66 244.819 1070.41 244.562C1070.17 244.304 1069.88 244.099 1069.55 243.961C1069.23 243.823 1068.87 243.755 1068.52 243.76C1067.78 243.779 1067.08 244.069 1066.54 244.575C1066.01 245.08 1065.67 245.766 1065.61 246.5C1065.58 246.854 1065.63 247.209 1065.75 247.543C1065.87 247.877 1066.05 248.183 1066.3 248.442C1066.54 248.7 1066.83 248.906 1067.16 249.045C1067.48 249.184 1067.84 249.254 1068.19 249.25C1068.93 249.23 1069.63 248.939 1070.17 248.431C1070.71 247.924 1071.04 247.236 1071.1 246.5Z" fill="white" stroke="#263238" stroke-linecap="round" stroke-linejoin="round"/>
<path d="M1077.76 246.5L1080.75 245.72" stroke="#263238" stroke-linecap="round" stroke-linejoin="round"/>
<path d="M1077.76 246.5C1077.79 246.148 1077.74 245.794 1077.62 245.461C1077.5 245.128 1077.32 244.823 1077.08 244.565C1076.84 244.308 1076.54 244.103 1076.22 243.965C1075.89 243.826 1075.54 243.756 1075.19 243.76C1074.45 243.777 1073.74 244.066 1073.21 244.572C1072.67 245.077 1072.33 245.764 1072.27 246.5C1072.24 246.854 1072.29 247.209 1072.41 247.543C1072.53 247.877 1072.71 248.183 1072.96 248.442C1073.2 248.7 1073.49 248.906 1073.82 249.045C1074.14 249.184 1074.5 249.254 1074.85 249.25C1075.59 249.23 1076.29 248.939 1076.83 248.431C1077.37 247.924 1077.7 247.236 1077.76 246.5Z" fill="white" stroke="#263238" stroke-linecap="round" stroke-linejoin="round"/>
<path d="M1072.24 234.15C1072.24 234.15 1069.24 232.59 1066.99 233.57C1064.74 234.55 1063.08 239.84 1063.19 241.21C1063.54 243.006 1064.02 244.773 1064.63 246.5L1067.01 239.64L1073.25 236.9L1072.24 234.15Z" fill="#263238" stroke="#263238" stroke-linecap="round" stroke-linejoin="round"/>
<path d="M1069.22 235.53C1069.22 235.53 1074.16 231.61 1078.16 233.53C1079.38 234.062 1080.4 234.987 1081.04 236.159C1081.67 237.331 1081.91 238.683 1081.69 240C1081.63 241 1081.55 245.48 1081.55 245.48L1079.17 245.88L1078 242.19C1076.65 241.655 1075.33 241.034 1074.06 240.33C1074.06 240.33 1068.77 239.64 1069.22 235.53Z" fill="#263238" stroke="#263238" stroke-linecap="round" stroke-linejoin="round"/>
<path d="M1071.1 246.5L1070.75 252.19H1072.12" fill="white"/>
<path d="M1071.1 246.5L1070.75 252.19H1072.12" stroke="#263238" stroke-linecap="round" stroke-linejoin="round"/>
<path d="M1070.03 254.34H1072.97" stroke="#263238" stroke-linecap="round" stroke-linejoin="round"/>
<path d="M1070.33 265.52L1069.24 283.35" stroke="#263238" stroke-linecap="round" stroke-linejoin="round"/>
<path d="M1086.76 266.1C1086.76 266.1 1082.67 275.32 1082.55 277.28C1082.43 279.24 1081.97 283.55 1081.97 283.55" stroke="#263238" stroke-linecap="round" stroke-linejoin="round"/>
<path d="M1054.36 267.08C1054.36 267.08 1058.43 274.14 1058.96 275.08C1059.49 276.02 1058.84 283.51 1058.84 283.51" stroke="#263238" stroke-linecap="round" stroke-linejoin="round"/>
<path d="M1089.49 272.77L1090.84 266.69L1093.14 264.34L1095.31 260.81H1096.29L1095.09 264.54L1098.13 262.77L1100.09 259.64L1101.23 260.22L1098.43 267.48L1093.99 269.63L1093.22 272.57L1089.49 272.77Z" fill="white" stroke="#263238" stroke-linecap="round" stroke-linejoin="round"/>
<path d="M1093.29 283.94L1093.66 271.79L1089.2 271L1085.68 283.94H1093.29Z" fill="white" stroke="#263238" stroke-linecap="round" stroke-linejoin="round"/>
<path d="M1104.41 288.45H1042.66L1042.94 283.94H1104.68L1104.41 288.45Z" fill="white" stroke="#263238" stroke-linecap="round" stroke-linejoin="round"/>
<path d="M1045.18 285.71H1101.83" stroke="#263238" stroke-linecap="round" stroke-linejoin="round"/>
<path d="M1131.22 244.14H1110.44L1111.32 229.83H1132.1L1131.22 244.14Z" fill="#409B95" stroke="#263238" stroke-linecap="round" stroke-linejoin="round"/>
<path d="M1131.22 244.14H1110.44L1110.59 241.79H1131.37L1131.22 244.14Z" fill="white" stroke="#263238" stroke-linecap="round" stroke-linejoin="round"/>
<path d="M1124.51 236.15L1119.11 232.92L1118.72 239.38L1124.51 236.15Z" fill="white" stroke="#263238" stroke-linecap="round" stroke-linejoin="round"/>
<path d="M1129.87 266.29H1109.09L1109.96 251.99H1130.74L1129.87 266.29Z" fill="#409B95" stroke="#263238" stroke-linecap="round" stroke-linejoin="round"/>
<path d="M1129.87 266.29H1109.09L1109.24 263.94H1130.01L1129.87 266.29Z" fill="white" stroke="#263238" stroke-linecap="round" stroke-linejoin="round"/>
<path d="M1123.16 258.31L1117.76 255.08L1117.37 261.54L1123.16 258.31Z" fill="white" stroke="#263238" stroke-linecap="round" stroke-linejoin="round"/>
<path d="M1128.51 288.45H1107.74L1108.61 274.14H1129.39L1128.51 288.45Z" fill="#409B95" stroke="#263238" stroke-linecap="round" stroke-linejoin="round"/>
<path d="M1128.51 288.45H1107.74L1107.88 286.1H1128.66L1128.51 288.45Z" fill="white" stroke="#263238" stroke-linecap="round" stroke-linejoin="round"/>
<path d="M1121.8 280.46L1116.41 277.23L1116.01 283.69L1121.8 280.46Z" fill="white" stroke="#263238" stroke-linecap="round" stroke-linejoin="round"/>
<path d="M1110.5 246.5H1130.68" stroke="#263238" stroke-linecap="round" stroke-linejoin="round"/>
<path d="M1110.35 248.86H1130.54" stroke="#263238" stroke-linecap="round" stroke-linejoin="round"/>
<path d="M1109.13 268.85H1129.32" stroke="#263238" stroke-linecap="round" stroke-linejoin="round"/>
<path d="M1108.99 271.2H1129.18" stroke="#263238" stroke-linecap="round" stroke-linejoin="round"/>
<path d="M1100.18 307.06H1085C1085 305.546 1085.6 304.093 1086.67 303.022C1087.74 301.952 1089.2 301.35 1090.71 301.35H1094.45C1095.96 301.35 1097.42 301.952 1098.49 303.022C1099.56 304.093 1100.16 305.546 1100.16 307.06H1100.18Z" fill="white" stroke="#263238" stroke-linecap="round" stroke-linejoin="round"/>
<path d="M1077.77 303.95H1003.55V307.06H1077.77V303.95Z" fill="#919191" stroke="#263238" stroke-linecap="round" stroke-linejoin="round"/>
<path d="M1077.75 303.95H1059.1V307.06H1077.75V303.95Z" fill="white" stroke="#263238" stroke-linecap="round" stroke-linejoin="round"/>
<path d="M973.13 154.63V95.54" stroke="#263238" stroke-linecap="round" stroke-linejoin="round"/>
<path d="M973.13 450.36V160.51" stroke="#263238" stroke-linecap="round" stroke-linejoin="round"/>
<path d="M1108.07 327.8L1117.07 449.13C1117.12 449.573 1117.33 449.981 1117.67 450.272C1118.01 450.563 1118.44 450.714 1118.89 450.695C1119.33 450.676 1119.75 450.488 1120.06 450.169C1120.37 449.85 1120.55 449.425 1120.56 448.98L1119.21 327.8H1108.07Z" fill="#919191" stroke="#263238" stroke-linecap="round" stroke-linejoin="round"/>
<path d="M1114.86 327.8L1119.61 450.53C1119.89 450.38 1120.12 450.157 1120.29 449.883C1120.45 449.61 1120.53 449.298 1120.53 448.98L1119.21 327.8H1114.86Z" fill="white" stroke="#263238" stroke-linecap="round" stroke-linejoin="round"/>
<path d="M1164.64 327.8L1173.64 449.13C1173.69 449.573 1173.9 449.981 1174.24 450.272C1174.58 450.563 1175.01 450.714 1175.46 450.695C1175.9 450.676 1176.32 450.488 1176.63 450.169C1176.94 449.85 1177.12 449.425 1177.13 448.98L1175.78 327.8H1164.64Z" fill="#919191" stroke="#263238" stroke-linecap="round" stroke-linejoin="round"/>
<path d="M1170.9 327.8L1176.44 450.35C1176.65 450.188 1176.82 449.979 1176.93 449.742C1177.04 449.504 1177.1 449.244 1177.1 448.98L1175.78 327.8H1170.9Z" fill="white" stroke="#263238" stroke-linecap="round" stroke-linejoin="round"/>
<path d="M1015.52 329.12L1006.52 449.12C1006.49 449.56 1006.29 449.973 1005.97 450.273C1005.65 450.574 1005.22 450.741 1004.78 450.74C1004.55 450.744 1004.32 450.702 1004.1 450.616C1003.89 450.531 1003.69 450.404 1003.53 450.242C1003.36 450.08 1003.23 449.887 1003.14 449.674C1003.05 449.46 1003 449.232 1003 449L1004.33 328.8L1015.52 329.12Z" fill="#263238" stroke="#263238" stroke-linecap="round" stroke-linejoin="round"/>
<path d="M959 329.12L950 449.12C949.97 449.56 949.773 449.973 949.45 450.273C949.127 450.574 948.702 450.741 948.26 450.74C948.029 450.739 947.801 450.692 947.589 450.602C947.376 450.512 947.184 450.381 947.022 450.217C946.86 450.052 946.733 449.858 946.647 449.644C946.56 449.43 946.517 449.201 946.52 448.97L947.85 328.77L959 329.12Z" fill="#263238" stroke="#263238" stroke-linecap="round" stroke-linejoin="round"/>
<path d="M1179.09 309.88H944.46V328.78H1179.09V309.88Z" fill="#919191" stroke="#263238" stroke-linecap="round" stroke-linejoin="round"/>
<path d="M1179.09 309.88H1111.85V328.78H1179.09V309.88Z" fill="white" stroke="#263238" stroke-linecap="round" stroke-linejoin="round"/>
<path d="M1179.09 312.88H944.46V318.09H1179.09V312.88Z" fill="#263238" stroke="#263238" stroke-linecap="round" stroke-linejoin="round"/>
<path d="M1182.47 307.17H941.08V313.49H1182.47V307.17Z" fill="#919191" stroke="#263238" stroke-linecap="round" stroke-linejoin="round"/>
<path d="M1182.46 307.17H1116.17V313.49H1182.46V307.17Z" fill="white" stroke="#263238" stroke-linecap="round" stroke-linejoin="round"/>
<path d="M1111.29 190H1078.71C1077.01 190 1075.38 190.674 1074.18 191.875C1072.98 193.075 1072.31 194.703 1072.31 196.4V208.4C1072.31 209.241 1072.47 210.074 1072.79 210.851C1073.12 211.628 1073.59 212.334 1074.18 212.928C1074.78 213.523 1075.48 213.994 1076.26 214.316C1077.04 214.637 1077.87 214.801 1078.71 214.8H1095.77L1089.38 232.65L1101.62 214.8H1111.29C1112.13 214.801 1112.96 214.637 1113.74 214.316C1114.52 213.994 1115.22 213.523 1115.82 212.928C1116.41 212.334 1116.88 211.628 1117.21 210.851C1117.53 210.074 1117.69 209.241 1117.69 208.4V196.4C1117.69 194.703 1117.02 193.075 1115.82 191.875C1114.62 190.674 1112.99 190 1111.29 190Z" fill="white" stroke="#263238" stroke-linecap="round" stroke-linejoin="round"/>
<path d="M1086.27 205.13C1087.56 205.13 1088.6 204.087 1088.6 202.8C1088.6 201.513 1087.56 200.47 1086.27 200.47C1084.98 200.47 1083.94 201.513 1083.94 202.8C1083.94 204.087 1084.98 205.13 1086.27 205.13Z" fill="#263238"/>
<path d="M1095 205.13C1096.29 205.13 1097.33 204.087 1097.33 202.8C1097.33 201.513 1096.29 200.47 1095 200.47C1093.71 200.47 1092.67 201.513 1092.67 202.8C1092.67 204.087 1093.71 205.13 1095 205.13Z" fill="#263238"/>
<path d="M1106.05 202.8C1106.05 202.339 1105.91 201.888 1105.66 201.504C1105.4 201.121 1105.04 200.822 1104.61 200.646C1104.18 200.47 1103.71 200.425 1103.26 200.516C1102.81 200.606 1102.39 200.829 1102.07 201.156C1101.74 201.483 1101.52 201.899 1101.43 202.352C1101.34 202.804 1101.39 203.273 1101.57 203.699C1101.75 204.124 1102.05 204.487 1102.43 204.742C1102.82 204.997 1103.27 205.132 1103.73 205.13C1104.04 205.13 1104.34 205.07 1104.62 204.952C1104.9 204.835 1105.16 204.663 1105.37 204.447C1105.59 204.23 1105.76 203.974 1105.88 203.691C1105.99 203.408 1106.05 203.106 1106.05 202.8Z" fill="#263238"/>
<path d="M1266 451H1293" stroke="#263238" stroke-linecap="round" stroke-linejoin="round"/>
<path d="M840 451H1252" stroke="#263238" stroke-linecap="round" stroke-linejoin="round"/>
<path d="M998.64 274.28C995.71 269.28 987.09 250.03 987.09 250.03C987.35 247.973 987.771 245.94 988.35 243.95C989.06 241.95 990.85 235.89 990.49 234.63C990.13 233.37 984.94 231.05 984.41 230.87C983.88 230.69 985.12 227.65 983.15 226.93C981.18 226.21 980.47 227.29 980.47 227.29L979.72 232.29L977.42 235.89C976.462 235.162 975.46 234.494 974.42 233.89C972.81 232.99 969.05 232.63 968.87 234.07C968.69 235.51 971.87 236.75 972.98 237.65C974.09 238.55 975.49 242.84 976.75 244.1C977.895 245.35 978.97 246.662 979.97 248.03L980.69 250.36C980.69 250.36 983.14 273.95 983.43 279.82C983.72 285.69 984.6 301.22 986.36 303.56C988.12 305.9 988.42 307.38 993.36 305.62C998.3 303.86 999.22 301.51 1000.36 296.23C1001.5 290.95 1001.57 279.26 998.64 274.28Z" fill="white" stroke="#263238" stroke-linecap="round" stroke-linejoin="round"/>
<path d="M1000.4 296.26C1001.57 290.99 1001.57 279.26 998.64 274.26C998.32 273.71 997.93 273 997.49 272.16C990.86 270.23 984.56 273.38 984.56 273.38L982.96 274.08C983.17 276.53 983.33 278.58 983.39 279.83C983.69 285.69 984.56 301.23 986.32 303.57C988.08 305.91 988.38 307.39 993.32 305.63C998.26 303.87 999.22 301.54 1000.4 296.26Z" fill="#409B95" stroke="#263238" stroke-linecap="round" stroke-linejoin="round"/>
<path d="M977.26 195C977.982 197.653 978.385 200.382 978.46 203.13C978.46 207.04 977.26 209.45 979.07 210.65C980.88 211.85 982.38 211.86 982.07 214.27C981.951 215.6 981.424 216.861 980.56 217.88C980.56 217.88 979.96 230.22 979.36 231.43C978.76 232.64 970.93 231.13 969.12 230.82C967.31 230.51 962.2 232.93 958.88 226.31C955.56 219.69 958.28 209.75 964.3 204.63C968.441 201.186 972.767 197.971 977.26 195Z" fill="white" stroke="#263238" stroke-linecap="round" stroke-linejoin="round"/>
<path d="M978.46 203.08C978.46 203.08 976.83 201.86 975.97 204" stroke="#263238" stroke-linecap="round" stroke-linejoin="round"/>
<path d="M977 208.06C976.766 209.273 976.842 210.524 977.22 211.7" stroke="#263238" stroke-linecap="round" stroke-linejoin="round"/>
<path d="M980 222.2C979.733 222.286 979.451 222.314 979.172 222.284C978.893 222.253 978.623 222.165 978.381 222.023C978.138 221.882 977.928 221.691 977.765 221.463C977.601 221.235 977.487 220.975 977.43 220.7" stroke="#263238" stroke-linecap="round" stroke-linejoin="round"/>
<path d="M983.41 278.8C983.41 278.8 982.41 283.38 981.52 285.8C980.63 288.22 964.67 292.66 957.72 293.58C953.142 294.152 948.534 294.456 943.92 294.49L944.36 307.15C944.36 307.15 957.82 307.42 958.77 307.15C959.72 306.88 982.38 296.75 982.38 296.75L992.16 295.47C992.16 295.47 996.27 294.47 996.43 291.28C996.59 288.09 992.96 279.02 991.31 277.61C989.66 276.2 986.18 272.46 984.09 274.76C982 277.06 983.41 278.8 983.41 278.8Z" fill="white" stroke="#263238" stroke-linecap="round" stroke-linejoin="round"/>
<path d="M953.4 301.53C953.4 296.06 954.8 295.92 956.4 293.75C952.266 294.212 948.11 294.459 943.95 294.49L943.62 306.11C943.62 306.11 950.99 306.79 955.48 307.11C955.11 307.68 953.4 305.05 953.4 301.53Z" fill="#409B95" stroke="#263238" stroke-linecap="round" stroke-linejoin="round"/>
<path d="M996.86 326.13C991.535 320.146 984.767 315.626 977.2 313L959.64 320.49C958.276 317.142 956.467 313.993 954.26 311.13L950.98 307.13L953.09 295.66C953.09 295.66 965.73 287 967.36 283.25L967.42 283.13C969.96 287.06 980.98 304.07 983.05 305.72C985.39 307.6 992.41 307.83 995.45 305.02C998.49 302.21 999.9 300.34 999.2 296.13C999.2 296.13 994.52 286.06 991.94 281.61C989.36 277.16 983.75 261.25 980.94 256.33C978.94 252.81 978.11 250.33 976.69 248.67C975.704 246.972 974.541 245.383 973.22 243.93C970.41 240.93 962.68 240.18 961.04 239.48C959.4 238.78 959.17 238.54 949.81 235.74C940.45 232.94 929.91 231.29 922.42 237.14C922.42 237.14 912.36 249.08 908.42 268.74C904.48 288.4 904.2 308.3 903.74 311.81C903.28 315.32 899.29 332.41 898.12 342.24C896.95 352.07 907.21 361.94 913.53 365C919.85 368.06 947 368.51 962.92 365C978.84 361.49 1004.12 345.57 1004.12 345.57C1004.12 345.57 1005.05 335.73 996.86 326.13Z" fill="#409B95" stroke="#263238" stroke-linecap="round" stroke-linejoin="round"/>
<path d="M955.47 282.88L952.26 282.77" stroke="#263238" stroke-linecap="round" stroke-linejoin="round"/>
<path d="M954.26 277.77C958.757 279.285 963.135 281.13 967.36 283.29L959.12 283.01" stroke="#263238" stroke-linecap="round" stroke-linejoin="round"/>
<path d="M997.75 283.68C998.674 285.131 999.242 286.778 999.41 288.49C999.41 290.7 999.78 293.66 998.86 292.74C997.94 291.82 997.56 288.67 997.56 288.67L997.75 283.68Z" fill="white" stroke="#263238" stroke-linecap="round" stroke-linejoin="round"/>
<path d="M992.21 281.1C992.21 281.1 995.67 279.22 997.21 281.48C998.75 283.74 998.34 288.25 997.21 290.48C996.08 292.71 994.79 290.58 994.95 288.6C995.11 286.62 992.21 281.1 992.21 281.1Z" fill="white" stroke="#263238" stroke-linecap="round" stroke-linejoin="round"/>
<path d="M990.91 278.7C990.91 278.7 994.38 276.82 995.91 279.08C997.44 281.34 997.03 285.84 995.91 288.08C994.79 290.32 993.49 288.18 993.65 286.2C993.81 284.22 990.91 278.7 990.91 278.7Z" fill="white" stroke="#263238" stroke-linecap="round" stroke-linejoin="round"/>
<path d="M989.32 276.11C989.32 276.11 992.79 274.23 994.32 276.49C995.85 278.75 995.45 283.26 994.32 285.49C993.19 287.72 991.9 285.59 992.06 283.61C992.22 281.63 989.32 276.11 989.32 276.11Z" fill="white" stroke="#263238" stroke-linecap="round" stroke-linejoin="round"/>
<path d="M980.54 185.61C980.598 189.204 979.671 192.745 977.86 195.85C972.74 203.68 967.93 202.77 965.86 209.1C963.79 215.43 960.7 222 964 225.66C967.3 229.32 970 227.16 970 227.16C970 227.16 972.11 232.58 966.69 238C961.27 243.42 951.94 241.31 949.53 240.41C948.012 239.825 946.593 239.013 945.32 238C945.32 238 943.81 242.22 936.32 242.22C928.83 242.22 920.32 237.1 920.32 227.76C920.32 218.42 925.43 212.11 926.64 208.49C927.85 204.87 924.53 193.74 929.64 186.82C934.75 179.9 942.64 174.82 948.64 174.82C954.64 174.82 966.35 178.11 966.4 178.13C967.19 178.56 972.25 176.5 973.62 176.59C978.65 176.87 980.48 181 980.54 185.61Z" fill="#263238" stroke="#263238" stroke-linecap="round" stroke-linejoin="round"/>
<path d="M961 228.44C962.092 228.586 963.198 228.586 964.29 228.44" stroke="#919191" stroke-linecap="round" stroke-linejoin="round"/>
<path d="M976.2 190.86C975.725 193.541 974.737 196.104 973.29 198.41C968.61 205.76 963.29 208.41 956.92 215.41C952.83 219.94 953.6 224.46 956.92 226.83" stroke="#919191" stroke-linecap="round" stroke-linejoin="round"/>
<path d="M976.29 183.05C976.485 184.153 976.582 185.27 976.58 186.39" stroke="#919191" stroke-linecap="round" stroke-linejoin="round"/>
<path d="M970 190.06C970 190.06 969 200.41 964.66 206.42C960.32 212.43 951.66 215.42 951.97 221.78" stroke="#919191" stroke-linecap="round" stroke-linejoin="round"/>
<path d="M1010.3 363.31C1010.3 363.31 1016.54 395.37 1021.88 410.95C1027.22 426.53 1032.56 440.78 1033.88 442.12C1035.2 443.46 1038.78 448.35 1038.78 448.35C1037.13 449.671 1035.1 450.45 1032.99 450.58C1029.87 450.58 1025.87 446.58 1022.3 444.34C1018.73 442.1 1018.3 440.78 1011.17 438.11C1004.04 435.44 1009.84 428.32 1011.62 424.75C1012.65 422.823 1013.26 420.7 1013.4 418.52C1010.57 408.493 1005.55 399.217 998.71 391.36C987.6 378.9 985.37 350 985.37 350L1006.74 342L1010.3 363.31Z" fill="white" stroke="#263238" stroke-linecap="round" stroke-linejoin="round"/>
<path d="M1033 440.52L1031.71 440.78C1031.71 440.78 1024.14 430.54 1018.36 426.98C1016.39 425.62 1014.07 424.85 1011.68 424.76C1009.89 428.32 1004.11 435.44 1011.23 438.11C1018.35 440.78 1018.8 442.11 1022.36 444.34C1025.92 446.57 1029.93 450.58 1033.05 450.58C1035.16 450.45 1037.19 449.671 1038.84 448.35C1038.84 448.35 1035.27 443.45 1033.94 442.12C1033.56 441.628 1033.25 441.09 1033 440.52Z" fill="#409B95" stroke="#263238" stroke-linecap="round" stroke-linejoin="round"/>
<path d="M1029.41 449.31C1025.89 446.88 1022.71 441.48 1016.98 438.11C1011.77 435.05 1009.09 434.93 1007.98 435.16C1008.25 435.874 1008.69 436.514 1009.26 437.027C1009.82 437.539 1010.5 437.911 1011.24 438.11C1018.37 440.78 1018.81 442.11 1022.37 444.34C1024.62 445.78 1027.1 448 1029.41 449.31Z" fill="#409B95" stroke="#263238" stroke-linecap="round" stroke-linejoin="round"/>
<path d="M1033 450.58C1032.77 450.572 1032.54 450.548 1032.32 450.51C1032.54 450.553 1032.77 450.576 1033 450.58Z" fill="#409B95" stroke="#263238" stroke-linecap="round" stroke-linejoin="round"/>
<path d="M970.62 315C970.62 315 992.02 307.42 994.02 312.42C996.02 317.42 1005.18 336.07 1001.84 343.73C998.5 351.39 975.02 321.73 971.68 321.09C968.34 320.45 970.23 317.24 970.62 315Z" fill="white" stroke="#263238" stroke-linecap="round" stroke-linejoin="round"/>
<path d="M991.59 324.77C991.59 324.77 1015.92 322.77 1020.59 327.11C1025.26 331.45 1009.26 383.44 1000.59 399.77C987 425.31 991.11 432 991.11 432C991.11 432 992.11 436 998.78 442.34C1005.45 448.68 1007.45 449.67 1005.11 450.67C1002.77 451.67 992.78 450.67 991.78 450C990.78 449.33 983.45 443.34 976.78 441.34C970.11 439.34 971.11 438 974.11 432C977.11 426 976.78 431 980.11 420.67C984.102 407.94 987.255 394.962 989.55 381.82C991.32 371.11 994.02 359.35 993.26 348.46L991.59 324.77Z" fill="white" stroke="#263238" stroke-linecap="round" stroke-linejoin="round"/>
<path d="M1009.41 341.05C1006.86 334.903 1002.48 329.693 996.86 326.13C986.22 319.34 977.2 313 977.2 313L959.64 320.49C959.64 320.49 963.92 327.75 941.92 331.42C924.98 334.24 909.43 330.15 901.04 325.22C899.87 331.03 898.65 337.49 898.04 342.22C896.87 352.05 907.17 361.88 913.49 364.93C919.81 367.98 970.73 374.29 984.44 365.48C1009.41 349.51 1009.41 341.05 1009.41 341.05Z" fill="#263238" stroke="#263238" stroke-linecap="round" stroke-linejoin="round"/>
<path d="M957.65 326C955.3 327.93 950.72 330 941.92 331.43C924.98 334.25 909.43 330.16 901.04 325.23C900.74 326.72 900.44 328.23 900.14 329.78C905.89 333.24 917.97 339.1 931.59 337.43C947.84 335.44 955.06 331 957.65 326Z" fill="#409B95" stroke="#263238" stroke-linecap="round" stroke-linejoin="round"/>
<path d="M944.67 347.42C943.89 348.42 943.08 349.42 942.26 350.42" stroke="white" stroke-linecap="round" stroke-linejoin="round"/>
<path d="M956.92 328.44C953.843 334.099 950.409 339.556 946.64 344.78" stroke="white" stroke-linecap="round" stroke-linejoin="round"/>
<path d="M949.59 334.77C949.59 334.77 943.59 342.77 937.26 347.44" stroke="white" stroke-linecap="round" stroke-linejoin="round"/>
<path d="M998.78 442.32C992.11 436 991.11 432 991.11 432C990.887 431.793 990.709 431.54 990.59 431.26C990.14 431.73 988.78 432.62 985.45 431.34C982.56 430.23 979.82 428.34 976.93 427.07C976.24 428.3 975.57 429.07 974.11 432C971.11 438 970.11 439.34 976.78 441.34C983.45 443.34 990.78 449.34 991.78 450C992.78 450.66 1002.78 451.67 1005.11 450.67C1007.44 449.67 1005.45 448.65 998.78 442.32Z" fill="#409B95" stroke="#263238" stroke-linecap="round" stroke-linejoin="round"/>
<path d="M1004.92 344.44L1016.26 337.44" stroke="#263238" stroke-linecap="round" stroke-linejoin="round"/>
<path d="M869.45 281.06C869.45 281.06 905.57 276.54 928.65 283.06L932.16 370.87H878C878 370.87 881.49 323.7 869.45 281.06Z" fill="#919191" stroke="#263238" stroke-linecap="round" stroke-linejoin="round"/>
<path d="M928.65 283.06C905.57 276.54 869.45 281.06 869.45 281.06C873.315 295.271 875.882 309.804 877.12 324.48C897.289 334.551 915.761 347.709 931.87 363.48L928.65 283.06Z" fill="#757575" stroke="#263238" stroke-linecap="round" stroke-linejoin="round"/>
<path d="M996.76 453C996.351 453.001 995.952 452.877 995.616 452.645C995.28 452.413 995.023 452.083 994.88 451.7C986.88 430.14 984.88 374.17 984.76 371.8C984.741 371.27 984.934 370.754 985.296 370.365C985.658 369.977 986.16 369.749 986.69 369.73C987.22 369.711 987.737 369.904 988.125 370.266C988.513 370.628 988.741 371.13 988.76 371.66C988.76 372.24 990.84 429.35 998.63 450.3C998.814 450.797 998.793 451.347 998.572 451.829C998.351 452.311 997.947 452.686 997.45 452.87C997.23 452.957 996.996 453.001 996.76 453Z" fill="white" stroke="#263238" stroke-linecap="round" stroke-linejoin="round"/>
<path d="M953.21 453C952.803 452.999 952.406 452.874 952.072 452.642C951.738 452.41 951.482 452.081 951.34 451.7C943.34 430.14 941.34 374.17 941.21 371.8C941.191 371.27 941.384 370.754 941.746 370.365C942.108 369.977 942.61 369.749 943.14 369.73C943.67 369.711 944.186 369.904 944.575 370.266C944.963 370.628 945.191 371.13 945.21 371.66C945.21 372.24 947.29 429.35 955.09 450.3C955.274 450.797 955.253 451.347 955.032 451.829C954.811 452.311 954.407 452.686 953.91 452.87C953.687 452.957 953.449 453.001 953.21 453Z" fill="white" stroke="#263238" stroke-linecap="round" stroke-linejoin="round"/>
<path d="M996.22 370.83H877.05V366.83H992.24C993.301 366.83 994.318 367.251 995.068 368.002C995.819 368.752 996.24 369.769 996.24 370.83H996.22Z" fill="#919191" stroke="#263238" stroke-linecap="round" stroke-linejoin="round"/>
<path d="M996.21 369.86H877.05V373.83H996.21V369.86Z" fill="white" stroke="#263238" stroke-linecap="round" stroke-linejoin="round"/>
<path d="M927.76 453C927.459 453.006 927.161 452.945 926.887 452.82C926.613 452.695 926.371 452.509 926.178 452.278C925.986 452.046 925.849 451.774 925.776 451.482C925.704 451.189 925.698 450.885 925.76 450.59C937.07 397.01 926.76 284.34 926.62 283.21C926.596 282.947 926.623 282.682 926.702 282.431C926.78 282.179 926.907 281.945 927.075 281.742C927.244 281.539 927.45 281.371 927.684 281.248C927.917 281.125 928.172 281.049 928.435 281.025C928.966 280.976 929.494 281.14 929.903 281.48C930.313 281.82 930.571 282.31 930.62 282.84C930.73 283.98 941.12 397.24 929.69 451.41C929.597 451.855 929.355 452.255 929.004 452.544C928.653 452.833 928.215 452.994 927.76 453Z" fill="white" stroke="#263238" stroke-linecap="round" stroke-linejoin="round"/>
<path d="M865.76 451.54C865.574 451.542 865.388 451.515 865.21 451.46C864.702 451.316 864.271 450.976 864.013 450.515C863.754 450.054 863.688 449.509 863.83 449C889.83 356.7 867.76 282.38 867.54 281.64C867.414 281.142 867.484 280.615 867.736 280.168C867.988 279.72 868.402 279.387 868.893 279.237C869.384 279.086 869.914 279.131 870.373 279.36C870.832 279.59 871.186 279.987 871.36 280.47C871.59 281.22 894.04 356.6 867.68 450.08C867.563 450.499 867.311 450.869 866.965 451.132C866.618 451.396 866.195 451.539 865.76 451.54Z" fill="white" stroke="#263238" stroke-linecap="round" stroke-linejoin="round"/>
<path d="M1231.38 286.65C1231.38 286.65 1219.09 279.82 1218.18 295.3C1217.27 310.78 1215 411.39 1215 411.39" stroke="#263238" stroke-width="2" stroke-linecap="round" stroke-linejoin="round"/>
<path d="M1211.8 296.66C1211.8 296.66 1221.8 318.97 1217.27 410.03" stroke="#263238" stroke-width="2" stroke-linecap="round" stroke-linejoin="round"/>
<path d="M1221.65 289.77C1221.65 289.77 1216.94 292.77 1214.27 289.33C1211.6 285.89 1216.08 279.57 1212.13 276.87C1208.18 274.17 1201.35 278.29 1201.35 278.29C1201.35 278.29 1206.6 279.83 1206.43 282.7C1206.26 285.57 1203.73 286.65 1203.43 285.4C1203.13 284.15 1200.58 277.83 1196.32 280.46C1195.09 281.185 1194.02 282.153 1193.17 283.305C1192.33 284.457 1191.72 285.768 1191.4 287.16C1191.4 287.16 1201.33 286.1 1201.93 289.83C1202.53 293.56 1197.86 289.18 1193.76 288.94C1189.66 288.7 1185.92 289.3 1186.19 291.78C1186.28 293.974 1186.15 296.172 1185.8 298.34C1188.04 296.476 1190.88 295.476 1193.8 295.52C1198.31 295.79 1198.14 298.66 1194.04 298.42C1189.94 298.18 1186.42 302.08 1186.42 302.08C1186.42 302.08 1190.16 308.47 1194.91 311.63C1199.66 314.79 1201.37 313.63 1201.91 311.22C1202.45 308.81 1201.19 302.54 1204.06 302.71C1206.93 302.88 1199.31 313.53 1202.97 314.16C1206.63 314.79 1209.58 313.73 1210.54 311.32L1211.54 308.91C1211.54 308.91 1210.26 302.66 1210.82 300.23C1211.38 297.8 1212.05 300.3 1212.7 303.23C1213.35 306.16 1213.76 313.16 1215.01 312.82C1216.26 312.48 1220.27 307.38 1221.21 305.37C1222.15 303.36 1215.93 297.25 1216 296.02C1216.07 294.79 1220.87 297.13 1221.62 298.41C1222.16 299.382 1222.66 300.384 1223.09 301.41C1223.09 301.41 1226.09 299.53 1226.01 293.77C1225.93 288.01 1221.65 289.77 1221.65 289.77Z" fill="#409B95"/>
<path opacity="0.3" d="M1221.65 289.77C1221.65 289.77 1216.94 292.77 1214.27 289.33C1211.6 285.89 1216.08 279.57 1212.13 276.87C1208.18 274.17 1201.35 278.29 1201.35 278.29C1201.35 278.29 1206.6 279.83 1206.43 282.7C1206.26 285.57 1203.73 286.65 1203.43 285.4C1203.13 284.15 1200.58 277.83 1196.32 280.46C1195.09 281.185 1194.02 282.153 1193.17 283.305C1192.33 284.457 1191.72 285.768 1191.4 287.16C1191.4 287.16 1201.33 286.1 1201.93 289.83C1202.53 293.56 1197.86 289.18 1193.76 288.94C1189.66 288.7 1185.92 289.3 1186.19 291.78C1186.28 293.974 1186.15 296.172 1185.8 298.34C1188.04 296.476 1190.88 295.476 1193.8 295.52C1198.31 295.79 1198.14 298.66 1194.04 298.42C1189.94 298.18 1186.42 302.08 1186.42 302.08C1186.42 302.08 1190.16 308.47 1194.91 311.63C1199.66 314.79 1201.37 313.63 1201.91 311.22C1202.45 308.81 1201.19 302.54 1204.06 302.71C1206.93 302.88 1199.31 313.53 1202.97 314.16C1206.63 314.79 1209.58 313.73 1210.54 311.32L1211.54 308.91C1211.54 308.91 1210.26 302.66 1210.82 300.23C1211.38 297.8 1212.05 300.3 1212.7 303.23C1213.35 306.16 1213.76 313.16 1215.01 312.82C1216.26 312.48 1220.27 307.38 1221.21 305.37C1222.15 303.36 1215.93 297.25 1216 296.02C1216.07 294.79 1220.87 297.13 1221.62 298.41C1222.16 299.382 1222.66 300.384 1223.09 301.41C1223.09 301.41 1226.09 299.53 1226.01 293.77C1225.93 288.01 1221.65 289.77 1221.65 289.77Z" fill="#263238"/>
<path d="M1197.81 303.28C1200.88 299.49 1205.39 294.36 1209.18 291.91" stroke="#263238" stroke-linecap="round" stroke-linejoin="round"/>
<path d="M1194.26 307.89C1194.26 307.89 1195.04 306.8 1196.32 305.16" stroke="#263238" stroke-linecap="round" stroke-linejoin="round"/>
<path d="M1211.18 292.85C1211.18 292.85 1215.74 299.29 1216.58 305.92" stroke="#263238" stroke-linecap="round" stroke-linejoin="round"/>
<path d="M1206 296.66C1206 296.66 1207.28 295.91 1206.8 304.11" stroke="#263238" stroke-linecap="round" stroke-linejoin="round"/>
<path d="M1209.35 289C1209.35 289 1211.96 286.69 1210.58 282.08" stroke="#263238" stroke-linecap="round" stroke-linejoin="round"/>
<path d="M1205.83 292.95L1203.97 289.55" stroke="#263238" stroke-linecap="round" stroke-linejoin="round"/>
<path d="M1201.92 296.42C1201.92 296.42 1196.02 291.96 1192.33 291.74" stroke="#263238" stroke-linecap="round" stroke-linejoin="round"/>
<path d="M1238.41 277.62C1238.41 277.62 1238.22 284.38 1232.94 284.71C1227.66 285.04 1224.4 276.24 1219 278.36C1213.6 280.48 1213.08 290.12 1213.08 290.12C1213.08 290.12 1218.2 285.91 1220.96 288.03C1223.72 290.15 1223.08 293.43 1221.59 292.91C1220.1 292.39 1212.08 290.6 1211.8 296.66C1211.69 298.388 1211.93 300.12 1212.5 301.753C1213.08 303.386 1213.98 304.885 1215.15 306.16C1215.15 306.16 1220.86 295.49 1225.02 297.43C1229.18 299.37 1221.59 301.07 1218.55 305.01C1215.51 308.95 1213.55 313.1 1216.24 314.53C1218.5 315.929 1220.61 317.554 1222.54 319.38C1222.54 319.38 1221.82 313.8 1225.16 309.47C1228.5 305.14 1231.25 307.26 1228.22 311.2C1225.19 315.14 1226.69 321.33 1226.69 321.33C1226.69 321.33 1235.63 321.94 1242.03 319.33C1248.43 316.72 1248.47 314.24 1246.41 312.03C1244.35 309.82 1237.23 306.84 1239.35 304.03C1241.47 301.22 1246.95 316.16 1250.08 312.92C1253.21 309.68 1254.15 306.01 1252.39 303.4L1250.63 300.8C1250.63 300.8 1243.51 297.8 1241.45 295.6C1239.39 293.4 1242.36 294.42 1245.73 295.76C1249.1 297.1 1256.39 301.47 1256.91 299.98C1257.43 298.49 1255.04 290.98 1253.68 288.7C1252.32 286.42 1241.94 288.45 1240.76 287.54C1239.58 286.63 1245.19 283.42 1246.98 283.54C1248.32 283.651 1249.66 283.835 1250.98 284.09C1250.98 284.09 1251.14 279.81 1245.32 275.96C1239.5 272.11 1238.41 277.62 1238.41 277.62Z" fill="#409B95"/>
<path opacity="0.2" d="M1238.41 277.62C1238.41 277.62 1238.22 284.38 1232.94 284.71C1227.66 285.04 1224.4 276.24 1219 278.36C1213.6 280.48 1213.08 290.12 1213.08 290.12C1213.08 290.12 1218.2 285.91 1220.96 288.03C1223.72 290.15 1223.08 293.43 1221.59 292.91C1220.1 292.39 1212.08 290.6 1211.8 296.66C1211.69 298.388 1211.93 300.12 1212.5 301.753C1213.08 303.386 1213.98 304.885 1215.15 306.16C1215.15 306.16 1220.86 295.49 1225.02 297.43C1229.18 299.37 1221.59 301.07 1218.55 305.01C1215.51 308.95 1213.55 313.1 1216.24 314.53C1218.5 315.929 1220.61 317.554 1222.54 319.38C1222.54 319.38 1221.82 313.8 1225.16 309.47C1228.5 305.14 1231.25 307.26 1228.22 311.2C1225.19 315.14 1226.69 321.33 1226.69 321.33C1226.69 321.33 1235.63 321.94 1242.03 319.33C1248.43 316.72 1248.47 314.24 1246.41 312.03C1244.35 309.82 1237.23 306.84 1239.35 304.03C1241.47 301.22 1246.95 316.16 1250.08 312.92C1253.21 309.68 1254.15 306.01 1252.39 303.4L1250.63 300.8C1250.63 300.8 1243.51 297.8 1241.45 295.6C1239.39 293.4 1242.36 294.42 1245.73 295.76C1249.1 297.1 1256.39 301.47 1256.91 299.98C1257.43 298.49 1255.04 290.98 1253.68 288.7C1252.32 286.42 1241.94 288.45 1240.76 287.54C1239.58 286.63 1245.19 283.42 1246.98 283.54C1248.32 283.651 1249.66 283.835 1250.98 284.09C1250.98 284.09 1251.14 279.81 1245.32 275.96C1239.5 272.11 1238.41 277.62 1238.41 277.62Z" fill="#263238"/>
<path d="M1235.69 310.69C1234 305 1231.92 297 1232.06 291.56" stroke="#263238" stroke-linecap="round" stroke-linejoin="round"/>
<path d="M1237.88 317.4C1237.88 317.4 1237.32 315.86 1236.55 313.47" stroke="#263238" stroke-linecap="round" stroke-linejoin="round"/>
<path d="M1234.36 290.2C1234.36 290.2 1243.91 290.02 1251.12 293.7" stroke="#263238" stroke-linecap="round" stroke-linejoin="round"/>
<path d="M1234.66 298C1234.66 298 1234.78 296.21 1242.66 302.28" stroke="#263238" stroke-linecap="round" stroke-linejoin="round"/>
<path d="M1229.3 289.43C1229.3 289.43 1228.76 285.25 1223.21 283.49" stroke="#263238" stroke-linecap="round" stroke-linejoin="round"/>
<path d="M1230.81 295.62L1226.14 295.16" stroke="#263238" stroke-linecap="round" stroke-linejoin="round"/>
<path d="M1231.62 301.9C1231.62 301.9 1223.13 304.77 1220.4 308.32" stroke="#263238" stroke-linecap="round" stroke-linejoin="round"/>
<path d="M1181.76 322.62C1181.76 322.62 1208.62 340.37 1208.17 409.12" stroke="#263238" stroke-width="2" stroke-linecap="round" stroke-linejoin="round"/>
<path d="M1214.88 317.93C1214.88 317.93 1214.02 325.71 1207.88 325.59C1201.74 325.47 1198.88 315.01 1192.4 316.95C1185.92 318.89 1184.45 329.95 1184.45 329.95C1184.45 329.95 1190.77 325.57 1193.75 328.29C1196.73 331.01 1195.68 334.72 1194.01 333.98C1192.34 333.24 1183.25 330.41 1182.36 337.38C1182.07 339.364 1182.19 341.386 1182.7 343.323C1183.22 345.26 1184.12 347.073 1185.36 348.65C1185.36 348.65 1192.96 336.88 1197.57 339.52C1202.18 342.16 1193.27 343.39 1189.39 347.65C1185.51 351.91 1182.88 356.51 1185.82 358.41C1188.3 360.239 1190.58 362.316 1192.64 364.61C1192.64 364.61 1192.33 358.11 1196.59 353.42C1200.85 348.73 1203.84 351.42 1199.96 355.71C1196.08 360 1197.24 367.25 1197.24 367.25C1197.24 367.25 1207.51 368.8 1215.14 366.4C1222.77 364 1223.04 361.14 1220.87 358.4C1218.7 355.66 1210.77 351.54 1213.48 348.56C1216.19 345.58 1221.1 363.28 1225.02 359.83C1228.94 356.38 1230.36 352.25 1228.58 349.07L1226.8 345.89C1226.8 345.89 1218.87 341.78 1216.7 339.03C1214.53 336.28 1217.86 337.76 1221.62 339.62C1225.38 341.48 1233.39 347.21 1234.12 345.55C1234.85 343.89 1232.81 335.01 1231.46 332.22C1230.11 329.43 1217.94 330.82 1216.66 329.66C1215.38 328.5 1222.17 325.33 1224.22 325.66C1225.75 325.914 1227.26 326.248 1228.75 326.66C1228.75 326.66 1229.33 321.74 1222.98 316.74C1216.63 311.74 1214.88 317.93 1214.88 317.93Z" fill="#409B95"/>
<path opacity="0.3" d="M1214.88 317.93C1214.88 317.93 1214.02 325.71 1207.88 325.59C1201.74 325.47 1198.88 315.01 1192.4 316.95C1185.92 318.89 1184.45 329.95 1184.45 329.95C1184.45 329.95 1190.77 325.57 1193.75 328.29C1196.73 331.01 1195.68 334.72 1194.01 333.98C1192.34 333.24 1183.25 330.41 1182.36 337.38C1182.07 339.364 1182.19 341.386 1182.7 343.323C1183.22 345.26 1184.12 347.073 1185.36 348.65C1185.36 348.65 1192.96 336.88 1197.57 339.52C1202.18 342.16 1193.27 343.39 1189.39 347.65C1185.51 351.91 1182.88 356.51 1185.82 358.41C1188.3 360.239 1190.58 362.316 1192.64 364.61C1192.64 364.61 1192.33 358.11 1196.59 353.42C1200.85 348.73 1203.84 351.42 1199.96 355.71C1196.08 360 1197.24 367.25 1197.24 367.25C1197.24 367.25 1207.51 368.8 1215.14 366.4C1222.77 364 1223.04 361.14 1220.87 358.4C1218.7 355.66 1210.77 351.54 1213.48 348.56C1216.19 345.58 1221.1 363.28 1225.02 359.83C1228.94 356.38 1230.36 352.25 1228.58 349.07L1226.8 345.89C1226.8 345.89 1218.87 341.78 1216.7 339.03C1214.53 336.28 1217.86 337.76 1221.62 339.62C1225.38 341.48 1233.39 347.21 1234.12 345.55C1234.85 343.89 1232.81 335.01 1231.46 332.22C1230.11 329.43 1217.94 330.82 1216.66 329.66C1215.38 328.5 1222.17 325.33 1224.22 325.66C1225.75 325.914 1227.26 326.248 1228.75 326.66C1228.75 326.66 1229.33 321.74 1222.98 316.74C1216.63 311.74 1214.88 317.93 1214.88 317.93Z" fill="#263238"/>
<path d="M1208.62 355.83C1207.18 349.15 1205.57 339.7 1206.23 333.41" stroke="#263238" stroke-linecap="round" stroke-linejoin="round"/>
<path d="M1210.52 363.78C1210.52 363.78 1210.02 361.95 1209.35 359.12" stroke="#263238" stroke-linecap="round" stroke-linejoin="round"/>
<path d="M1209 332.06C1209 332.06 1220 332.76 1228 337.68" stroke="#263238" stroke-linecap="round" stroke-linejoin="round"/>
<path d="M1208.63 341C1208.63 341 1208.94 338.95 1217.46 346.7" stroke="#263238" stroke-linecap="round" stroke-linejoin="round"/>
<path d="M1203.25 330.7C1203.25 330.7 1203.02 325.82 1196.79 323.26" stroke="#263238" stroke-linecap="round" stroke-linejoin="round"/>
<path d="M1204.41 337.98L1199.07 337.01" stroke="#263238" stroke-linecap="round" stroke-linejoin="round"/>
<path d="M1204.76 345.3C1204.76 345.3 1194.69 347.82 1191.2 351.65" stroke="#263238" stroke-linecap="round" stroke-linejoin="round"/>
<path d="M1192.23 376.79C1192.23 376.79 1209.53 389.99 1211.35 409.57L1207.71 344" stroke="#263238" stroke-width="2" stroke-linecap="round" stroke-linejoin="round"/>
<path d="M1234.11 367.23C1211.35 363.13 1211.35 409.57 1211.35 409.57" stroke="#263238" stroke-width="2" stroke-linecap="round" stroke-linejoin="round"/>
<path d="M1214.08 409.12C1214.08 409.12 1200.88 313.06 1239.08 313.06" stroke="#263238" stroke-width="2" stroke-linecap="round" stroke-linejoin="round"/>
<path d="M1225.44 364.47C1222.33 360.97 1215.72 360.97 1211.84 369.91C1207.96 378.85 1211.45 377.3 1211.45 377.3C1211.45 377.3 1218.83 374.96 1223.5 373.41C1228.17 371.86 1234.38 367.97 1234.77 370.3C1235.16 372.63 1231.66 374.96 1227.38 375.74C1223.1 376.52 1211.84 379.63 1213 382C1214.16 384.37 1216.89 391.33 1216.89 391.33C1220.21 388.509 1223.71 385.913 1227.38 383.56C1232.44 380.45 1235.55 381.61 1232.83 385.11C1230.11 388.61 1222.33 392.49 1223.89 397.16C1225.45 401.83 1234.77 407.65 1234.77 407.65C1234.77 407.65 1235.94 397.94 1238.66 394.83C1241.38 391.72 1241.38 395.22 1240.6 400.66C1240.21 402.977 1239.95 405.314 1239.82 407.66L1250.7 411.55C1252.48 408.841 1254.43 406.246 1256.53 403.78L1258.53 401.78C1258.53 401.78 1249.98 394.4 1249.59 389.78C1249.2 385.16 1255.42 389.78 1257.36 390.56C1259.3 391.34 1262.41 396.78 1262.41 396.78C1262.41 396.78 1264.36 387.84 1264.75 384.73L1265.14 381.62C1265.14 381.62 1256.97 378.51 1253.86 378.51C1250.75 378.51 1249.2 380.84 1249.2 377.74C1249.2 374.64 1252.31 372.68 1255.81 373.07C1258.98 373.599 1262.1 374.379 1265.14 375.4C1265.14 375.4 1267.47 373.46 1266.69 367.63C1265.91 361.8 1263.97 361.8 1259.31 363.35C1254.65 364.9 1251.53 368.41 1248.03 368.41C1244.53 368.41 1246.48 364.13 1248.81 362.97C1251.14 361.81 1256.97 359.47 1258.14 359.08C1259.31 358.69 1251.92 353.25 1248.03 352.47C1244.14 351.69 1239.11 354.47 1239.48 358.3C1240.21 366.41 1228.55 368 1225.44 364.47Z" fill="#409B95"/>
<path d="M1250.46 404.49C1250.58 405.657 1250.66 406.827 1250.7 408" stroke="#263238" stroke-linecap="round" stroke-linejoin="round"/>
<path d="M1242.65 376.59C1246.08 384.286 1248.54 392.373 1250 400.67" stroke="#263238" stroke-linecap="round" stroke-linejoin="round"/>
<path d="M1241.25 373.47C1239.33 369.33 1237.88 366.8 1237.88 366.8C1240 365.801 1241.76 364.174 1242.93 362.14C1243.84 360.298 1245.17 358.697 1246.82 357.47" stroke="#263238" stroke-linecap="round" stroke-linejoin="round"/>
<path d="M1224.28 380C1224.28 380 1238.28 374.17 1238.28 375.33" stroke="#263238" stroke-linecap="round" stroke-linejoin="round"/>
<path d="M1246 372.63C1246 372.63 1252.22 369.52 1257.66 369.52" stroke="#263238" stroke-linecap="round" stroke-linejoin="round"/>
<path d="M1243.71 382C1241.01 384.217 1238.54 386.692 1236.32 389.39C1234.05 392.065 1232.22 395.078 1230.88 398.32" stroke="#263238" stroke-linecap="round" stroke-linejoin="round"/>
<path d="M1248 383.52C1248 383.52 1256.17 381.18 1260.44 385.07" stroke="#263238" stroke-linecap="round" stroke-linejoin="round"/>
<path d="M1262.77 331C1258.54 328.5 1253.86 328.44 1251.56 325.8C1249.26 323.16 1253.77 321.8 1256.18 322.8C1258.59 323.8 1264.18 326.67 1265.23 327.29C1266.28 327.91 1265.56 318.78 1263.6 315.29C1261.64 311.8 1256.27 309.84 1253.6 312.66C1247.95 318.59 1239.13 310.81 1239.73 306.17C1240.33 301.53 1236 296.54 1226.73 299.46C1217.46 302.38 1220.9 304.01 1220.9 304.01C1220.9 304.01 1227.5 308.06 1231.74 310.56C1235.98 313.06 1242.98 315.21 1241.47 317.03C1239.96 318.85 1235.91 317.74 1232.52 315.03C1229.13 312.32 1219.4 305.84 1218.4 308.25C1217.4 310.66 1213.9 317.3 1213.9 317.3C1218.21 317.96 1222.47 318.906 1226.65 320.13C1232.31 321.91 1233.47 325.02 1229.05 325.26C1224.63 325.5 1216.59 322.18 1214.05 326.41C1211.51 330.64 1213.26 341.5 1213.26 341.5C1213.26 341.5 1221.36 336.02 1225.49 336.03C1229.62 336.04 1226.98 338.34 1222.36 341.32C1220.36 342.543 1218.42 343.879 1216.57 345.32L1220.77 356.09C1223.98 355.655 1227.22 355.421 1230.46 355.39L1233.2 355.59C1233.2 355.59 1233.2 344.29 1236.44 340.94C1239.68 337.59 1240.26 345.34 1240.95 347.32C1241.64 349.3 1239.57 355.21 1239.57 355.21C1239.57 355.21 1247.57 350.82 1250.19 349.07L1252.8 347.33C1252.8 347.33 1249.8 339.12 1247.75 336.78C1245.7 334.44 1242.94 334.78 1245.28 332.78C1247.62 330.78 1251.14 331.78 1253.14 334.72C1254.82 337.456 1256.27 340.322 1257.49 343.29C1257.49 343.29 1260.49 343.78 1264.38 339.37C1268.27 334.96 1267 333.5 1262.77 331ZM1226 343.44C1222.89 341.88 1230.27 338.77 1230.27 338.77C1233 338.39 1229.1 345 1226 343.44ZM1231.23 328.93C1229.91 328.27 1233.88 326.93 1233.88 326.93C1239.62 328 1232.55 329.59 1231.22 328.93H1231.23Z" fill="#409B95"/>
<path d="M1225.9 351.36C1225.1 352.21 1224.26 353.04 1223.41 353.84" stroke="#263238" stroke-linecap="round" stroke-linejoin="round"/>
<path d="M1241.85 327.17C1238.28 334.796 1233.78 341.953 1228.46 348.48" stroke="#263238" stroke-linecap="round" stroke-linejoin="round"/>
<path d="M1243.29 324.07C1245.16 319.9 1246.11 317.15 1246.11 317.15C1248.26 318.093 1250.65 318.358 1252.95 317.91C1254.93 317.386 1257.02 317.341 1259.02 317.78" stroke="#263238" stroke-linecap="round" stroke-linejoin="round"/>
<path d="M1239.91 323.05C1240.79 322.28 1227.22 315.54 1227.22 315.54" stroke="#263238" stroke-linecap="round" stroke-linejoin="round"/>
<path d="M1247.06 327.13C1247.06 327.13 1253.49 329.79 1257.06 333.9" stroke="#263238" stroke-linecap="round" stroke-linejoin="round"/>
<path d="M1238.49 331.49C1235.05 330.906 1231.56 330.658 1228.07 330.75C1224.56 330.794 1221.08 331.384 1217.75 332.5" stroke="#263238" stroke-linecap="round" stroke-linejoin="round"/>
<path d="M1240.12 335.74C1240.12 335.74 1247.23 340.37 1247.12 346.15" stroke="#263238" stroke-linecap="round" stroke-linejoin="round"/>
<path d="M1202.37 384.85C1198.97 382.85 1195.2 382.8 1193.37 380.67C1191.54 378.54 1195.14 377.47 1197.08 378.27C1199.02 379.07 1203.52 381.39 1204.37 381.89C1205.22 382.39 1204.63 375.03 1203.05 372.26C1201.47 369.49 1197.15 367.88 1195 370.14C1190.45 374.92 1183.35 368.65 1183.84 364.92C1184.33 361.19 1180.84 357.17 1173.35 359.52C1165.86 361.87 1168.66 363.18 1168.66 363.18C1168.66 363.18 1173.97 366.44 1177.38 368.45C1180.79 370.46 1186.43 372.2 1185.21 373.66C1183.99 375.12 1180.74 374.24 1178.01 372.05C1175.28 369.86 1167.45 364.65 1166.65 366.59C1165.85 368.53 1163.03 373.87 1163.03 373.87C1166.5 374.405 1169.92 375.166 1173.29 376.15C1177.84 377.58 1178.77 380.08 1175.21 380.27C1171.65 380.46 1165.21 377.79 1163.21 381.2C1161.21 384.61 1162.57 393.35 1162.57 393.35C1162.57 393.35 1169.09 388.93 1172.41 388.94C1175.73 388.95 1173.61 390.8 1169.9 393.2C1168.29 394.185 1166.73 395.26 1165.24 396.42L1168.61 405.08C1171.2 404.733 1173.8 404.549 1176.41 404.53L1178.62 404.68C1178.62 404.68 1178.62 395.59 1181.23 392.89C1183.84 390.19 1184.3 396.43 1184.85 398.03C1185.4 399.63 1183.74 404.38 1183.74 404.38C1183.74 404.38 1190.2 400.84 1192.29 399.44L1194.39 398.03C1194.39 398.03 1191.97 391.43 1190.33 389.54C1188.69 387.65 1186.45 387.94 1188.33 386.3C1190.21 384.66 1193.04 385.52 1194.65 387.85C1196 390.054 1197.17 392.361 1198.16 394.75C1198.16 394.75 1200.57 395.14 1203.7 391.6C1206.83 388.06 1205.78 386.87 1202.37 384.85ZM1172.77 394.85C1170.27 393.6 1176.21 391.1 1176.21 391.1C1178.4 390.8 1175.27 396.12 1172.77 394.86V394.85ZM1177 383.19C1175.93 382.65 1179.13 381.59 1179.13 381.59C1183.74 382.48 1178.05 383.72 1177 383.19Z" fill="#409B95"/>
<path d="M1172.71 401.24C1172.06 401.92 1171.39 402.59 1170.71 403.24" stroke="#263238" stroke-linecap="round" stroke-linejoin="round"/>
<path d="M1185.54 381.77C1182.67 387.907 1179.05 393.667 1174.77 398.92" stroke="#263238" stroke-linecap="round" stroke-linejoin="round"/>
<path d="M1186.7 379.27C1188.2 375.92 1188.97 373.71 1188.97 373.71C1190.7 374.467 1192.62 374.679 1194.47 374.32C1196.07 373.898 1197.74 373.863 1199.35 374.22" stroke="#263238" stroke-linecap="round" stroke-linejoin="round"/>
<path d="M1173.76 372.41C1173.76 372.41 1184.69 377.84 1183.98 378.41" stroke="#263238" stroke-linecap="round" stroke-linejoin="round"/>
<path d="M1189.73 381.74C1189.73 381.74 1194.9 383.88 1197.73 387.19" stroke="#263238" stroke-linecap="round" stroke-linejoin="round"/>
<path d="M1182.83 385.25C1180.06 384.781 1177.26 384.584 1174.45 384.66C1171.63 384.687 1168.82 385.163 1166.15 386.07" stroke="#263238" stroke-linecap="round" stroke-linejoin="round"/>
<path d="M1184.15 388.67C1184.15 388.67 1189.87 392.4 1189.76 397.04" stroke="#263238" stroke-linecap="round" stroke-linejoin="round"/>
<path d="M1188.49 320.67C1188.49 320.67 1184.21 323.78 1181.49 320.67C1178.77 317.56 1182.66 311.34 1178.77 309.01C1174.88 306.68 1168.67 310.95 1168.67 310.95C1168.67 310.95 1173.72 312.12 1173.72 314.84C1173.72 317.56 1171.39 318.73 1171 317.56C1170.61 316.39 1167.89 310.56 1164 313.29C1162.88 314.045 1161.92 315.018 1161.19 316.153C1160.46 317.287 1159.96 318.559 1159.73 319.89C1159.73 319.89 1169.05 318.34 1169.83 321.84C1170.61 325.34 1165.95 321.45 1162.06 321.45C1158.17 321.45 1154.67 322.23 1155.06 324.56C1155.27 326.628 1155.27 328.712 1155.06 330.78C1157.07 328.895 1159.69 327.792 1162.45 327.67C1166.72 327.67 1166.72 330.39 1162.84 330.39C1158.96 330.39 1155.84 334.28 1155.84 334.28C1155.84 334.28 1159.73 340.11 1164.39 342.83C1169.05 345.55 1170.61 344.38 1171 342.05C1171.39 339.72 1169.83 333.89 1172.55 333.89C1175.27 333.89 1168.67 344.38 1172.16 344.77C1175.65 345.16 1178.38 343.99 1179.16 341.66L1179.94 339.33C1179.94 339.33 1178.38 333.5 1178.77 331.17C1179.16 328.84 1179.94 331.17 1180.71 333.89C1181.48 336.61 1182.27 343.21 1183.44 342.83C1184.61 342.45 1188.1 337.38 1188.88 335.44C1189.66 333.5 1183.44 328.06 1183.44 326.89C1183.44 325.72 1188.1 327.67 1188.88 328.83C1189.66 329.99 1190.43 331.55 1190.43 331.55C1190.43 331.55 1193.15 329.61 1192.76 324.17C1192.37 318.73 1188.49 320.67 1188.49 320.67Z" fill="#409B95"/>
<path d="M1166.71 334.77C1169.4 331.02 1173.39 325.92 1176.83 323.39" stroke="#263238" stroke-linecap="round" stroke-linejoin="round"/>
<path d="M1163.61 339.33C1163.61 339.33 1164.3 338.25 1165.41 336.63" stroke="#263238" stroke-linecap="round" stroke-linejoin="round"/>
<path d="M1178.77 324.17C1178.77 324.17 1183.44 330 1184.6 336.22" stroke="#263238" stroke-linecap="round" stroke-linejoin="round"/>
<path d="M1174.11 328.06C1174.11 328.06 1175.27 327.28 1175.27 335.06" stroke="#263238" stroke-linecap="round" stroke-linejoin="round"/>
<path d="M1176.83 320.67C1176.83 320.67 1179.16 318.34 1177.61 314.06" stroke="#263238" stroke-linecap="round" stroke-linejoin="round"/>
<path d="M1173.72 324.56L1171.78 321.45" stroke="#263238" stroke-linecap="round" stroke-linejoin="round"/>
<path d="M1170.22 328.06C1170.22 328.06 1164.39 324.17 1160.89 324.17" stroke="#263238" stroke-linecap="round" stroke-linejoin="round"/>
<path d="M1227.74 407.75H1197.69V451H1227.74V407.75Z" fill="#263238" stroke="#263238" stroke-width="2" stroke-linecap="round" stroke-linejoin="round"/>
</svg>
