<svg width="317" height="73" viewBox="0 0 317 73" fill="none" xmlns="http://www.w3.org/2000/svg">
<path d="M99.0953 16C104.468 16 107.875 19.3635 109.492 22.3339L104.774 25.1296C103.114 22.8144 101.498 21.635 99.0953 21.635C96.9548 21.635 95.3823 22.9018 95.3823 24.6491C95.3823 26.3964 96.387 27.3137 98.7895 28.1873L100.886 28.9299C107.657 31.3324 110.322 34.3465 110.322 38.54C110.322 44.6992 104.468 47.7569 99.27 47.7569C93.766 47.7569 89.4852 44.4808 88 40.1999L92.8924 37.6227C93.9845 39.8505 95.8191 41.9909 99.27 41.9909C101.76 41.9909 103.682 40.8988 103.682 38.6274C103.682 36.4433 102.371 35.4822 99.0516 34.2155L97.1733 33.5602C92.674 31.944 89.0484 29.7162 89.0484 24.387C89.0484 19.4946 93.635 16 99.0953 16ZM124.475 41.8598C125.654 41.8598 126.528 41.7288 127.489 41.3793V46.6212C126.528 47.058 125.042 47.3638 122.858 47.3638C119.32 47.3638 116.35 46.1407 116.35 39.7194V29.5415H113.161V24.387H116.35V19.0578H122.596V24.387H127.445V29.5415H122.596V39.6757C122.596 40.7241 122.902 41.8598 124.475 41.8598ZM139.545 47.4512C135.22 47.4512 130.94 44.6118 130.94 37.4479V24.387H137.186V37.0111C137.186 40.7241 138.628 41.9909 141.03 41.9909C144.35 41.9909 146.316 38.8458 146.796 37.2732V24.387H153.043V47.1017H146.796V42.9082C146.359 44.0876 143.913 47.4512 139.545 47.4512ZM174.36 16.2184H180.606V27.7942V47.1017H174.36V44.306C174.229 45.2234 172.001 47.5385 168.069 47.5385C162.871 47.5385 156.843 43.7819 156.843 35.7007C156.843 27.8815 162.871 23.9938 168.069 23.9938C172.001 23.9938 174.229 26.44 174.36 26.9205V16.2184ZM168.943 41.9909C172.001 41.9909 174.665 39.8941 174.665 35.7007C174.665 31.6382 172.001 29.5415 168.943 29.5415C165.798 29.5415 162.915 31.6819 162.915 35.7007C162.915 39.8505 165.798 41.9909 168.943 41.9909ZM203.539 24.2996H209.786L195.895 55.4013H189.648L193.798 46.3154L183.97 24.2996H190.216L196.856 39.5884L203.539 24.2996ZM236.694 16.5242L222.541 41.6414H236.869V47.1017H212.407L226.56 21.9845H213.193V16.5242H236.694ZM251.852 23.9938C257.006 23.9938 263.733 27.8815 263.733 35.8317C263.733 43.7819 257.006 47.5385 251.852 47.5385C246.697 47.5385 239.927 43.7819 239.927 35.8317C239.927 27.8815 246.697 23.9938 251.852 23.9938ZM251.852 29.5415C249.012 29.5415 245.998 31.6819 245.998 35.8317C245.998 39.8505 249.012 41.9909 251.852 41.9909C254.647 41.9909 257.705 39.8505 257.705 35.8317C257.705 31.6819 254.647 29.5415 251.852 29.5415ZM281.031 24.0375C285.356 24.0375 289.637 26.8769 289.637 34.0407V47.1017H283.39V34.4776C283.39 30.7646 281.949 29.4978 279.546 29.4978C276.226 29.4978 274.261 32.6429 273.78 34.2155V47.1017H267.534V24.387H273.78V28.5805C274.217 27.401 276.663 24.0375 281.031 24.0375ZM305.057 23.9938C310.211 23.9938 317.331 27.8815 315.977 37.9284H299.465C300.252 40.7678 302.61 42.253 305.668 42.253C308.508 42.253 309.6 41.5977 311.216 40.7241L314.667 44.0876C312.701 46.1407 309.905 47.5385 305.45 47.5385C299.771 47.5385 293.131 43.6508 293.131 35.8317C293.131 27.8815 299.902 23.9938 305.057 23.9938ZM305.057 29.3231C302.785 29.3231 300.383 30.7209 299.553 33.5165H310.473C309.774 30.7209 307.284 29.3231 305.057 29.3231Z" fill="#49BBBD"/>
<path d="M36.5 73C56.6584 73 73 56.6584 73 36.5C73 16.3416 56.6584 0 36.5 0C16.3416 0 0 16.3416 0 36.5C0 56.6584 16.3416 73 36.5 73Z" fill="#49BBBD"/>
<path d="M20.0078 13.598C20.0078 13.5341 52.6807 13.0865 52.8725 13.2144C53.7037 13.9817 54.0873 21.1428 54.2152 29.6467C50.8264 26.7695 45.5834 23.7643 38.3583 23.5725C37.1435 23.5725 36.1844 24.4677 36.1205 25.6825C36.1205 26.8973 37.0156 27.8564 38.2305 27.9204C47.118 28.1122 52.2331 33.2273 54.2152 35.7849C54.2152 46.9742 53.7037 58.2914 53.0643 58.9308C51.7216 60.0817 20.6472 60.4014 19.816 58.9308C19.1766 57.716 19.1766 46.6545 19.3045 35.7849C25.7623 36.2964 36.0565 38.4064 37.8468 46.3348C38.1665 47.4857 39.2535 48.253 40.4044 47.9972C41.6192 47.6775 42.3225 46.5906 42.0668 45.3757C39.701 34.7618 26.8493 32.0764 19.4324 31.501C19.6242 21.974 19.8799 13.662 20.0078 13.598Z" fill="white"/>
</svg>
