<svg width="20" height="19" viewBox="0 0 20 19" fill="none" xmlns="http://www.w3.org/2000/svg">
<path d="M20 5.125V16.375C20 17.4297 19.1406 18.25 18.125 18.25H1.875C0.820312 18.25 0 17.4297 0 16.375V5.125C0 4.10938 0.820312 3.25 1.875 3.25H5.3125L5.78125 2C6.05469 1.25781 6.75781 0.75 7.53906 0.75H12.4219C13.2031 0.75 13.9062 1.25781 14.1797 2L14.6875 3.25H18.125C19.1406 3.25 20 4.10938 20 5.125ZM14.6875 10.75C14.6875 8.17188 12.5781 6.0625 10 6.0625C7.38281 6.0625 5.3125 8.17188 5.3125 10.75C5.3125 13.3672 7.38281 15.4375 10 15.4375C12.5781 15.4375 14.6875 13.3672 14.6875 10.75ZM13.4375 10.75C13.4375 12.6641 11.875 14.1875 10 14.1875C8.08594 14.1875 6.5625 12.6641 6.5625 10.75C6.5625 8.875 8.08594 7.3125 10 7.3125C11.875 7.3125 13.4375 8.875 13.4375 10.75Z" fill="#49BBBD"/>
</svg>
