<svg width="15" height="21" viewBox="0 0 15 21" fill="none" xmlns="http://www.w3.org/2000/svg">
<path d="M8.75 5.8125C8.75 6.35938 9.14062 6.75 9.6875 6.75H15V19.5625C15 20.1094 14.5703 20.5 14.0625 20.5H0.9375C0.390625 20.5 0 20.1094 0 19.5625V1.4375C0 0.929688 0.390625 0.5 0.9375 0.5H8.75V5.8125ZM11.25 15.0312V14.7188C11.25 14.4844 11.0156 14.25 10.7812 14.25H4.21875C3.94531 14.25 3.75 14.4844 3.75 14.7188V15.0312C3.75 15.3047 3.94531 15.5 4.21875 15.5H10.7812C11.0156 15.5 11.25 15.3047 11.25 15.0312ZM11.25 12.5312V12.2188C11.25 11.9844 11.0156 11.75 10.7812 11.75H4.21875C3.94531 11.75 3.75 11.9844 3.75 12.2188V12.5312C3.75 12.8047 3.94531 13 4.21875 13H10.7812C11.0156 13 11.25 12.8047 11.25 12.5312ZM11.25 9.71875C11.25 9.48438 11.0156 9.25 10.7812 9.25H4.21875C3.94531 9.25 3.75 9.48438 3.75 9.71875V10.0312C3.75 10.3047 3.94531 10.5 4.21875 10.5H10.7812C11.0156 10.5 11.25 10.3047 11.25 10.0312V9.71875ZM15 5.26562V5.5H10V0.5H10.2344C10.4688 0.5 10.7031 0.617188 10.8984 0.773438L14.7266 4.60156C14.8828 4.79688 15 5.03125 15 5.26562Z" fill="#49BBBD"/>
</svg>
