<svg width="20" height="15" viewBox="0 0 20 15" fill="none" xmlns="http://www.w3.org/2000/svg">
<path d="M12.9688 10C12.7344 10 12.5 9.76562 12.5 9.53125V4.25781C12.5 4.02344 12.7344 3.75 12.9688 3.75H14.4922C14.7266 3.75 15 4.02344 15 4.25781V9.53125C15 9.76562 14.7266 10 14.4922 10H12.9688ZM16.7188 10C16.4844 10 16.25 9.76562 16.25 9.53125V0.507812C16.25 0.273438 16.4844 0 16.7188 0H18.2422C18.4766 0 18.75 0.273438 18.75 0.507812V9.53125C18.75 9.76562 18.4766 10 18.2422 10H16.7188ZM5.46875 10C5.23438 10 5 9.76562 5 9.53125V6.75781C5 6.52344 5.23438 6.25 5.46875 6.25H6.99219C7.22656 6.25 7.5 6.52344 7.5 6.75781V9.53125C7.5 9.76562 7.22656 10 6.99219 10H5.46875ZM9.21875 10C8.98438 10 8.75 9.76562 8.75 9.53125V1.75781C8.75 1.52344 8.98438 1.25 9.21875 1.25H10.7422C10.9766 1.25 11.25 1.52344 11.25 1.75781V9.53125C11.25 9.76562 10.9766 10 10.7422 10H9.21875ZM19.375 12.5C19.6875 12.5 20 12.8125 20 13.125V14.375C20 14.7266 19.6875 15 19.375 15H1.25C0.546875 15 0 14.4531 0 13.75V0.625C0 0.3125 0.273438 0 0.625 0H1.875C2.1875 0 2.5 0.3125 2.5 0.625V12.5H19.375Z" fill="#49BBBD"/>
</svg>
