<svg width="22" height="21" viewBox="0 0 22 21" fill="none" xmlns="http://www.w3.org/2000/svg">
<path d="M18.8906 10.5L20.6875 12.2578C21.2344 12.7656 20.9609 13.6641 20.2578 13.8594L17.8359 14.4844L18.5 16.9062C18.6953 17.6094 18.0703 18.2344 17.3672 18.0391L14.9453 17.375L14.3203 19.7969C14.125 20.5391 13.2266 20.7734 12.7188 20.2266L11 18.4297L9.24219 20.2266C8.73438 20.7344 7.83594 20.5391 7.64062 19.7969L7.01562 17.375L4.59375 18.0391C3.89062 18.2344 3.26562 17.6094 3.46094 16.9062L4.125 14.4844L1.70312 13.8594C1 13.6641 0.726562 12.7656 1.27344 12.2578L3.07031 10.5L1.27344 8.74219C0.726562 8.23438 1 7.33594 1.70312 7.17969L4.125 6.55469L3.46094 4.13281C3.26562 3.42969 3.89062 2.76562 4.59375 2.96094L7.01562 3.66406L7.64062 1.20312C7.79688 0.5 8.73438 0.265625 9.24219 0.8125L11 2.60938L12.7188 0.8125C13.2266 0.265625 14.1641 0.539062 14.3203 1.20312L14.9453 3.66406L17.3672 2.96094C18.0703 2.76562 18.6953 3.42969 18.5 4.13281L17.8359 6.55469L20.2578 7.17969C20.9609 7.33594 21.2344 8.23438 20.6875 8.74219L18.8906 10.5Z" fill="#49BBBD"/>
</svg>
