<svg id="SvgjsSvg1001" width="288" height="288" xmlns="http://www.w3.org/2000/svg" version="1.1" xmlns:xlink="http://www.w3.org/1999/xlink" xmlns:svgjs="http://svgjs.com/svgjs"><defs id="SvgjsDefs1002"></defs><g id="SvgjsG1008"><svg xmlns="http://www.w3.org/2000/svg" fill="none" viewBox="0 0 333 333" width="288" height="288"><path stroke="#49bbbd" stroke-linecap="round" stroke-linejoin="round" stroke-width="23.171" d="M12.0093 166.478C12.0093 251.791 81.1697 320.952 166.483 320.952C251.796 320.952 320.957 251.791 320.957 166.478C320.957 81.1642 251.796 12.0039 166.483 12.0039C81.1697 12.0039 12.0093 81.1642 12.0093 166.478Z" class="colorStroke000 svgStroke"></path><path stroke="#49bbbd" stroke-linecap="round" stroke-linejoin="round" stroke-width="23.171" d="M181.931 12.7891C181.931 12.7891 228.273 73.8159 228.273 166.5 228.273 259.184 181.931 320.212 181.931 320.212M151.036 320.212C151.036 320.212 104.694 259.184 104.694 166.5 104.694 73.8159 151.036 12.7891 151.036 12.7891M21.7356 220.543H311.232M21.7356 112.41H311.232" class="colorStroke000 svgStroke"></path></svg></g></svg>