<svg id="SvgjsSvg1001" width="288" height="288" xmlns="http://www.w3.org/2000/svg" version="1.1" xmlns:xlink="http://www.w3.org/1999/xlink" xmlns:svgjs="http://svgjs.com/svgjs"><defs id="SvgjsDefs1002"></defs><g id="SvgjsG1008"><svg xmlns="http://www.w3.org/2000/svg" fill="#D32" viewBox="0 0 24 24" width="288" height="288"><path fill="#b4b4b4" d="M12 0.375C5.57812 0.375 0.375 5.57812 0.375 12C0.375 18.4219 5.57812 23.625 12 23.625C18.4219 23.625 23.625 18.4219 23.625 12C23.625 5.57812 18.4219 0.375 12 0.375ZM12 21.375C6.79688 21.375 2.625 17.2031 2.625 12C2.625 6.84375 6.79688 2.625 12 2.625C17.1562 2.625 21.375 6.84375 21.375 12C21.375 17.2031 17.1562 21.375 12 21.375ZM14.8594 16.5C15.1406 16.6875 15.4688 16.6406 15.6562 16.3594L16.5469 15.1875C16.7344 14.9062 16.6875 14.5781 16.4062 14.3906L13.3125 12.0938V5.4375C13.3125 5.15625 13.0312 4.875 12.75 4.875H11.25C10.9219 4.875 10.6875 5.15625 10.6875 5.4375V13.1719C10.6875 13.3125 10.7344 13.5 10.875 13.5938L14.8594 16.5Z" class="colorD9D9D9 svgShape"></path></svg></g></svg>