<?xml version="1.0" encoding="UTF-8"?> <svg xmlns="http://www.w3.org/2000/svg" xmlns:xlink="http://www.w3.org/1999/xlink" version="1.1" id="Warstwa_1" x="0px" y="0px" viewBox="0 0 568 438" style="enable-background:new 0 0 568 438;" xml:space="preserve"> <style type="text/css"> .st0{fill:#F6FBFE;} .st1{fill:#0C39C6;} .st2{fill:#FFFFFF;} .st3{fill:#EDF7FC;} .st4{fill:none;stroke:#698BD1;stroke-width:1.115;stroke-linecap:round;stroke-linejoin:round;stroke-miterlimit:10;stroke-dasharray:3.1633;} .st5{fill:#188EF8;} .st6{fill:#20BAFC;} .st7{fill:#DEE3FC;} .st8{fill:#0D3BFB;} .st9{fill:#B2C1F9;} .st10{fill:#0C0042;} .st11{fill:#E5918F;} .st12{fill:#FFBD9D;} .st13{fill:#E0E0E0;} .st14{fill:#B9B9BA;} .st15{fill:#002C54;} .st16{fill:#CC6362;fill-opacity:0.45;} .st17{fill:none;stroke:#0C0042;stroke-miterlimit:10;} .st18{opacity:0.5;} .st19{fill:#CC6362;} .st20{fill:#375F84;} .st21{fill:#5996EF;} .st22{fill:#FFFFFF;stroke:#495AD6;stroke-width:0.9986;stroke-miterlimit:10;} .st23{fill:none;stroke:#495AD6;stroke-width:1.8639;stroke-miterlimit:10;} .st24{fill:none;stroke:#495AD6;stroke-width:1.8639;stroke-linecap:round;stroke-miterlimit:10;} .st25{fill:none;stroke:#FFFFFF;stroke-width:0.9986;stroke-linecap:round;stroke-miterlimit:10;} .st26{fill:#44D1FD;} .st27{fill:#1FBCFD;} .st28{fill:#08589C;} .st29{opacity:0.54;enable-background:new ;} </style> <path class="st0" d="M168.4,270.2c-60.2,40.2-136.5,9.9-95.9-57.9C107.7,152.9,93.3,115.1,118,89c32.9-34.7,83.7,14.4,83.7,14.4 C266.6,163.2,233.1,226.9,168.4,270.2z"></path> <path class="st0" d="M313.2,13.2c-31.8,21.5-36.9,59.3-33.6,82.2s1.7,48.3-24,67.8c-25.7,19.5-28.1,54.8-7.5,74.2 c22.3,21,76.4,49.5,139.7,11.6c35.8-22.1,63.9-54.6,80.5-93.1c13.8-32.1,18.9-58.9,5.2-74.9c-13.6-16-29.3-6.7-36.3-3.4 s-27.7,8.3-35.1-28.5C393.4,5.3,348.8-10.8,313.2,13.2z"></path> <g> <g> <path class="st1" d="M346.2,417.3H195.3c-13.1,0-23.8-10.7-23.8-23.8V57.7c0-13.1,10.7-23.8,23.8-23.8h150.9 c13.1,0,23.8,10.7,23.8,23.8v335.8C370,406.7,359.3,417.3,346.2,417.3z"></path> <path class="st2" d="M345.4,411.9H196.1c-11.5,0-20.9-9.3-20.9-20.9V58.1c0-11.5,9.3-20.9,20.9-20.9h149.3 c11.5,0,20.9,9.3,20.9,20.9V391C366.3,402.5,356.9,411.9,345.4,411.9z"></path> <path class="st3" d="M357.9,57.5V390c0,7.8-6.3,14.1-14.1,14.1H197.7c-7.8,0-14.1-6.3-14.1-14.1V57.5c0-7.8,6.3-14.1,14.1-14.1 h24.4c1.4,0,2.6,0.8,3.2,2l2.6,5.2c1.2,2.4,3.6,3.9,6.3,3.9h73.3c2.6,0,5.1-1.5,6.3-3.9l2.6-5.2c0.6-1.2,1.8-2,3.2-2h24.4 C351.6,43.3,357.9,49.7,357.9,57.5z"></path> <path class="st3" d="M301.5,48.3h-59c-1.4,0-2.5-1.1-2.5-2.5l0,0c0-1.4,1.1-2.5,2.5-2.5h59c1.4,0,2.5,1.1,2.5,2.5l0,0 C304,47.2,302.9,48.3,301.5,48.3z"></path> </g> <path class="st4" d="M334.7,392.6H203.4c-5.2,0-9.3-4.2-9.3-9.3v-46.4c0-5.2,4.2-9.3,9.3-9.3h131.3c5.2,0,9.3,4.2,9.3,9.3v46.4 C344.1,388.4,339.9,392.6,334.7,392.6z"></path> <g> <path class="st1" d="M342.1,316.7H207.5c-4.4,0-8-3.6-8-8v-56.8c0-4.4,3.6-8,8-8h134.6c4.4,0,8,3.6,8,8v56.8 C350.1,313.1,346.5,316.7,342.1,316.7z"></path> <path class="st5" d="M344.1,246v56.8c0,4.4-3.6,8-8,8H202c-4.4,0-8-3.6-8-8V246c0-4.4,3.6-8,8-8h134 C340.5,238,344.1,241.6,344.1,246z"></path> <path class="st2" d="M245.9,304.9h-39.5c-3,0-5.4-2.4-5.4-5.4V260c0-3,2.4-5.4,5.4-5.4h39.5c3,0,5.4,2.4,5.4,5.4v39.5 C251.3,302.4,248.8,304.9,245.9,304.9z"></path> <g> <path class="st3" d="M292.6,260.9h-34.8c-0.9,0-1.7-0.8-1.7-1.7l0,0c0-0.9,0.8-1.7,1.7-1.7h34.8c0.9,0,1.7,0.8,1.7,1.7l0,0 C294.3,260.2,293.6,260.9,292.6,260.9z"></path> <path class="st3" d="M276.8,267.8h-18.9c-0.9,0-1.7-0.8-1.7-1.7l0,0c0-0.9,0.8-1.7,1.7-1.7h18.9c0.9,0,1.7,0.8,1.7,1.7l0,0 C278.5,267,277.7,267.8,276.8,267.8z"></path> <path class="st3" d="M335,267.8h-51.2c-0.9,0-1.7-0.8-1.7-1.7l0,0c0-0.9,0.8-1.7,1.7-1.7H335c0.9,0,1.7,0.8,1.7,1.7l0,0 C336.7,267,335.9,267.8,335,267.8z"></path> <path class="st3" d="M287.1,274.6h-29.3c-0.9,0-1.7-0.8-1.7-1.7l0,0c0-0.9,0.8-1.7,1.7-1.7h29.3c0.9,0,1.7,0.8,1.7,1.7l0,0 C288.9,273.8,288.1,274.6,287.1,274.6z"></path> <path class="st3" d="M312,274.6h-18.4c-0.9,0-1.7-0.8-1.7-1.7l0,0c0-0.9,0.8-1.7,1.7-1.7H312c0.9,0,1.7,0.8,1.7,1.7l0,0 C313.7,273.8,312.9,274.6,312,274.6z"></path> <path class="st3" d="M335,274.6H318c-0.9,0-1.7-0.8-1.7-1.7l0,0c0-0.9,0.8-1.7,1.7-1.7H335c0.9,0,1.7,0.8,1.7,1.7l0,0 C336.7,273.8,335.9,274.6,335,274.6z"></path> <path class="st3" d="M335,281.4h-77.1c-0.9,0-1.7-0.8-1.7-1.7l0,0c0-0.9,0.8-1.7,1.7-1.7H335c0.9,0,1.7,0.8,1.7,1.7l0,0 C336.7,280.7,335.9,281.4,335,281.4z"></path> <path class="st3" d="M300.3,288.3h-42.4c-0.9,0-1.7-0.8-1.7-1.7l0,0c0-0.9,0.8-1.7,1.7-1.7h42.4c0.9,0,1.7,0.8,1.7,1.7l0,0 C302,287.5,301.2,288.3,300.3,288.3z"></path> <path class="st3" d="M335,288.3h-27.8c-0.9,0-1.7-0.8-1.7-1.7l0,0c0-0.9,0.8-1.7,1.7-1.7H335c0.9,0,1.7,0.8,1.7,1.7l0,0 C336.7,287.5,335.9,288.3,335,288.3z"></path> <path class="st3" d="M282.8,295.1h-24.9c-0.9,0-1.7-0.8-1.7-1.7l0,0c0-0.9,0.8-1.7,1.7-1.7h24.9c0.9,0,1.7,0.8,1.7,1.7l0,0 C284.5,294.3,283.7,295.1,282.8,295.1z"></path> <path class="st3" d="M314.5,295.1h-24.9c-0.9,0-1.7-0.8-1.7-1.7l0,0c0-0.9,0.8-1.7,1.7-1.7h24.9c0.9,0,1.7,0.8,1.7,1.7l0,0 C316.2,294.3,315.4,295.1,314.5,295.1z"></path> <path class="st3" d="M335,295.1h-14.5c-0.9,0-1.7-0.8-1.7-1.7l0,0c0-0.9,0.8-1.7,1.7-1.7H335c0.9,0,1.7,0.8,1.7,1.7l0,0 C336.7,294.3,335.9,295.1,335,295.1z"></path> <path class="st3" d="M292.6,301.9h-34.8c-0.9,0-1.7-0.8-1.7-1.7l0,0c0-0.9,0.8-1.7,1.7-1.7h34.8c0.9,0,1.7,0.8,1.7,1.7l0,0 C294.3,301.2,293.6,301.9,292.6,301.9z"></path> <path class="st3" d="M335,260.9h-34.8c-0.9,0-1.7-0.8-1.7-1.7l0,0c0-0.9,0.8-1.7,1.7-1.7H335c0.9,0,1.7,0.8,1.7,1.7l0,0 C336.7,260.2,335.9,260.9,335,260.9z"></path> </g> <g> <path class="st6" d="M344.1,246v2.4H194V246c0-4.4,3.6-8,8-8h134C340.5,238,344.1,241.6,344.1,246z"></path> <g> <path class="st7" d="M315.8,243.4c0,1-0.8,1.9-1.9,1.9c-1,0-1.9-0.8-1.9-1.9c0-1,0.8-1.9,1.9-1.9 C314.9,241.5,315.8,242.3,315.8,243.4z"></path> <path class="st7" d="M325.3,243.4c0,1-0.8,1.9-1.9,1.9c-1,0-1.9-0.8-1.9-1.9c0-1,0.8-1.9,1.9-1.9 C324.5,241.5,325.3,242.3,325.3,243.4z"></path> <path class="st7" d="M334.8,243.4c0,1-0.8,1.9-1.9,1.9c-1,0-1.9-0.8-1.9-1.9c0-1,0.8-1.9,1.9-1.9 C334,241.5,334.8,242.3,334.8,243.4z"></path> </g> </g> </g> </g> <g> <g> <rect x="408" y="350.4" class="st8" width="58.3" height="87.6"></rect> <rect x="466.3" y="350.4" transform="matrix(-1 -1.224647e-16 1.224647e-16 -1 954.8817 788.3471)" class="st1" width="22.3" height="87.6"></rect> <g> <rect x="469.5" y="353.7" class="st9" width="16.4" height="2.8"></rect> <rect x="469.5" y="359.7" class="st9" width="16.4" height="2.8"></rect> <rect x="469.5" y="365.7" class="st9" width="16.4" height="2.8"></rect> <rect x="469.5" y="371.8" class="st9" width="16.4" height="2.8"></rect> <rect x="469.5" y="377.8" class="st9" width="16.4" height="2.8"></rect> <rect x="469.5" y="383.8" class="st9" width="16.4" height="2.8"></rect> <rect x="469.5" y="389.8" class="st9" width="16.4" height="2.8"></rect> <rect x="469.5" y="395.8" class="st9" width="16.4" height="2.8"></rect> <rect x="469.5" y="401.8" class="st9" width="16.4" height="2.8"></rect> <rect x="469.5" y="407.8" class="st9" width="16.4" height="2.8"></rect> <rect x="469.5" y="413.8" class="st9" width="16.4" height="2.8"></rect> <rect x="469.5" y="419.8" class="st9" width="16.4" height="2.8"></rect> <rect x="469.5" y="425.8" class="st9" width="16.4" height="2.8"></rect> <rect x="469.5" y="431.8" class="st9" width="16.4" height="2.8"></rect> </g> </g> <g> <path class="st10" d="M398.5,438h29.6c0,0,1.7-5.3-1.9-11.8c0,0-2.4,1.9-9.5,0.6c0,0-3,2.5-5,3.5 C409.6,431.3,397.7,433.6,398.5,438z"></path> <path class="st10" d="M400.6,354.4c1.9,11.4,10.7,50,14.5,72.9c6.9,0.6,10.3-0.2,12-0.6c-0.3-8-1-27-0.9-35.3 c0.1-14.1,0.8-32.7-5.4-42.9l-20.9,1.6c0.1,1.1,0.2,2,0.3,2.6C400.4,353.3,400.5,353.9,400.6,354.4z"></path> <path class="st10" d="M344.9,438h29.6c0,0,1.7-5.3-1.9-11.8c0,0-2.4,1.9-9.5,0.6c0,0-3,2.5-5,3.5C356,431.3,344.1,433.6,344.9,438 z"></path> <path class="st10" d="M362.2,426.6c5.7,1.4,9.8,1.3,11.7,1c1.6-9.2,4.1-29.4,6.3-38.8c3.5-14.7,6.9-34.9,4.5-42.1l-20.5-5.2 C364.2,342.2,362.5,404.1,362.2,426.6z"></path> <path class="st10" d="M444,320.5L444,320.5c-0.4-4.1-0.9-7-0.9-7l-22.9,5.6l-19.5,4.4c-7.2,1.6-16,3.5-23.7,5.3 c-8.6,2-14.4,8.5-12.5,17.2l2.2,10.5c12.1-0.2,68.9-5.6,73.7-8.1C445.9,345.7,447.6,335.9,444,320.5z"></path> <path class="st10" d="M478.2,320.5L478.2,320.5c-0.4-4.1-2.4-8.4-2.4-8.4l-21.4,7l-19.5,4.4c-7.2,1.6-16,3.5-23.7,5.3 c-8.6,2-14.4,8.5-12.5,17.2l2.2,10.5c12.1-0.2,62.6-1.9,73.7-8.1C480.1,345.5,481.8,335.9,478.2,320.5z"></path> <g> <path class="st11" d="M414,287.6c0,0,10.2-4.6,13,0c1.5,2.5,0.5,7.2-3,9.2c-3.5,2-23.1,10.3-41.7,14.9c0,0-0.8-2.6-2.1-5.3 c0,0,8.3-3.5,16.6-9.3C405.1,291.4,414,287.6,414,287.6L414,287.6z"></path> </g> <path class="st12" d="M416.6,255.8l-8.7,34.9c0,0,0.9,8.8,9.8,4.5c8.9-4.3,14.8-32.1,14.8-32.1L416.6,255.8z"></path> <path class="st13" d="M431.3,275.3c-1.1-0.3-2.1-0.5-3.1-0.8c-1-0.3-2-0.6-2.9-0.9c-8.3-2.8-12.8-6.3-12.8-6.3 c2.6-11.3,5.8-19,8.5-24c0.1-0.1,0.1-0.2,0.2-0.4c0.1-0.1,0.1-0.2,0.2-0.4c1.5-2.5,3.7-4.6,6.1-6.3c0.2-0.2,0.5-0.3,0.7-0.5 l1,18.2l0.2,1.9L431.3,275.3z"></path> <path class="st14" d="M431.3,275.3c-1.1-0.3-2.1-0.5-3.1-0.8c-1-0.3-2-0.6-2.9-0.9c1.7-12.3,3.3-20,3.3-20l0.9,2.2L431.3,275.3z"></path> <path class="st13" d="M482.9,243.8c-0.2,5.4-1.2,14.1-2,22.8c-0.3,2.8-0.5,5.5-0.7,8.2c-0.1,1.7-2.7,10.5-2.8,12.1 c-0.4,7.6-4.2,13.3-0.6,24.9c0.8,2.8,1.1,4.2,1.1,5.3c0,0.8-1,1.6-1.4,1.9c-1.5,0.9-4.4,1.5-7.9,1.9h0c-6.9,0.8-16.3,1-22,1 c-7.6,0-19-1.2-20.4-3.1c-1.3-1.8-0.1-4.3,0.5-7.8c2.8-15.9,1.8-24.1,1.6-35.6c0-0.3,0-0.6,0-0.9c-0.3-17.7-1.5-32.8-0.6-38.2 c0.2-0.2,0.5-0.3,0.7-0.5c1.2-0.8,2.4-1.6,3.5-2.2c0.1,0,0.2-0.1,0.3-0.2c0.3-0.2,0.7-0.4,1-0.6c0.1-0.1,0.3-0.1,0.4-0.2 c2.6-1.3,6.3-2.6,8.5-3.3c0.3-0.1,0.5-0.2,0.7-0.2c2-0.1,4.2-0.1,6.6-0.1c2.1,0.1,5.2,0.3,8.6,0.8c0,0,0,0,0,0 c3.9,0.5,8.1,1.2,11.5,2.1c0,0,0,0,0.1,0c0.6,0.2,4.7,1.7,9,6.3C480.1,239.7,481.6,241.5,482.9,243.8z"></path> <path class="st14" d="M476.8,311.8c0.8,2.8,1.1,4.2,1.1,5.3c0,0.8-1,1.6-1.4,1.9c-1.5,0.9-4.4,1.5-7.9,1.9c1.5-0.2,4-2.5,4-4.6 c0-1.5-1.9-11.3-1.4-17.6c0.5-6.3,1.6-16.4-0.4-24.5c-2-8.1-3.8-18.7-3.8-18.7l11.1,6.7c0,0,1.4,2,3,4.4c-0.3,2.8-0.5,5.5-0.7,8.2 C480.1,276.4,473.3,300.2,476.8,311.8z"></path> <g> <path class="st15" d="M428.1,197.1c0,0,1,11.6,4.8,12.4c3.8,0.8,2.9-4.1,2.9-4.1l-0.5-5.5L428.1,197.1z"></path> <path class="st12" d="M445.8,239.1c-7.5-0.9-4.7-8.2-3.7-9.9c0.3-0.1,1.6-0.5,1.7-0.5c0,0,0,0,0,0c0.2-0.2,0.4-0.5,0.6-0.9 c0.7-1.9,0.4-5.8,0.4-6c0,0,0,0,0,0v-0.7c0.1-0.5,0.2-0.9,0.3-1.3l4-3.1l8.4-6.6c0,0-2.2,11-0.4,17.9c0.1,0.5,0.4,1.3,1.1,1.7 c0,0,0,0,0,0c0.2,0.1,0.5,0.2,0.8,0.3C461,230.9,458.1,240.5,445.8,239.1z"></path> <path class="st16" d="M452.4,217.1c0,0-0.1,7.3-8,10.7c0.7-1.9,0.4-5.8,0.4-6l3.3-2.6L452.4,217.1z"></path> <path class="st12" d="M429.9,198.8c0,0,1.7,24,8.2,26.1c0,0,8.3,0.8,14.2-7.2c1.7-2.3,3.9-2.8,4.6-5.6c1.1-4.5,2.8-12.8,0.7-17.8 C454.7,187,430.2,181.4,429.9,198.8z"></path> <path class="st10" d="M457.7,190.2c-0.1-4.4-4.5-6-4.5-6c-4.4-2.1-13.5-1.2-23,0.9c-2.2,0.5-5-0.9-6.5,0.2c-1.9,1.3,0,7.2,0,7.2 c3.6,11,17,7.4,21,6.1c1,2.8,0.8,6.8,3.2,8.8c1.4,1.2,3.7,1.2,6.1,0.8c0.3,0.6,1.4,1.1,1.6,1.8c0.8,2.6,0.6,6.6,0.6,9.7l1.1-0.6 C457.6,218.4,469.4,190.6,457.7,190.2z"></path> <g> <path class="st17" d="M436.6,206.9c0.3,2-0.6,3.8-2.2,4.1c-1.6,0.3-3.1-1.1-3.4-3.1c-0.3-2,0.6-3.8,2.2-4.1 C434.7,203.5,436.3,204.9,436.6,206.9z"></path> <path class="st17" d="M444.4,205.4c0.3,2-0.6,3.8-2.2,4.1c-1.6,0.3-3.1-1.1-3.4-3.1c-0.3-2,0.6-3.8,2.2-4.1 C442.6,202,444.1,203.4,444.4,205.4z"></path> <path class="st17" d="M436.6,206.9c0,0,0.3-0.6,2.1-0.4"></path> <line class="st17" x1="444.5" y1="205.9" x2="451.2" y2="204.8"></line> </g> <g> <path class="st12" d="M451.7,213.3c4.6,1.8,6.1-9.6,1.7-10.1c-3.3-0.4-3.5,4.3-3.5,4.3S449.1,212.3,451.7,213.3z"></path> </g> <g class="st18"> <g> <path class="st19" d="M453.2,204.9c-1.5,1.6-1.2,3.8-1,5.9C450.8,209.1,450.8,205.7,453.2,204.9L453.2,204.9z"></path> </g> <g> <path class="st19" d="M453.9,207.1c-1,0.1-1.7,0.9-1.9,1.8c0,0-0.8-0.3-0.8-0.3C451.8,207.6,452.9,206.9,453.9,207.1 L453.9,207.1z"></path> </g> </g> </g> <path class="st12" d="M496.1,292.2C496.1,292.2,496.1,292.2,496.1,292.2c-2,2.4-9.7,4.1-13.4,0.8c-1.2-1-2.5-3.8-3.8-7.2 c-3.3-8.7-6.4-21.6-6.4-21.6l17.2-8.8c0,0,2.2,9.9,4.1,19.4c0,0,0,0.1,0.1,0.3c0.6,3,1.2,6,1.7,8.6c0,0.1,0,0.1,0,0.2 C496,286.9,496.3,290.1,496.1,292.2z"></path> <path class="st13" d="M466,252.2c1.7,6.9,6.9,20,6.9,20c3.7,0.6,8.6-0.1,12.6-1.5c4.7-1.7,8.1-5.2,8.1-5.2s-3.5-9.7-6.6-16.7 c-2.8-6.3-4.5-8.6-5.7-9.9c-1.8-1.9-4.8-4.1-6.8-5.1L466,252.2z"></path> <path class="st13" d="M487.7,256.7l-10.1-4.4l-8-20.5c0,0,1.5,0.4,3.4,1.2c0,0,0,0,0,0c0,0,0.1,0,0.3,0.1c0,0,0.1,0,0.1,0.1 c1.7,0.8,8.4,4.7,13,19c0,0.1,0.1,0.2,0.1,0.4c0.5,1.6,0.9,3,1,3.6c0,0.1,0,0.1,0.1,0.2C487.7,256.5,487.7,256.6,487.7,256.7z"></path> <g> <path class="st12" d="M496.1,292.2C496.1,292.2,496.1,292.2,496.1,292.2c-0.1,1.3-0.5,2.2-1.1,2.5c-0.1,0.1-1.5,0.9-1.6,1 c-2.1,1.3-5.9,3.5-10.7,5.5c-11.5,5-28.3,10.7-37.3,13.4c0,0-0.9-2.5-2.3-5.2c0,0,8.2-3.8,16.2-9.9c8-6.1,19.6-13.6,19.6-13.6 l2.9-3.4c0,0,10.4-9.5,12-7.6c0,0,0,0.1,0.1,0.3c0.2,1,1.1,4.7,1.7,8.6c0,0.1,0,0.1,0,0.2C496,286.9,496.3,290.1,496.1,292.2z"></path> <path class="st12" d="M444.3,308.8c0,0-2,1.2-4.1,0.8c-1.1-0.2-1.6-0.7-2.4-0.9c-0.8-0.1-3.1-0.4-4.2-1c-1.1-0.5-1.5-0.6-1.5,0.5 c0,1.1,2.2,2.1,2.8,2.4c0.6,0.3,1.3,1.3,1.4,1.4c0.1,0.1-3.7,2.1-4.7,1.7c0,0-0.3,0.9-0.1,1.4c0.2,0.5,0.9,0.7,1,0.9 c0.1,0.3-0.2,0.8,0,1.2c0.2,0.4,0.9,0.4,1.1,1.1c0.3,0.7,0,0.7,0.2,1.3c0.2,0.7,1.1,0.8,1.2,1.2c0.2,0.4,0.1,0.8,0.4,1 c0.4,0.2,3.7-0.8,5-1.4c1.2-0.5,4.5-5.3,8.2-6.9L444.3,308.8z"></path> </g> <path class="st20" d="M461.5,329.9h-26.2v-2.6h26.2c0.7,0,1.3,0.6,1.3,1.3l0,0C462.8,329.4,462.2,329.9,461.5,329.9z"></path> <path class="st20" d="M447.3,329.9h-65.6c-0.8,0-1.5-0.5-1.7-1.3l-13.4-48.3c-0.3-1.1,0.5-2.1,1.6-2.1h63.4c1.5,0,2.8,1,3.2,2.4 l13.4,48.2C448.4,329.4,447.9,329.9,447.3,329.9z"></path> <path class="st5" d="M445,329.9h-65.6c-0.8,0-1.5-0.5-1.7-1.3l-13.4-48.3c-0.3-1.1,0.5-2.1,1.6-2.1h63.4c1.5,0,2.8,1,3.2,2.4 l13.4,48.2C446,329.4,445.6,329.9,445,329.9z"></path> </g> </g> <g> <path class="st12" d="M185,298.7l7.6-7.8c0,0,0.3-3.5,0.7-4.2c0.4-0.7,1.5-3.4,2-3.7c0.5-0.3,1.6,0,1.6,0s1.1-0.4,1.5-0.4 c0.5,0,1.4,0.4,1.4,0.4s1.1-0.1,1.6-0.1c0.5,0,0.6,0.1,0.6,0.1s1.8-2.1,2.7-2.8c0.9-0.7,2.2-2,2.6-2c0.4,0,0.5,0.7,0.3,1.4 c-0.3,0.7-1.5,1.9-1.5,1.9l-3.5,5.2c0,0,0.6-0.2,0.9-0.4c0.3-0.2,2.4-2.2,2.6-2.2c0.1-0.1,1.1-0.7,1.6-0.1s-3.6,5.6-4.3,6.3 c-0.7,0.7-4.5,2.6-4.5,2.6s-4.1,7.3-4.4,7.8C194.1,301.2,185,298.7,185,298.7z"></path> <path class="st12" d="M192.1,262.8c0,0-4.2,24.6-8.2,25.2c0,0-16,0.6-19.5-18.7c-3.1-16.8,9.3-20.4,15.1-19.1 C185.2,251.4,193.3,252.2,192.1,262.8z"></path> <path class="st12" d="M178,284c0,0-2.2,3-3,10.3c0,0-6.6,0.9-12.8-2.2c0,0,3.3-10.3,3.7-21.5"></path> <path class="st10" d="M173.5,246c-8.7,1.9-8,7.4-8,7.4c-4.1,1-5,2.7-4.9,10.2c0,7.5,2.8,16.6,4.3,17.3c1.5,0.7,10,0.8,10.7,0.5 c0.7-0.3,3.7-7.2,3-8.4c-0.7-1.2,0-6,2-6.2c2-0.2,1.6,2.9,1.6,2.9l1.6-0.4l1.3-3.1c11.5,0.7,14.5-12.4,14.5-12.4 C196.8,252.1,182.2,244.1,173.5,246z"></path> <path class="st12" d="M76.8,412.5l8.8,1.3L82.6,424l-9.5-2.4c0,0-3.9-5.3,2-9.2C75.4,412.3,76.3,412.4,76.8,412.5z"></path> <path class="st10" d="M142.5,386l-13-39.3c0,0-3.9-1.4-6,0c0,0-13.5,7.3-12.1,28c1.1,15.6,4.4,32.6,5.7,39.4l-34.7-1.3 c0,0-4.3,5.1-1.5,11.7c0,0,43.5,11.7,49.7,12.8c5,0.9,10.4,1.6,13.1-0.7C148.5,432.7,142.5,386,142.5,386z"></path> <path class="st12" d="M117.8,412.5l8.8,1.3l-2.9,10.3l-9.5-2.4c0,0-3.9-5.3,2-9.2C116.4,412.3,117.3,412.4,117.8,412.5z"></path> <path class="st5" d="M114.6,417.9c-0.2,2,1.6,3.9,1.3,4.4c-0.3,0.5-6.2,10.4-6.2,10.4s4.5,1.9,3.8,4.8H102c0,0-3-2.7-2.9-6.5 c0,0,0.8-4.4,2.8-8.3c2-3.9,6.6-12.7,6.6-12.7s1.4-0.6,3.8,0.1c2.8,0.7,5.5,2.5,5.5,2.5S115.1,412.9,114.6,417.9z"></path> <path class="st10" d="M205.3,428.4c-2.8-10.4-29.1-55-38-67c-18.3-7.9-37.8-14.7-37.8-14.7c-8.1,1.9-12,18.2-7.5,29 c3.1,7.4,23,26.1,35.2,37.1l-33.8,0c0,0-4,6-0.4,11.6c0,0,56.2,12.8,61.2,13.5s16,0,16,0S207.7,437.2,205.3,428.4z"></path> <path class="st5" d="M73.6,417.9c-0.2,2,1.6,3.9,1.3,4.4c-0.3,0.5-6.2,10.4-6.2,10.4s4.5,1.9,3.8,4.8H61c0,0-3-2.7-2.9-6.5 c0,0,0.8-4.4,2.8-8.3c2-3.9,6.6-12.7,6.6-12.7s1.4-0.6,3.8,0.1c2.8,0.7,5.5,2.5,5.5,2.5S74,412.9,73.6,417.9z"></path> <path class="st12" d="M247.6,291.1L229.5,323l-13-12.9l-10.7,16l3.1,1.5l-1.1,0.9c0,0,25.1,12.2,28.1,9.5c3-2.7,17-43.3,17-43.3 L247.6,291.1z"></path> <path class="st5" d="M218.8,312.1c0,0-3.4,14.4-10.3,21.3l-17.5-6.7c0,0-8.1,13.7-16.1,24.2c-3.1,4-4.1,9.7-7.7,10.5 c-0.2-0.1-0.4-0.1-0.7-0.2c-9.7-2.9-24.1,0.2-35.9-4.2c-13.1-4.9-10.5-7.6-10.5-7.6s7.9-14.3,12.4-29.5c2-6.7,3.4-12.9,4.3-17.8 c1.7-8.6,8.5-15.3,17.2-16.5c0.1,0,0.2,0,0.3,0c9.9-1.3,35.9,1.8,41,4C200.4,291.7,218.8,312.1,218.8,312.1z"></path> <path class="st21" d="M191.1,326.7c0,0-8.1,13.7-16.1,24.2c-3.1,4-4.1,9.7-7.7,10.5c1.6-0.6,4.2-8.8,5.1-10.7 c0.9-1.9,2.4-3.7,5.6-10.2c3.2-6.5,7.5-16.1,7.5-16.1L191.1,326.7z"></path> <g> <path d="M157.3,412.8c5.9-0.9,12.1-0.1,17.5,2.5C168.9,414.3,163.2,413.6,157.3,412.8L157.3,412.8z"></path> </g> <path class="st12" d="M261.2,279.4c-0.3,0-2.2,1.5-3,2.2l1-2c0,0,1.4-1.3,1.9-2c0.5-0.7,0.2-1.4-0.2-1.5c-0.3,0-1.9,1.3-2.9,2 l0.2-0.4c0,0,1.4-1.3,1.9-2c0.5-0.7,0.2-1.4-0.2-1.5c-0.4,0-3.5,2.6-3.5,2.6l-1.5,2.1l1.2-2.2c0,0,0.6-0.7,1-1.6s0.1-1.1-0.1-1.3 c-0.2-0.3-2.3,1.3-2.9,1.9c-0.5,0.6-2.3,3.2-2.4,3.5l-1.8,3.7c-0.1-1.1-0.3-2.9-0.4-4c-0.2-1.7-1.7-2.1-1.7-1.3 c-0.1,0.8-0.9,4.8-0.7,7c0.2,2.2,0.6,3.6,0.7,4.8c0.1,1.2-1.1,3.6-1.1,3.6s5,3.1,5.9,2.2c0.8-0.9,2.6-3,3.5-4.4 c1.2-1.9,2-4.5,2-4.5l1.6-3.4c0,0,1.4-1.3,1.9-2C261.8,280.2,261.6,279.4,261.2,279.4z"></path> </g> <g> <path class="st22" d="M440.6,145.6H332.8c-5.9,0-10.8-4.8-10.8-10.8l0,0c0-5.9,4.8-10.8,10.8-10.8h107.8c5.9,0,10.8,4.8,10.8,10.8 l0,0C451.4,140.8,446.6,145.6,440.6,145.6z"></path> <g> <path class="st23" d="M439,134.1c0,3.2-2.6,5.7-5.7,5.7s-5.7-2.6-5.7-5.7s2.6-5.7,5.7-5.7S439,130.9,439,134.1z"></path> <line class="st24" x1="437.4" y1="138.1" x2="440.5" y2="141.3"></line> </g> </g> <g> <path class="st1" d="M556.5,438.5h-34.6c-6.1,0-11-4.9-11-11v-34.6c0-6.1,4.9-11,11-11h34.6c6.1,0,11,4.9,11,11v34.6 C567.5,433.6,562.6,438.5,556.5,438.5z"></path> <path class="st8" d="M546.2,438.5h-34.6c-6.1,0-11-4.9-11-11v-34.6c0-6.1,4.9-11,11-11h34.6c6.1,0,11,4.9,11,11v34.6 C557.2,433.6,552.3,438.5,546.2,438.5z"></path> <path class="st2" d="M535.7,395.8c0,3.8-3,6.8-6.8,6.8s-6.8-3-6.8-6.8c0-3.8,3-6.8,6.8-6.8S535.7,392.1,535.7,395.8z"></path> <path class="st2" d="M543.1,418.8v10c0,0.9-0.7,1.6-1.6,1.6h-25.1c-0.9,0-1.6-0.7-1.6-1.6v-10c0-7.8,6.3-14.2,14.2-14.2l0,0 C536.7,404.7,543.1,411,543.1,418.8z"></path> </g> <g> <path class="st8" d="M523.8,181H501c-0.9,0-1.7-0.8-1.7-1.7l0,0c0-0.9,0.8-1.7,1.7-1.7h22.8c0.9,0,1.7,0.8,1.7,1.7l0,0 C525.5,180.2,524.7,181,523.8,181z"></path> <path class="st8" d="M546.6,181h-16.5c-0.9,0-1.7-0.8-1.7-1.7l0,0c0-0.9,0.8-1.7,1.7-1.7h16.5c0.9,0,1.7,0.8,1.7,1.7l0,0 C548.3,180.2,547.5,181,546.6,181z"></path> <path class="st8" d="M510.7,188.5H501c-0.9,0-1.7-0.8-1.7-1.7l0,0c0-0.9,0.8-1.7,1.7-1.7h9.7c0.9,0,1.7,0.8,1.7,1.7l0,0 C512.4,187.8,511.6,188.5,510.7,188.5z"></path> <path class="st8" d="M546.6,188.5h-30.1c-0.9,0-1.7-0.8-1.7-1.7l0,0c0-0.9,0.8-1.7,1.7-1.7h30.1c0.9,0,1.7,0.8,1.7,1.7l0,0 C548.3,187.8,547.5,188.5,546.6,188.5z"></path> <path class="st8" d="M531,196.1h-30c-0.9,0-1.7-0.8-1.7-1.7l0,0c0-0.9,0.8-1.7,1.7-1.7h30c0.9,0,1.7,0.8,1.7,1.7l0,0 C532.8,195.3,532,196.1,531,196.1z"></path> <path class="st8" d="M546.6,196.1h-9.7c-0.9,0-1.7-0.8-1.7-1.7l0,0c0-0.9,0.8-1.7,1.7-1.7h9.7c0.9,0,1.7,0.8,1.7,1.7l0,0 C548.3,195.3,547.5,196.1,546.6,196.1z"></path> </g> <g> <path class="st6" d="M119.9,250H40.4c-2.4,0-4.3-1.9-4.3-4.3v-40.1c0-2.4,1.9-4.3,4.3-4.3h79.5c2.4,0,4.3,1.9,4.3,4.3v40.1 C124.2,248,122.2,250,119.9,250z"></path> <line class="st25" x1="39.9" y1="207.9" x2="120.4" y2="207.9"></line> <circle class="st2" cx="118.3" cy="204.5" r="1"></circle> <circle class="st2" cx="113.2" cy="204.5" r="1"></circle> <circle class="st2" cx="108.1" cy="204.5" r="1"></circle> <g> <g> <path class="st3" d="M54.9,214.4H41.2c-0.7,0-1.3-0.6-1.3-1.3l0,0c0-0.7,0.6-1.3,1.3-1.3h13.7c0.7,0,1.3,0.6,1.3,1.3l0,0 C56.2,213.8,55.6,214.4,54.9,214.4z"></path> <path class="st3" d="M54.9,220.6H41.2c-0.7,0-1.3-0.6-1.3-1.3l0,0c0-0.7,0.6-1.3,1.3-1.3h13.7c0.7,0,1.3,0.6,1.3,1.3l0,0 C56.2,220,55.6,220.6,54.9,220.6z"></path> <path class="st3" d="M54.9,226.9H41.2c-0.7,0-1.3-0.6-1.3-1.3l0,0c0-0.7,0.6-1.3,1.3-1.3h13.7c0.7,0,1.3,0.6,1.3,1.3l0,0 C56.2,226.3,55.6,226.9,54.9,226.9z"></path> <path class="st3" d="M54.9,233.1H41.2c-0.7,0-1.3-0.6-1.3-1.3l0,0c0-0.7,0.6-1.3,1.3-1.3h13.7c0.7,0,1.3,0.6,1.3,1.3l0,0 C56.2,232.5,55.6,233.1,54.9,233.1z"></path> <path class="st3" d="M54.9,239.3H41.2c-0.7,0-1.3-0.6-1.3-1.3l0,0c0-0.7,0.6-1.3,1.3-1.3h13.7c0.7,0,1.3,0.6,1.3,1.3l0,0 C56.2,238.7,55.6,239.3,54.9,239.3z"></path> <path class="st3" d="M54.9,245.5H41.2c-0.7,0-1.3-0.6-1.3-1.3l0,0c0-0.7,0.6-1.3,1.3-1.3h13.7c0.7,0,1.3,0.6,1.3,1.3l0,0 C56.2,244.9,55.6,245.5,54.9,245.5z"></path> </g> <g> <path class="st3" d="M119.1,214.4H60.2c-0.7,0-1.3-0.6-1.3-1.3l0,0c0-0.7,0.6-1.3,1.3-1.3h58.9c0.7,0,1.3,0.6,1.3,1.3l0,0 C120.4,213.8,119.8,214.4,119.1,214.4z"></path> <path class="st3" d="M119.1,220.6H60.2c-0.7,0-1.3-0.6-1.3-1.3l0,0c0-0.7,0.6-1.3,1.3-1.3h58.9c0.7,0,1.3,0.6,1.3,1.3l0,0 C120.4,220,119.8,220.6,119.1,220.6z"></path> <path class="st3" d="M119.1,226.9H60.2c-0.7,0-1.3-0.6-1.3-1.3l0,0c0-0.7,0.6-1.3,1.3-1.3h58.9c0.7,0,1.3,0.6,1.3,1.3l0,0 C120.4,226.3,119.8,226.9,119.1,226.9z"></path> <path class="st3" d="M119.1,233.1H60.2c-0.7,0-1.3-0.6-1.3-1.3l0,0c0-0.7,0.6-1.3,1.3-1.3h58.9c0.7,0,1.3,0.6,1.3,1.3l0,0 C120.4,232.5,119.8,233.1,119.1,233.1z"></path> <path class="st3" d="M119.1,239.3H60.2c-0.7,0-1.3-0.6-1.3-1.3l0,0c0-0.7,0.6-1.3,1.3-1.3h58.9c0.7,0,1.3,0.6,1.3,1.3l0,0 C120.4,238.7,119.8,239.3,119.1,239.3z"></path> <path class="st3" d="M119.1,245.5H60.2c-0.7,0-1.3-0.6-1.3-1.3l0,0c0-0.7,0.6-1.3,1.3-1.3h58.9c0.7,0,1.3,0.6,1.3,1.3l0,0 C120.4,244.9,119.8,245.5,119.1,245.5z"></path> </g> </g> </g> <g> <g> <path class="st8" d="M540.1,324.4h-23.4c-3.5,0-6.3-2.8-6.3-6.3v-23.4c0-3.5,2.8-6.3,6.3-6.3h23.4c3.5,0,6.3,2.8,6.3,6.3v23.4 C546.4,321.6,543.6,324.4,540.1,324.4z"></path> <path class="st6" d="M538.6,321.3h-25.9c-2.8,0-5-2.3-5-5v-25.9c0-2.8,2.3-5,5-5h25.9c2.8,0,5,2.3,5,5v25.9 C543.6,319.1,541.3,321.3,538.6,321.3z"></path> </g> <g> <g> <path class="st2" d="M518.3,314.1c-0.1,0-0.2,0-0.3,0c-0.6-0.2-0.9-0.8-0.8-1.4l5.4-19.3c0.2-0.6,0.8-0.9,1.4-0.8 c0.6,0.2,0.9,0.8,0.8,1.4l-5.4,19.3C519.3,313.7,518.8,314.1,518.3,314.1z"></path> </g> <g> <path class="st2" d="M527.4,314.1c-0.1,0-0.2,0-0.3,0c-0.6-0.2-0.9-0.8-0.8-1.4l5.4-19.3c0.2-0.6,0.8-0.9,1.4-0.8 c0.6,0.2,0.9,0.8,0.8,1.4l-5.4,19.3C528.4,313.7,527.9,314.1,527.4,314.1z"></path> </g> <g> <path class="st2" d="M535.2,300.1H516c-0.6,0-1.1-0.5-1.1-1.1c0-0.6,0.5-1.1,1.1-1.1h19.3c0.6,0,1.1,0.5,1.1,1.1 C536.3,299.6,535.8,300.1,535.2,300.1z"></path> </g> <g> <path class="st2" d="M535.2,308.9H516c-0.6,0-1.1-0.5-1.1-1.1c0-0.6,0.5-1.1,1.1-1.1h19.3c0.6,0,1.1,0.5,1.1,1.1 C536.3,308.4,535.8,308.9,535.2,308.9z"></path> </g> </g> </g> <g> <path class="st6" d="M20.2,322.7h-16c-1,0-1.8-0.8-1.8-1.7l0,0c0-1,0.8-1.7,1.8-1.7h16c1,0,1.8,0.8,1.8,1.7l0,0 C22,322,21.2,322.7,20.2,322.7z"></path> <path class="st6" d="M36.4,330.4H4.2c-1,0-1.8-0.8-1.8-1.7l0,0c0-1,0.8-1.7,1.8-1.7h32.2c1,0,1.8,0.8,1.8,1.7l0,0 C38.1,329.6,37.3,330.4,36.4,330.4z"></path> <path class="st6" d="M8,338H4.2c-1,0-1.8-0.8-1.8-1.7l0,0c0-1,0.8-1.7,1.8-1.7H8c1,0,1.8,0.8,1.8,1.7l0,0C9.8,337.3,9,338,8,338z"></path> <path class="st6" d="M36.4,338H14c-1,0-1.8-0.8-1.8-1.7l0,0c0-1,0.8-1.7,1.8-1.7h22.4c1,0,1.8,0.8,1.8,1.7l0,0 C38.1,337.3,37.3,338,36.4,338z"></path> <path class="st6" d="M36.4,322.7h-9.7c-1,0-1.8-0.8-1.8-1.7l0,0c0-1,0.8-1.7,1.8-1.7h9.7c1,0,1.8,0.8,1.8,1.7l0,0 C38.1,322,37.3,322.7,36.4,322.7z"></path> </g> <path class="st0" d="M41,418.5c-1.8,0-3.5,0.5-5,1.4c-0.6-5.2-5-9.2-10.4-9.2c-5.8,0-10.4,4.7-10.4,10.4c0,0.4,0,0.8,0.1,1.1 c-0.5-0.1-1-0.1-1.5-0.1c-4.4,0-8,3.6-8,8c0,4.4,3.6,8,8,8H41c5.4,0,9.7-4.4,9.7-9.7C50.8,422.9,46.4,418.5,41,418.5z"></path> <g> <g> <path class="st26" d="M271.9,90.4l23.4,0L256,129.7l-10.2,10.2l-11.7-11.7L271.9,90.4z M271.6,125.5c0.3-0.4,0.9-0.2,1.3-0.3 l22.4,0l-20.4,20.3l-11.7-11.7L271.6,125.5z"></path> <path class="st27" d="M251.5,145.6l11.7-11.7l11.7,11.7l0,0.1l-11.8,11.7L251.5,145.6L251.5,145.6z"></path> <path class="st28" d="M263.2,157.3l11.8-11.7l20.3,20.3c-7.7,0-15.3,0-23,0c-0.4,0.1-0.7-0.3-1-0.5L263.2,157.3L263.2,157.3z"></path> </g> <path class="st29" d="M234.1,181.4l11,0l0,2.2c-2.9,0-5.8,0-8.6,0c-0.2,0.1-0.1,0.3-0.1,0.5l0,5.8c0.1,0.2,0.3,0.1,0.5,0.1l7.4,0 v2.2c-2.3,0-4.6,0-6.9,0c-0.3,0-0.7,0-1,0l0,8.2c-0.7,0-1.5,0-2.2,0l0-18.7C234.1,181.7,234.1,181.4,234.1,181.4z M247.7,181.4h2.3 l0,12.9l0,6.1c-0.7,0-1.5,0-2.2,0c-0.1-0.3,0-0.6,0-0.9C247.7,199.5,247.7,181.4,247.7,181.4z M269.8,183l2.3,0l0,3.8 c1.1,0,2.2,0,3.3,0c0,0.7,0,1.4,0,2.1c-1.1,0-2.2,0-3.3,0l0,7.6c0,0.7,0.2,1.6,0.9,1.9c0.8,0.4,1.7,0.2,2.5-0.2v2.2 c-0.8,0.4-1.7,0.4-2.6,0.3c-1.2-0.2-2.4-1-2.8-2.3c-0.2-0.7-0.2-1.4-0.2-2.1l0-7.4l-0.1-0.1c-0.8,0-1.6,0-2.3,0c0-0.7,0-1.4,0-2.1 c0.8,0,1.6,0,2.4,0L269.8,183L269.8,183z M279.4,183c0.8,0,1.5,0,2.3,0l0.1,0.1c0,1.3,0,2.5,0,3.8c1.1,0,2.1,0,3.2,0l0,2.1 c-1.1,0-2.2,0-3.2,0l0,7.8c0,0.7,0.2,1.5,0.8,1.8c0.8,0.4,1.8,0.2,2.5-0.2l0,2.2c-0.8,0.4-1.7,0.4-2.5,0.3 c-1.1-0.1-2.2-0.8-2.7-1.8c-0.3-0.5-0.4-1.1-0.4-1.7v-8.4c-0.8,0-1.6,0-2.3,0l0-2.1c0.8,0,1.5,0,2.3,0 C279.5,185.6,279.4,184.3,279.4,183L279.4,183z M290.4,186.9c1.6-0.6,3.4-0.7,5-0.1c1.8,0.6,3.2,2.2,3.8,4.1c0.3,1,0.3,2.1,0.3,3.2 l-10.7,0c0.1,1.1,0.4,2.3,1.2,3.2c1.1,1.3,3.1,1.8,4.7,1.3c1.2-0.3,2.1-1.2,2.6-2.2c0.7,0.3,1.3,0.6,1.9,0.9 c-0.9,1.7-2.5,3-4.4,3.4c-1.6,0.3-3.3,0.3-4.7-0.5c-1.9-0.9-3.1-2.8-3.5-4.8c-0.3-1.6-0.2-3.2,0.4-4.7 C287.6,189,288.8,187.6,290.4,186.9 M291.3,188.8c-1.3,0.6-2.2,2-2.4,3.4l8.2,0c-0.1-0.9-0.5-1.8-1.1-2.5 C294.8,188.4,292.8,188.2,291.3,188.8z M304.3,189c0.9-2.1,3.5-3.2,5.6-2.3v2.4c-0.9-0.3-1.9-0.6-2.8-0.3c-1.3,0.4-2.2,1.5-2.6,2.8 c-0.2,0.8-0.2,1.7-0.1,2.6c-0.1,1.1,0,2.2,0,3.3c0.1,1-0.1,1.9,0,2.9c-0.8,0-1.5,0-2.3,0c0-2.9,0-5.8,0-8.7l0-4.9 c0.7,0,1.4,0,2.2,0C304.3,187.6,304.2,188.3,304.3,189L304.3,189z M253.2,186.8c0.8,0,1.5,0,2.3,0l0,8.1c0,1,0.1,2.1,0.8,2.8 c0.9,1,2.4,1.2,3.6,0.8c1.6-0.6,2.7-2.3,2.7-4l0-7.7l2.3,0l0,13.6c-0.7,0-1.5,0-2.2,0l0-1.9c-0.5,0.6-1,1.2-1.6,1.6 c-1.4,0.9-3.1,1-4.7,0.5c-1-0.3-1.9-1-2.4-1.9c-0.6-1-0.7-2.2-0.8-3.4L253.2,186.8L253.2,186.8z"></path> </g> <circle class="st2" cx="405" cy="301.9" r="3.5"></circle> </svg> 